<svg width="180" height="194" viewBox="0 0 180 194" fill="none" xmlns="http://www.w3.org/2000/svg">
<g clip-path="url(#clip0_17_2)">
<path d="M118.2 32.5L130 44.3V60.9L90 101L49.8 60.9V44.3L61.5 32.6H78.1L89.8001 44.3L101.5 32.6H118.2V32.5ZM117.7 33.7H102.1L90.7 45.1L89.9001 45.9L89 45.1L77.7 33.7H62L51 44.7V60.3L90 99.3L128.8 60.3V44.8L117.7 33.7Z" fill="black"/>
<path d="M118.2 39.2L130 50.9V67.5L90 107.7L49.8 67.5V50.9L61.5 39.2H78.1L89.8001 50.9L101.5 39.2H118.2ZM117.7 40.4H102.1L90.7 51.8L89.9001 52.6L89 51.8L77.7 40.4H62L51 51.4V67L90 106L128.8 67V51.4L117.7 40.4Z" fill="black"/>
<path d="M118.2 45.9L130 57.6V74.2L90 114.4L49.8 74.2V57.6L61.5 45.9H78.1L89.8001 57.6L101.5 45.9H118.2ZM117.7 47.1H102.1L90.7 58.5L89.9001 59.3L89 58.5L77.7 47.1H62L51 58.1V73.7L90 112.7L128.8 73.7V58.1L117.7 47.1Z" fill="black"/>
<path d="M118.2 52.6L130 64.3V80.9L90 121.1L49.8 80.9V64.3L61.5 52.6H78.1L89.8001 64.3L101.5 52.6H118.2ZM117.7 53.8H102.1L90.7 65.1L89.9001 66L89 65.1L77.7 53.8H62L51 64.8V80.4L90 119.4L128.8 80.4V64.8L117.7 53.8Z" fill="black"/>
<path d="M118.2 59.2L130 71V87.6L90 127.8L49.8 87.6V71L61.5 59.3H78.1L89.9001 71L101.6 59.3H118.2V59.2ZM117.7 60.4H102.1L90.7 71.8L89.9001 72.6L89 71.8L77.7 60.4H62L51 71.4V87L90 126L128.8 87V71.5L117.7 60.4Z" fill="black"/>
<path d="M49.8 44.3L61.6 32.5L78.1 33.2L89.9001 45.1L101.7 33.1H117.9L129.4 44.7L129.3 60.6L89.9001 100.1L50.3 60.5L49.8 44.3Z" fill="black"/>
<path d="M2.725 167.63C2.71167 167.54 2.68167 167.458 2.635 167.385C2.58833 167.308 2.53 167.242 2.46 167.185C2.39 167.128 2.31 167.085 2.22 167.055C2.13333 167.022 2.04167 167.005 1.945 167.005C1.76833 167.005 1.61833 167.04 1.495 167.11C1.37167 167.177 1.27167 167.268 1.195 167.385C1.11833 167.498 1.06167 167.628 1.025 167.775C0.991667 167.922 0.975 168.073 0.975 168.23C0.975 168.38 0.991667 168.527 1.025 168.67C1.06167 168.81 1.11833 168.937 1.195 169.05C1.27167 169.163 1.37167 169.255 1.495 169.325C1.61833 169.392 1.76833 169.425 1.945 169.425C2.185 169.425 2.37167 169.352 2.505 169.205C2.64167 169.058 2.725 168.865 2.755 168.625H3.515C3.495 168.848 3.44333 169.05 3.36 169.23C3.27667 169.41 3.16667 169.563 3.03 169.69C2.89333 169.817 2.73333 169.913 2.55 169.98C2.36667 170.047 2.165 170.08 1.945 170.08C1.67167 170.08 1.425 170.033 1.205 169.94C0.988333 169.843 0.805 169.712 0.655 169.545C0.505 169.378 0.39 169.183 0.31 168.96C0.23 168.733 0.19 168.49 0.19 168.23C0.19 167.963 0.23 167.717 0.31 167.49C0.39 167.26 0.505 167.06 0.655 166.89C0.805 166.72 0.988333 166.587 1.205 166.49C1.425 166.393 1.67167 166.345 1.945 166.345C2.14167 166.345 2.32667 166.373 2.5 166.43C2.67667 166.487 2.83333 166.57 2.97 166.68C3.11 166.787 3.225 166.92 3.315 167.08C3.405 167.24 3.46167 167.423 3.485 167.63H2.725ZM3.97605 167.415H4.65105V167.895H4.66105C4.69439 167.815 4.73939 167.742 4.79605 167.675C4.85272 167.605 4.91772 167.547 4.99105 167.5C5.06439 167.45 5.14272 167.412 5.22605 167.385C5.30939 167.358 5.39605 167.345 5.48605 167.345C5.53272 167.345 5.58439 167.353 5.64105 167.37V168.03C5.60772 168.023 5.56772 168.018 5.52105 168.015C5.47439 168.008 5.42939 168.005 5.38605 168.005C5.25605 168.005 5.14605 168.027 5.05605 168.07C4.96605 168.113 4.89272 168.173 4.83605 168.25C4.78272 168.323 4.74439 168.41 4.72105 168.51C4.69772 168.61 4.68605 168.718 4.68605 168.835V170H3.97605V167.415ZM7.57152 168.43C7.53819 168.25 7.47819 168.113 7.39152 168.02C7.30819 167.927 7.17986 167.88 7.00652 167.88C6.89319 167.88 6.79819 167.9 6.72152 167.94C6.64819 167.977 6.58819 168.023 6.54152 168.08C6.49819 168.137 6.46652 168.197 6.44652 168.26C6.42986 168.323 6.41986 168.38 6.41652 168.43H7.57152ZM6.41652 168.88C6.42652 169.11 6.48486 169.277 6.59152 169.38C6.69819 169.483 6.85152 169.535 7.05152 169.535C7.19486 169.535 7.31819 169.5 7.42152 169.43C7.52486 169.357 7.58819 169.28 7.61152 169.2H8.23652C8.13652 169.51 7.98319 169.732 7.77652 169.865C7.56986 169.998 7.31986 170.065 7.02652 170.065C6.82319 170.065 6.63986 170.033 6.47652 169.97C6.31319 169.903 6.17486 169.81 6.06152 169.69C5.94819 169.57 5.85986 169.427 5.79652 169.26C5.73652 169.093 5.70652 168.91 5.70652 168.71C5.70652 168.517 5.73819 168.337 5.80152 168.17C5.86486 168.003 5.95486 167.86 6.07152 167.74C6.18819 167.617 6.32652 167.52 6.48652 167.45C6.64986 167.38 6.82986 167.345 7.02652 167.345C7.24652 167.345 7.43819 167.388 7.60152 167.475C7.76486 167.558 7.89819 167.672 8.00152 167.815C8.10819 167.958 8.18486 168.122 8.23152 168.305C8.27819 168.488 8.29486 168.68 8.28152 168.88H6.41652ZM8.67262 168.21C8.68262 168.043 8.72428 167.905 8.79762 167.795C8.87095 167.685 8.96428 167.597 9.07762 167.53C9.19095 167.463 9.31762 167.417 9.45762 167.39C9.60095 167.36 9.74428 167.345 9.88762 167.345C10.0176 167.345 10.1493 167.355 10.2826 167.375C10.416 167.392 10.5376 167.427 10.6476 167.48C10.7576 167.533 10.8476 167.608 10.9176 167.705C10.9876 167.798 11.0226 167.923 11.0226 168.08V169.425C11.0226 169.542 11.0293 169.653 11.0426 169.76C11.056 169.867 11.0793 169.947 11.1126 170H10.3926C10.3793 169.96 10.3676 169.92 10.3576 169.88C10.351 169.837 10.346 169.793 10.3426 169.75C10.2293 169.867 10.096 169.948 9.94262 169.995C9.78928 170.042 9.63262 170.065 9.47262 170.065C9.34928 170.065 9.23428 170.05 9.12762 170.02C9.02095 169.99 8.92762 169.943 8.84762 169.88C8.76762 169.817 8.70428 169.737 8.65762 169.64C8.61428 169.543 8.59262 169.428 8.59262 169.295C8.59262 169.148 8.61762 169.028 8.66762 168.935C8.72095 168.838 8.78762 168.762 8.86762 168.705C8.95095 168.648 9.04428 168.607 9.14762 168.58C9.25428 168.55 9.36095 168.527 9.46762 168.51C9.57428 168.493 9.67928 168.48 9.78262 168.47C9.88595 168.46 9.97762 168.445 10.0576 168.425C10.1376 168.405 10.201 168.377 10.2476 168.34C10.2943 168.3 10.316 168.243 10.3126 168.17C10.3126 168.093 10.2993 168.033 10.2726 167.99C10.2493 167.943 10.216 167.908 10.1726 167.885C10.1326 167.858 10.0843 167.842 10.0276 167.835C9.97428 167.825 9.91595 167.82 9.85262 167.82C9.71262 167.82 9.60262 167.85 9.52262 167.91C9.44262 167.97 9.39595 168.07 9.38262 168.21H8.67262ZM10.3126 168.735C10.2826 168.762 10.2443 168.783 10.1976 168.8C10.1543 168.813 10.106 168.825 10.0526 168.835C10.0026 168.845 9.94928 168.853 9.89262 168.86C9.83595 168.867 9.77928 168.875 9.72262 168.885C9.66928 168.895 9.61595 168.908 9.56262 168.925C9.51262 168.942 9.46762 168.965 9.42762 168.995C9.39095 169.022 9.36095 169.057 9.33762 169.1C9.31428 169.143 9.30262 169.198 9.30262 169.265C9.30262 169.328 9.31428 169.382 9.33762 169.425C9.36095 169.468 9.39262 169.503 9.43262 169.53C9.47262 169.553 9.51928 169.57 9.57262 169.58C9.62595 169.59 9.68095 169.595 9.73762 169.595C9.87762 169.595 9.98595 169.572 10.0626 169.525C10.1393 169.478 10.196 169.423 10.2326 169.36C10.2693 169.293 10.291 169.227 10.2976 169.16C10.3076 169.093 10.3126 169.04 10.3126 169V168.735ZM12.4737 167.415H12.9937V167.89H12.4737V169.17C12.4737 169.29 12.4937 169.37 12.5337 169.41C12.5737 169.45 12.6537 169.47 12.7737 169.47C12.8137 169.47 12.852 169.468 12.8887 169.465C12.9254 169.462 12.9604 169.457 12.9937 169.45V170C12.9337 170.01 12.867 170.017 12.7937 170.02C12.7204 170.023 12.6487 170.025 12.5787 170.025C12.4687 170.025 12.3637 170.017 12.2637 170C12.167 169.987 12.0804 169.958 12.0037 169.915C11.9304 169.872 11.872 169.81 11.8287 169.73C11.7854 169.65 11.7637 169.545 11.7637 169.415V167.89H11.3337V167.415H11.7637V166.64H12.4737V167.415ZM15.0715 168.43C15.0382 168.25 14.9782 168.113 14.8915 168.02C14.8082 167.927 14.6799 167.88 14.5065 167.88C14.3932 167.88 14.2982 167.9 14.2215 167.94C14.1482 167.977 14.0882 168.023 14.0415 168.08C13.9982 168.137 13.9665 168.197 13.9465 168.26C13.9299 168.323 13.9199 168.38 13.9165 168.43H15.0715ZM13.9165 168.88C13.9265 169.11 13.9849 169.277 14.0915 169.38C14.1982 169.483 14.3515 169.535 14.5515 169.535C14.6949 169.535 14.8182 169.5 14.9215 169.43C15.0249 169.357 15.0882 169.28 15.1115 169.2H15.7365C15.6365 169.51 15.4832 169.732 15.2765 169.865C15.0699 169.998 14.8199 170.065 14.5265 170.065C14.3232 170.065 14.1399 170.033 13.9765 169.97C13.8132 169.903 13.6749 169.81 13.5615 169.69C13.4482 169.57 13.3599 169.427 13.2965 169.26C13.2365 169.093 13.2065 168.91 13.2065 168.71C13.2065 168.517 13.2382 168.337 13.3015 168.17C13.3649 168.003 13.4549 167.86 13.5715 167.74C13.6882 167.617 13.8265 167.52 13.9865 167.45C14.1499 167.38 14.3299 167.345 14.5265 167.345C14.7465 167.345 14.9382 167.388 15.1015 167.475C15.2649 167.558 15.3982 167.672 15.5015 167.815C15.6082 167.958 15.6849 168.122 15.7315 168.305C15.7782 168.488 15.7949 168.68 15.7815 168.88H13.9165ZM18.0376 168.7C18.0376 168.593 18.0276 168.492 18.0076 168.395C17.9876 168.295 17.9526 168.208 17.9026 168.135C17.856 168.058 17.7943 167.997 17.7176 167.95C17.641 167.903 17.5443 167.88 17.4276 167.88C17.311 167.88 17.2126 167.903 17.1326 167.95C17.0526 167.997 16.9876 168.058 16.9376 168.135C16.891 168.212 16.856 168.3 16.8326 168.4C16.8126 168.497 16.8026 168.598 16.8026 168.705C16.8026 168.805 16.8143 168.905 16.8376 169.005C16.861 169.105 16.8976 169.195 16.9476 169.275C17.001 169.352 17.066 169.415 17.1426 169.465C17.2226 169.512 17.3176 169.535 17.4276 169.535C17.5443 169.535 17.641 169.512 17.7176 169.465C17.7976 169.418 17.861 169.357 17.9076 169.28C17.9543 169.2 17.9876 169.11 18.0076 169.01C18.0276 168.91 18.0376 168.807 18.0376 168.7ZM18.0476 169.67H18.0376C17.9543 169.81 17.8443 169.912 17.7076 169.975C17.5743 170.035 17.4226 170.065 17.2526 170.065C17.0593 170.065 16.8893 170.028 16.7426 169.955C16.596 169.878 16.4743 169.777 16.3776 169.65C16.2843 169.52 16.2126 169.372 16.1626 169.205C16.116 169.038 16.0926 168.865 16.0926 168.685C16.0926 168.512 16.116 168.345 16.1626 168.185C16.2126 168.022 16.2843 167.878 16.3776 167.755C16.4743 167.632 16.5943 167.533 16.7376 167.46C16.881 167.383 17.0476 167.345 17.2376 167.345C17.391 167.345 17.536 167.378 17.6726 167.445C17.8126 167.508 17.9226 167.603 18.0026 167.73H18.0126V166.43H18.7226V170H18.0476V169.67ZM22.5459 168.71C22.5459 168.6 22.5342 168.495 22.5109 168.395C22.4875 168.295 22.4509 168.207 22.4009 168.13C22.3509 168.053 22.2875 167.993 22.2109 167.95C22.1375 167.903 22.0475 167.88 21.9409 167.88C21.8375 167.88 21.7475 167.903 21.6709 167.95C21.5942 167.993 21.5309 168.053 21.4809 168.13C21.4309 168.207 21.3942 168.295 21.3709 168.395C21.3475 168.495 21.3359 168.6 21.3359 168.71C21.3359 168.817 21.3475 168.92 21.3709 169.02C21.3942 169.12 21.4309 169.208 21.4809 169.285C21.5309 169.362 21.5942 169.423 21.6709 169.47C21.7475 169.513 21.8375 169.535 21.9409 169.535C22.0475 169.535 22.1375 169.513 22.2109 169.47C22.2875 169.423 22.3509 169.362 22.4009 169.285C22.4509 169.208 22.4875 169.12 22.5109 169.02C22.5342 168.92 22.5459 168.817 22.5459 168.71ZM20.6509 166.43H21.3609V167.73H21.3709C21.4575 167.597 21.5742 167.5 21.7209 167.44C21.8709 167.377 22.0259 167.345 22.1859 167.345C22.3159 167.345 22.4442 167.372 22.5709 167.425C22.6975 167.478 22.8109 167.56 22.9109 167.67C23.0142 167.78 23.0975 167.922 23.1609 168.095C23.2242 168.265 23.2559 168.468 23.2559 168.705C23.2559 168.942 23.2242 169.147 23.1609 169.32C23.0975 169.49 23.0142 169.63 22.9109 169.74C22.8109 169.85 22.6975 169.932 22.5709 169.985C22.4442 170.038 22.3159 170.065 22.1859 170.065C21.9959 170.065 21.8259 170.035 21.6759 169.975C21.5259 169.915 21.4125 169.813 21.3359 169.67H21.3259V170H20.6509V166.43ZM24.9825 170.32C24.9058 170.53 24.7992 170.68 24.6625 170.77C24.5258 170.86 24.3358 170.905 24.0925 170.905C24.0192 170.905 23.9458 170.902 23.8725 170.895C23.8025 170.892 23.7308 170.887 23.6575 170.88V170.295C23.7242 170.302 23.7925 170.308 23.8625 170.315C23.9325 170.322 24.0025 170.323 24.0725 170.32C24.1658 170.31 24.2342 170.273 24.2775 170.21C24.3242 170.147 24.3475 170.077 24.3475 170C24.3475 169.943 24.3375 169.89 24.3175 169.84L23.4125 167.415H24.1675L24.7525 169.185H24.7625L25.3275 167.415H26.0625L24.9825 170.32ZM27.7669 166.43H28.5519V167.91L29.9469 166.43H30.9269L29.5319 167.84L31.0619 170H30.0769L29.0019 168.395L28.5519 168.85V170H27.7669V166.43ZM31.3003 167.415H31.9753V167.895H31.9853C32.0186 167.815 32.0636 167.742 32.1203 167.675C32.1769 167.605 32.2419 167.547 32.3153 167.5C32.3886 167.45 32.4669 167.412 32.5503 167.385C32.6336 167.358 32.7203 167.345 32.8103 167.345C32.8569 167.345 32.9086 167.353 32.9653 167.37V168.03C32.9319 168.023 32.8919 168.018 32.8453 168.015C32.7986 168.008 32.7536 168.005 32.7103 168.005C32.5803 168.005 32.4703 168.027 32.3803 168.07C32.2903 168.113 32.2169 168.173 32.1603 168.25C32.1069 168.323 32.0686 168.41 32.0453 168.51C32.0219 168.61 32.0103 168.718 32.0103 168.835V170H31.3003V167.415ZM33.9736 167.015H33.2636V166.43H33.9736V167.015ZM33.2636 167.415H33.9736V170H33.2636V167.415ZM34.3727 169.465L35.7177 167.95H34.4727V167.415H36.6527V167.95L35.3077 169.465H36.7477V170H34.3727V169.465ZM37.8555 167.015H37.1455V166.43H37.8555V167.015ZM37.1455 167.415H37.8555V170H37.1455V167.415ZM38.3845 168.21C38.3945 168.043 38.4362 167.905 38.5095 167.795C38.5829 167.685 38.6762 167.597 38.7895 167.53C38.9029 167.463 39.0295 167.417 39.1695 167.39C39.3129 167.36 39.4562 167.345 39.5995 167.345C39.7295 167.345 39.8612 167.355 39.9945 167.375C40.1279 167.392 40.2495 167.427 40.3595 167.48C40.4695 167.533 40.5595 167.608 40.6295 167.705C40.6995 167.798 40.7345 167.923 40.7345 168.08V169.425C40.7345 169.542 40.7412 169.653 40.7545 169.76C40.7679 169.867 40.7912 169.947 40.8245 170H40.1045C40.0912 169.96 40.0795 169.92 40.0695 169.88C40.0629 169.837 40.0579 169.793 40.0545 169.75C39.9412 169.867 39.8079 169.948 39.6545 169.995C39.5012 170.042 39.3445 170.065 39.1845 170.065C39.0612 170.065 38.9462 170.05 38.8395 170.02C38.7329 169.99 38.6395 169.943 38.5595 169.88C38.4795 169.817 38.4162 169.737 38.3695 169.64C38.3262 169.543 38.3045 169.428 38.3045 169.295C38.3045 169.148 38.3295 169.028 38.3795 168.935C38.4329 168.838 38.4995 168.762 38.5795 168.705C38.6629 168.648 38.7562 168.607 38.8595 168.58C38.9662 168.55 39.0729 168.527 39.1795 168.51C39.2862 168.493 39.3912 168.48 39.4945 168.47C39.5979 168.46 39.6895 168.445 39.7695 168.425C39.8495 168.405 39.9129 168.377 39.9595 168.34C40.0062 168.3 40.0279 168.243 40.0245 168.17C40.0245 168.093 40.0112 168.033 39.9845 167.99C39.9612 167.943 39.9279 167.908 39.8845 167.885C39.8445 167.858 39.7962 167.842 39.7395 167.835C39.6862 167.825 39.6279 167.82 39.5645 167.82C39.4245 167.82 39.3145 167.85 39.2345 167.91C39.1545 167.97 39.1079 168.07 39.0945 168.21H38.3845ZM40.0245 168.735C39.9945 168.762 39.9562 168.783 39.9095 168.8C39.8662 168.813 39.8179 168.825 39.7645 168.835C39.7145 168.845 39.6612 168.853 39.6045 168.86C39.5479 168.867 39.4912 168.875 39.4345 168.885C39.3812 168.895 39.3279 168.908 39.2745 168.925C39.2245 168.942 39.1795 168.965 39.1395 168.995C39.1029 169.022 39.0729 169.057 39.0495 169.1C39.0262 169.143 39.0145 169.198 39.0145 169.265C39.0145 169.328 39.0262 169.382 39.0495 169.425C39.0729 169.468 39.1045 169.503 39.1445 169.53C39.1845 169.553 39.2312 169.57 39.2845 169.58C39.3379 169.59 39.3929 169.595 39.4495 169.595C39.5895 169.595 39.6979 169.572 39.7745 169.525C39.8512 169.478 39.9079 169.423 39.9445 169.36C39.9812 169.293 40.0029 169.227 40.0095 169.16C40.0195 169.093 40.0245 169.04 40.0245 169V168.735ZM44.4122 170H43.5272L42.3722 166.43H43.1772L43.9722 168.94H43.9822L44.7872 166.43H45.5972L44.4122 170ZM45.5232 168.21C45.5332 168.043 45.5749 167.905 45.6482 167.795C45.7215 167.685 45.8149 167.597 45.9282 167.53C46.0415 167.463 46.1682 167.417 46.3082 167.39C46.4515 167.36 46.5949 167.345 46.7382 167.345C46.8682 167.345 46.9999 167.355 47.1332 167.375C47.2665 167.392 47.3882 167.427 47.4982 167.48C47.6082 167.533 47.6982 167.608 47.7682 167.705C47.8382 167.798 47.8732 167.923 47.8732 168.08V169.425C47.8732 169.542 47.8799 169.653 47.8932 169.76C47.9065 169.867 47.9299 169.947 47.9632 170H47.2432C47.2299 169.96 47.2182 169.92 47.2082 169.88C47.2015 169.837 47.1965 169.793 47.1932 169.75C47.0799 169.867 46.9465 169.948 46.7932 169.995C46.6399 170.042 46.4832 170.065 46.3232 170.065C46.1999 170.065 46.0849 170.05 45.9782 170.02C45.8715 169.99 45.7782 169.943 45.6982 169.88C45.6182 169.817 45.5549 169.737 45.5082 169.64C45.4649 169.543 45.4432 169.428 45.4432 169.295C45.4432 169.148 45.4682 169.028 45.5182 168.935C45.5715 168.838 45.6382 168.762 45.7182 168.705C45.8015 168.648 45.8949 168.607 45.9982 168.58C46.1049 168.55 46.2115 168.527 46.3182 168.51C46.4249 168.493 46.5299 168.48 46.6332 168.47C46.7365 168.46 46.8282 168.445 46.9082 168.425C46.9882 168.405 47.0515 168.377 47.0982 168.34C47.1449 168.3 47.1665 168.243 47.1632 168.17C47.1632 168.093 47.1499 168.033 47.1232 167.99C47.0999 167.943 47.0665 167.908 47.0232 167.885C46.9832 167.858 46.9349 167.842 46.8782 167.835C46.8249 167.825 46.7665 167.82 46.7032 167.82C46.5632 167.82 46.4532 167.85 46.3732 167.91C46.2932 167.97 46.2465 168.07 46.2332 168.21H45.5232ZM47.1632 168.735C47.1332 168.762 47.0949 168.783 47.0482 168.8C47.0049 168.813 46.9565 168.825 46.9032 168.835C46.8532 168.845 46.7999 168.853 46.7432 168.86C46.6865 168.867 46.6299 168.875 46.5732 168.885C46.5199 168.895 46.4665 168.908 46.4132 168.925C46.3632 168.942 46.3182 168.965 46.2782 168.995C46.2415 169.022 46.2115 169.057 46.1882 169.1C46.1649 169.143 46.1532 169.198 46.1532 169.265C46.1532 169.328 46.1649 169.382 46.1882 169.425C46.2115 169.468 46.2432 169.503 46.2832 169.53C46.3232 169.553 46.3699 169.57 46.4232 169.58C46.4765 169.59 46.5315 169.595 46.5882 169.595C46.7282 169.595 46.8365 169.572 46.9132 169.525C46.9899 169.478 47.0465 169.423 47.0832 169.36C47.1199 169.293 47.1415 169.227 47.1482 169.16C47.1582 169.093 47.1632 169.04 47.1632 169V168.735ZM48.4443 166.43H49.1543V170H48.4443V166.43ZM50.6134 167.415H51.1334V167.89H50.6134V169.17C50.6134 169.29 50.6334 169.37 50.6734 169.41C50.7134 169.45 50.7934 169.47 50.9134 169.47C50.9534 169.47 50.9917 169.468 51.0284 169.465C51.065 169.462 51.1 169.457 51.1334 169.45V170C51.0734 170.01 51.0067 170.017 50.9334 170.02C50.86 170.023 50.7884 170.025 50.7184 170.025C50.6084 170.025 50.5034 170.017 50.4034 170C50.3067 169.987 50.22 169.958 50.1434 169.915C50.07 169.872 50.0117 169.81 49.9684 169.73C49.925 169.65 49.9034 169.545 49.9034 169.415V167.89H49.4734V167.415H49.9034V166.64H50.6134V167.415ZM52.2012 167.015H51.4912V166.43H52.2012V167.015ZM51.4912 167.415H52.2012V170H51.4912V167.415ZM52.7302 168.21C52.7402 168.043 52.7819 167.905 52.8552 167.795C52.9286 167.685 53.0219 167.597 53.1352 167.53C53.2486 167.463 53.3752 167.417 53.5152 167.39C53.6586 167.36 53.8019 167.345 53.9452 167.345C54.0752 167.345 54.2069 167.355 54.3402 167.375C54.4736 167.392 54.5952 167.427 54.7052 167.48C54.8152 167.533 54.9052 167.608 54.9752 167.705C55.0452 167.798 55.0802 167.923 55.0802 168.08V169.425C55.0802 169.542 55.0869 169.653 55.1002 169.76C55.1136 169.867 55.1369 169.947 55.1702 170H54.4502C54.4369 169.96 54.4252 169.92 54.4152 169.88C54.4086 169.837 54.4036 169.793 54.4002 169.75C54.2869 169.867 54.1536 169.948 54.0002 169.995C53.8469 170.042 53.6902 170.065 53.5302 170.065C53.4069 170.065 53.2919 170.05 53.1852 170.02C53.0786 169.99 52.9852 169.943 52.9052 169.88C52.8252 169.817 52.7619 169.737 52.7152 169.64C52.6719 169.543 52.6502 169.428 52.6502 169.295C52.6502 169.148 52.6752 169.028 52.7252 168.935C52.7786 168.838 52.8452 168.762 52.9252 168.705C53.0086 168.648 53.1019 168.607 53.2052 168.58C53.3119 168.55 53.4186 168.527 53.5252 168.51C53.6319 168.493 53.7369 168.48 53.8402 168.47C53.9436 168.46 54.0352 168.445 54.1152 168.425C54.1952 168.405 54.2586 168.377 54.3052 168.34C54.3519 168.3 54.3736 168.243 54.3702 168.17C54.3702 168.093 54.3569 168.033 54.3302 167.99C54.3069 167.943 54.2736 167.908 54.2302 167.885C54.1902 167.858 54.1419 167.842 54.0852 167.835C54.0319 167.825 53.9736 167.82 53.9102 167.82C53.7702 167.82 53.6602 167.85 53.5802 167.91C53.5002 167.97 53.4536 168.07 53.4402 168.21H52.7302ZM54.3702 168.735C54.3402 168.762 54.3019 168.783 54.2552 168.8C54.2119 168.813 54.1636 168.825 54.1102 168.835C54.0602 168.845 54.0069 168.853 53.9502 168.86C53.8936 168.867 53.8369 168.875 53.7802 168.885C53.7269 168.895 53.6736 168.908 53.6202 168.925C53.5702 168.942 53.5252 168.965 53.4852 168.995C53.4486 169.022 53.4186 169.057 53.3952 169.1C53.3719 169.143 53.3602 169.198 53.3602 169.265C53.3602 169.328 53.3719 169.382 53.3952 169.425C53.4186 169.468 53.4502 169.503 53.4902 169.53C53.5302 169.553 53.5769 169.57 53.6302 169.58C53.6836 169.59 53.7386 169.595 53.7952 169.595C53.9352 169.595 54.0436 169.572 54.1202 169.525C54.1969 169.478 54.2536 169.423 54.2902 169.36C54.3269 169.293 54.3486 169.227 54.3552 169.16C54.3652 169.093 54.3702 169.04 54.3702 169V168.735ZM55.6313 167.415H56.3063V167.895H56.3163C56.3497 167.815 56.3947 167.742 56.4513 167.675C56.508 167.605 56.573 167.547 56.6463 167.5C56.7197 167.45 56.798 167.412 56.8813 167.385C56.9647 167.358 57.0513 167.345 57.1413 167.345C57.188 167.345 57.2397 167.353 57.2963 167.37V168.03C57.263 168.023 57.223 168.018 57.1763 168.015C57.1297 168.008 57.0847 168.005 57.0413 168.005C56.9113 168.005 56.8013 168.027 56.7113 168.07C56.6213 168.113 56.548 168.173 56.4913 168.25C56.438 168.323 56.3997 168.41 56.3763 168.51C56.353 168.61 56.3413 168.718 56.3413 168.835V170H55.6313V167.415ZM59.2268 168.43C59.1935 168.25 59.1335 168.113 59.0468 168.02C58.9635 167.927 58.8351 167.88 58.6618 167.88C58.5485 167.88 58.4535 167.9 58.3768 167.94C58.3035 167.977 58.2435 168.023 58.1968 168.08C58.1535 168.137 58.1218 168.197 58.1018 168.26C58.0851 168.323 58.0751 168.38 58.0718 168.43H59.2268ZM58.0718 168.88C58.0818 169.11 58.1401 169.277 58.2468 169.38C58.3535 169.483 58.5068 169.535 58.7068 169.535C58.8501 169.535 58.9735 169.5 59.0768 169.43C59.1801 169.357 59.2435 169.28 59.2668 169.2H59.8918C59.7918 169.51 59.6385 169.732 59.4318 169.865C59.2251 169.998 58.9751 170.065 58.6818 170.065C58.4785 170.065 58.2951 170.033 58.1318 169.97C57.9685 169.903 57.8301 169.81 57.7168 169.69C57.6035 169.57 57.5151 169.427 57.4518 169.26C57.3918 169.093 57.3618 168.91 57.3618 168.71C57.3618 168.517 57.3935 168.337 57.4568 168.17C57.5201 168.003 57.6101 167.86 57.7268 167.74C57.8435 167.617 57.9818 167.52 58.1418 167.45C58.3051 167.38 58.4851 167.345 58.6818 167.345C58.9018 167.345 59.0935 167.388 59.2568 167.475C59.4201 167.558 59.5535 167.672 59.6568 167.815C59.7635 167.958 59.8401 168.122 59.8868 168.305C59.9335 168.488 59.9501 168.68 59.9368 168.88H58.0718Z" fill="black"/>
<path d="M0.425 172.89H0V172.415H0.425V172.215C0.425 171.985 0.496667 171.797 0.64 171.65C0.783333 171.503 1 171.43 1.29 171.43C1.35333 171.43 1.41667 171.433 1.48 171.44C1.54333 171.443 1.605 171.447 1.665 171.45V171.98C1.58167 171.97 1.495 171.965 1.405 171.965C1.30833 171.965 1.23833 171.988 1.195 172.035C1.155 172.078 1.135 172.153 1.135 172.26V172.415H1.625V172.89H1.135V175H0.425V172.89ZM1.93504 172.415H2.61004V172.895H2.62004C2.65337 172.815 2.69837 172.742 2.75504 172.675C2.81171 172.605 2.87671 172.547 2.95004 172.5C3.02337 172.45 3.10171 172.412 3.18504 172.385C3.26837 172.358 3.35504 172.345 3.44504 172.345C3.49171 172.345 3.54337 172.353 3.60004 172.37V173.03C3.56671 173.023 3.52671 173.018 3.48004 173.015C3.43337 173.008 3.38837 173.005 3.34504 173.005C3.21504 173.005 3.10504 173.027 3.01504 173.07C2.92504 173.113 2.85171 173.173 2.79504 173.25C2.74171 173.323 2.70337 173.41 2.68004 173.51C2.65671 173.61 2.64504 173.718 2.64504 173.835V175H1.93504V172.415ZM4.42051 173.71C4.42051 173.813 4.43051 173.915 4.45051 174.015C4.47051 174.112 4.50384 174.2 4.55051 174.28C4.60051 174.357 4.66551 174.418 4.74551 174.465C4.82551 174.512 4.92551 174.535 5.04551 174.535C5.16551 174.535 5.26551 174.512 5.34551 174.465C5.42884 174.418 5.49384 174.357 5.54051 174.28C5.59051 174.2 5.62551 174.112 5.64551 174.015C5.66551 173.915 5.67551 173.813 5.67551 173.71C5.67551 173.607 5.66551 173.505 5.64551 173.405C5.62551 173.305 5.59051 173.217 5.54051 173.14C5.49384 173.063 5.42884 173.002 5.34551 172.955C5.26551 172.905 5.16551 172.88 5.04551 172.88C4.92551 172.88 4.82551 172.905 4.74551 172.955C4.66551 173.002 4.60051 173.063 4.55051 173.14C4.50384 173.217 4.47051 173.305 4.45051 173.405C4.43051 173.505 4.42051 173.607 4.42051 173.71ZM3.71051 173.71C3.71051 173.503 3.74217 173.317 3.80551 173.15C3.86884 172.98 3.95884 172.837 4.07551 172.72C4.19217 172.6 4.33217 172.508 4.49551 172.445C4.65884 172.378 4.84217 172.345 5.04551 172.345C5.24884 172.345 5.43217 172.378 5.59551 172.445C5.76217 172.508 5.90384 172.6 6.02051 172.72C6.13717 172.837 6.22717 172.98 6.29051 173.15C6.35384 173.317 6.38551 173.503 6.38551 173.71C6.38551 173.917 6.35384 174.103 6.29051 174.27C6.22717 174.437 6.13717 174.58 6.02051 174.7C5.90384 174.817 5.76217 174.907 5.59551 174.97C5.43217 175.033 5.24884 175.065 5.04551 175.065C4.84217 175.065 4.65884 175.033 4.49551 174.97C4.33217 174.907 4.19217 174.817 4.07551 174.7C3.95884 174.58 3.86884 174.437 3.80551 174.27C3.74217 174.103 3.71051 173.917 3.71051 173.71ZM6.86715 172.415H7.53715V172.765H7.54715C7.64048 172.632 7.75215 172.528 7.88215 172.455C8.01548 172.382 8.16715 172.345 8.33715 172.345C8.50048 172.345 8.64882 172.377 8.78215 172.44C8.91882 172.503 9.02215 172.615 9.09215 172.775C9.16882 172.662 9.27215 172.562 9.40215 172.475C9.53548 172.388 9.69215 172.345 9.87215 172.345C10.0088 172.345 10.1355 172.362 10.2521 172.395C10.3688 172.428 10.4688 172.482 10.5521 172.555C10.6355 172.628 10.7005 172.725 10.7471 172.845C10.7938 172.962 10.8171 173.103 10.8171 173.27V175H10.1071V173.535C10.1071 173.448 10.1038 173.367 10.0971 173.29C10.0905 173.213 10.0721 173.147 10.0421 173.09C10.0121 173.033 9.96715 172.988 9.90715 172.955C9.85048 172.922 9.77215 172.905 9.67215 172.905C9.57215 172.905 9.49048 172.925 9.42715 172.965C9.36715 173.002 9.31882 173.052 9.28215 173.115C9.24882 173.175 9.22548 173.245 9.21215 173.325C9.20215 173.402 9.19715 173.48 9.19715 173.56V175H8.48715V173.55C8.48715 173.473 8.48548 173.398 8.48215 173.325C8.47882 173.248 8.46382 173.178 8.43715 173.115C8.41382 173.052 8.37215 173.002 8.31215 172.965C8.25548 172.925 8.17048 172.905 8.05715 172.905C8.02382 172.905 7.97882 172.913 7.92215 172.93C7.86882 172.943 7.81548 172.972 7.76215 173.015C7.71215 173.055 7.66882 173.115 7.63215 173.195C7.59548 173.272 7.57715 173.373 7.57715 173.5V175H6.86715V172.415ZM13.67 172.415H14.19V172.89H13.67V174.17C13.67 174.29 13.69 174.37 13.73 174.41C13.77 174.45 13.85 174.47 13.97 174.47C14.01 174.47 14.0483 174.468 14.085 174.465C14.1217 174.462 14.1567 174.457 14.19 174.45V175C14.13 175.01 14.0633 175.017 13.99 175.02C13.9167 175.023 13.845 175.025 13.775 175.025C13.665 175.025 13.56 175.017 13.46 175C13.3633 174.987 13.2767 174.958 13.2 174.915C13.1267 174.872 13.0683 174.81 13.025 174.73C12.9817 174.65 12.96 174.545 12.96 174.415V172.89H12.53V172.415H12.96V171.64H13.67V172.415ZM14.5278 171.43H15.2378V172.775H15.2528C15.3428 172.625 15.4578 172.517 15.5978 172.45C15.7378 172.38 15.8745 172.345 16.0078 172.345C16.1978 172.345 16.3528 172.372 16.4728 172.425C16.5961 172.475 16.6928 172.547 16.7628 172.64C16.8328 172.73 16.8811 172.842 16.9078 172.975C16.9378 173.105 16.9528 173.25 16.9528 173.41V175H16.2428V173.54C16.2428 173.327 16.2095 173.168 16.1428 173.065C16.0761 172.958 15.9578 172.905 15.7878 172.905C15.5945 172.905 15.4545 172.963 15.3678 173.08C15.2811 173.193 15.2378 173.382 15.2378 173.645V175H14.5278V171.43ZM19.2317 173.43C19.1983 173.25 19.1383 173.113 19.0517 173.02C18.9683 172.927 18.84 172.88 18.6667 172.88C18.5533 172.88 18.4583 172.9 18.3817 172.94C18.3083 172.977 18.2483 173.023 18.2017 173.08C18.1583 173.137 18.1267 173.197 18.1067 173.26C18.09 173.323 18.08 173.38 18.0767 173.43H19.2317ZM18.0767 173.88C18.0867 174.11 18.145 174.277 18.2517 174.38C18.3583 174.483 18.5117 174.535 18.7117 174.535C18.855 174.535 18.9783 174.5 19.0817 174.43C19.185 174.357 19.2483 174.28 19.2717 174.2H19.8967C19.7967 174.51 19.6433 174.732 19.4367 174.865C19.23 174.998 18.98 175.065 18.6867 175.065C18.4833 175.065 18.3 175.033 18.1367 174.97C17.9733 174.903 17.835 174.81 17.7217 174.69C17.6083 174.57 17.52 174.427 17.4567 174.26C17.3967 174.093 17.3667 173.91 17.3667 173.71C17.3667 173.517 17.3983 173.337 17.4617 173.17C17.525 173.003 17.615 172.86 17.7317 172.74C17.8483 172.617 17.9867 172.52 18.1467 172.45C18.31 172.38 18.49 172.345 18.6867 172.345C18.9067 172.345 19.0983 172.388 19.2617 172.475C19.425 172.558 19.5583 172.672 19.6617 172.815C19.7683 172.958 19.845 173.122 19.8917 173.305C19.9383 173.488 19.955 173.68 19.9417 173.88H18.0767ZM21.8294 171.43H22.6094L24.0994 173.825H24.1094V171.43H24.8444V175H24.0594L22.5744 172.61H22.5644V175H21.8294V171.43ZM26.0904 173.71C26.0904 173.813 26.1004 173.915 26.1204 174.015C26.1404 174.112 26.1738 174.2 26.2204 174.28C26.2704 174.357 26.3354 174.418 26.4154 174.465C26.4954 174.512 26.5954 174.535 26.7154 174.535C26.8354 174.535 26.9354 174.512 27.0154 174.465C27.0988 174.418 27.1638 174.357 27.2104 174.28C27.2604 174.2 27.2954 174.112 27.3154 174.015C27.3354 173.915 27.3454 173.813 27.3454 173.71C27.3454 173.607 27.3354 173.505 27.3154 173.405C27.2954 173.305 27.2604 173.217 27.2104 173.14C27.1638 173.063 27.0988 173.002 27.0154 172.955C26.9354 172.905 26.8354 172.88 26.7154 172.88C26.5954 172.88 26.4954 172.905 26.4154 172.955C26.3354 173.002 26.2704 173.063 26.2204 173.14C26.1738 173.217 26.1404 173.305 26.1204 173.405C26.1004 173.505 26.0904 173.607 26.0904 173.71ZM25.3804 173.71C25.3804 173.503 25.4121 173.317 25.4754 173.15C25.5388 172.98 25.6288 172.837 25.7454 172.72C25.8621 172.6 26.0021 172.508 26.1654 172.445C26.3288 172.378 26.5121 172.345 26.7154 172.345C26.9188 172.345 27.1021 172.378 27.2654 172.445C27.4321 172.508 27.5738 172.6 27.6904 172.72C27.8071 172.837 27.8971 172.98 27.9604 173.15C28.0238 173.317 28.0554 173.503 28.0554 173.71C28.0554 173.917 28.0238 174.103 27.9604 174.27C27.8971 174.437 27.8071 174.58 27.6904 174.7C27.5738 174.817 27.4321 174.907 27.2654 174.97C27.1021 175.033 26.9188 175.065 26.7154 175.065C26.5121 175.065 26.3288 175.033 26.1654 174.97C26.0021 174.907 25.8621 174.817 25.7454 174.7C25.6288 174.58 25.5388 174.437 25.4754 174.27C25.4121 174.103 25.3804 173.917 25.3804 173.71ZM30.9421 175H30.2671V174.64H30.2521C30.1621 174.79 30.0454 174.898 29.9021 174.965C29.7587 175.032 29.6121 175.065 29.4621 175.065C29.2721 175.065 29.1154 175.04 28.9921 174.99C28.8721 174.94 28.7771 174.87 28.7071 174.78C28.6371 174.687 28.5871 174.575 28.5571 174.445C28.5304 174.312 28.5171 174.165 28.5171 174.005V172.415H29.2271V173.875C29.2271 174.088 29.2604 174.248 29.3271 174.355C29.3937 174.458 29.5121 174.51 29.6821 174.51C29.8754 174.51 30.0154 174.453 30.1021 174.34C30.1887 174.223 30.2321 174.033 30.2321 173.77V172.415H30.9421V175ZM31.4809 172.415H32.1559V172.775H32.1709C32.2609 172.625 32.3776 172.517 32.5209 172.45C32.6643 172.38 32.8109 172.345 32.9609 172.345C33.1509 172.345 33.3059 172.372 33.4259 172.425C33.5493 172.475 33.6459 172.547 33.7159 172.64C33.7859 172.73 33.8343 172.842 33.8609 172.975C33.8909 173.105 33.9059 173.25 33.9059 173.41V175H33.1959V173.54C33.1959 173.327 33.1626 173.168 33.0959 173.065C33.0293 172.958 32.9109 172.905 32.7409 172.905C32.5476 172.905 32.4076 172.963 32.3209 173.08C32.2343 173.193 32.1909 173.382 32.1909 173.645V175H31.4809V172.415ZM36.6964 173.11H37.3064C37.3964 173.11 37.4831 173.103 37.5664 173.09C37.6497 173.077 37.7231 173.052 37.7864 173.015C37.8497 172.975 37.8997 172.92 37.9364 172.85C37.9764 172.78 37.9964 172.688 37.9964 172.575C37.9964 172.462 37.9764 172.37 37.9364 172.3C37.8997 172.23 37.8497 172.177 37.7864 172.14C37.7231 172.1 37.6497 172.073 37.5664 172.06C37.4831 172.047 37.3964 172.04 37.3064 172.04H36.6964V173.11ZM35.9114 171.43H37.5214C37.7447 171.43 37.9347 171.463 38.0914 171.53C38.2481 171.593 38.3747 171.678 38.4714 171.785C38.5714 171.892 38.6431 172.013 38.6864 172.15C38.7331 172.287 38.7564 172.428 38.7564 172.575C38.7564 172.718 38.7331 172.86 38.6864 173C38.6431 173.137 38.5714 173.258 38.4714 173.365C38.3747 173.472 38.2481 173.558 38.0914 173.625C37.9347 173.688 37.7447 173.72 37.5214 173.72H36.6964V175H35.9114V171.43ZM39.1714 172.415H39.8464V172.895H39.8564C39.8897 172.815 39.9347 172.742 39.9914 172.675C40.048 172.605 40.113 172.547 40.1864 172.5C40.2597 172.45 40.338 172.412 40.4214 172.385C40.5047 172.358 40.5914 172.345 40.6814 172.345C40.728 172.345 40.7797 172.353 40.8364 172.37V173.03C40.803 173.023 40.763 173.018 40.7164 173.015C40.6697 173.008 40.6247 173.005 40.5814 173.005C40.4514 173.005 40.3414 173.027 40.2514 173.07C40.1614 173.113 40.088 173.173 40.0314 173.25C39.978 173.323 39.9397 173.41 39.9164 173.51C39.893 173.61 39.8814 173.718 39.8814 173.835V175H39.1714V172.415ZM41.6568 173.71C41.6568 173.813 41.6668 173.915 41.6868 174.015C41.7068 174.112 41.7402 174.2 41.7868 174.28C41.8368 174.357 41.9018 174.418 41.9818 174.465C42.0618 174.512 42.1618 174.535 42.2818 174.535C42.4018 174.535 42.5018 174.512 42.5818 174.465C42.6652 174.418 42.7302 174.357 42.7768 174.28C42.8268 174.2 42.8618 174.112 42.8818 174.015C42.9018 173.915 42.9118 173.813 42.9118 173.71C42.9118 173.607 42.9018 173.505 42.8818 173.405C42.8618 173.305 42.8268 173.217 42.7768 173.14C42.7302 173.063 42.6652 173.002 42.5818 172.955C42.5018 172.905 42.4018 172.88 42.2818 172.88C42.1618 172.88 42.0618 172.905 41.9818 172.955C41.9018 173.002 41.8368 173.063 41.7868 173.14C41.7402 173.217 41.7068 173.305 41.6868 173.405C41.6668 173.505 41.6568 173.607 41.6568 173.71ZM40.9468 173.71C40.9468 173.503 40.9785 173.317 41.0418 173.15C41.1052 172.98 41.1952 172.837 41.3118 172.72C41.4285 172.6 41.5685 172.508 41.7318 172.445C41.8952 172.378 42.0785 172.345 42.2818 172.345C42.4852 172.345 42.6685 172.378 42.8318 172.445C42.9985 172.508 43.1402 172.6 43.2568 172.72C43.3735 172.837 43.4635 172.98 43.5268 173.15C43.5902 173.317 43.6218 173.503 43.6218 173.71C43.6218 173.917 43.5902 174.103 43.5268 174.27C43.4635 174.437 43.3735 174.58 43.2568 174.7C43.1402 174.817 42.9985 174.907 42.8318 174.97C42.6685 175.033 42.4852 175.065 42.2818 175.065C42.0785 175.065 41.8952 175.033 41.7318 174.97C41.5685 174.907 41.4285 174.817 41.3118 174.7C41.1952 174.58 41.1052 174.437 41.0418 174.27C40.9785 174.103 40.9468 173.917 40.9468 173.71ZM44.8585 172.015H44.1485V171.43H44.8585V172.015ZM43.7235 175.3C43.7601 175.313 43.8101 175.32 43.8735 175.32C43.9468 175.32 44.0101 175.305 44.0635 175.275C44.1201 175.248 44.1485 175.187 44.1485 175.09V172.415H44.8585V175.125C44.8585 175.258 44.8435 175.373 44.8135 175.47C44.7868 175.567 44.7385 175.647 44.6685 175.71C44.6018 175.777 44.5101 175.825 44.3935 175.855C44.2768 175.888 44.1285 175.905 43.9485 175.905C43.8651 175.905 43.7901 175.898 43.7235 175.885V175.3ZM47.2151 173.43C47.1817 173.25 47.1217 173.113 47.0351 173.02C46.9517 172.927 46.8234 172.88 46.6501 172.88C46.5367 172.88 46.4417 172.9 46.3651 172.94C46.2917 172.977 46.2317 173.023 46.1851 173.08C46.1417 173.137 46.1101 173.197 46.0901 173.26C46.0734 173.323 46.0634 173.38 46.0601 173.43H47.2151ZM46.0601 173.88C46.0701 174.11 46.1284 174.277 46.2351 174.38C46.3417 174.483 46.4951 174.535 46.6951 174.535C46.8384 174.535 46.9617 174.5 47.0651 174.43C47.1684 174.357 47.2317 174.28 47.2551 174.2H47.8801C47.7801 174.51 47.6267 174.732 47.4201 174.865C47.2134 174.998 46.9634 175.065 46.6701 175.065C46.4667 175.065 46.2834 175.033 46.1201 174.97C45.9567 174.903 45.8184 174.81 45.7051 174.69C45.5917 174.57 45.5034 174.427 45.4401 174.26C45.3801 174.093 45.3501 173.91 45.3501 173.71C45.3501 173.517 45.3817 173.337 45.4451 173.17C45.5084 173.003 45.5984 172.86 45.7151 172.74C45.8317 172.617 45.9701 172.52 46.1301 172.45C46.2934 172.38 46.4734 172.345 46.6701 172.345C46.8901 172.345 47.0817 172.388 47.2451 172.475C47.4084 172.558 47.5417 172.672 47.6451 172.815C47.7517 172.958 47.8284 173.122 47.8751 173.305C47.9217 173.488 47.9384 173.68 47.9251 173.88H46.0601ZM50.1062 173.325C50.0595 173.028 49.8845 172.88 49.5812 172.88C49.4678 172.88 49.3728 172.907 49.2962 172.96C49.2195 173.01 49.1562 173.077 49.1062 173.16C49.0595 173.24 49.0262 173.33 49.0062 173.43C48.9862 173.527 48.9762 173.623 48.9762 173.72C48.9762 173.813 48.9862 173.908 49.0062 174.005C49.0262 174.102 49.0578 174.19 49.1012 174.27C49.1478 174.347 49.2095 174.41 49.2862 174.46C49.3628 174.51 49.4562 174.535 49.5662 174.535C49.7362 174.535 49.8662 174.488 49.9562 174.395C50.0495 174.298 50.1078 174.17 50.1312 174.01H50.8162C50.7695 174.353 50.6362 174.615 50.4162 174.795C50.1962 174.975 49.9145 175.065 49.5712 175.065C49.3778 175.065 49.1995 175.033 49.0362 174.97C48.8762 174.903 48.7395 174.812 48.6262 174.695C48.5128 174.578 48.4245 174.44 48.3612 174.28C48.2978 174.117 48.2662 173.938 48.2662 173.745C48.2662 173.545 48.2945 173.36 48.3512 173.19C48.4112 173.017 48.4978 172.868 48.6112 172.745C48.7245 172.618 48.8628 172.52 49.0262 172.45C49.1895 172.38 49.3762 172.345 49.5862 172.345C49.7395 172.345 49.8862 172.365 50.0262 172.405C50.1695 172.445 50.2962 172.507 50.4062 172.59C50.5195 172.67 50.6112 172.772 50.6812 172.895C50.7512 173.015 50.7912 173.158 50.8012 173.325H50.1062ZM52.1173 172.415H52.6373V172.89H52.1173V174.17C52.1173 174.29 52.1373 174.37 52.1773 174.41C52.2173 174.45 52.2973 174.47 52.4173 174.47C52.4573 174.47 52.4956 174.468 52.5323 174.465C52.5689 174.462 52.6039 174.457 52.6373 174.45V175C52.5773 175.01 52.5106 175.017 52.4373 175.02C52.3639 175.023 52.2923 175.025 52.2223 175.025C52.1123 175.025 52.0073 175.017 51.9073 175C51.8106 174.987 51.7239 174.958 51.6473 174.915C51.5739 174.872 51.5156 174.81 51.4723 174.73C51.4289 174.65 51.4073 174.545 51.4073 174.415V172.89H50.9773V172.415H51.4073V171.64H52.1173V172.415Z" fill="black"/>
<path d="M3.3877 168.766C3.433 168.766 3.47831 168.766 10.5655 168.83C17.6528 168.894 31.7806 169.021 39.6423 169.166C47.5041 169.311 48.6718 169.469 50.6986 169.634" stroke="white" stroke-width="24" stroke-linecap="round"/>
</g>
<defs>
<clipPath id="clip0_17_2">
<rect width="179.8" height="193.75" fill="white"/>
</clipPath>
</defs>
</svg>
