<svg width="110" height="135" viewBox="0 0 110 135" fill="none" xmlns="http://www.w3.org/2000/svg">
<g clip-path="url(#clip0_9_8)">
<path d="M83.746 49.379C83.6249 49.1446 83.414 48.9649 83.1601 48.8829L81.2929 48.297L81.789 48.1485C82.2538 48.0079 82.5507 47.5548 82.4921 47.0743L82.0741 43.586C82.4061 42.8673 82.5702 42.0001 82.4882 41.0587C82.4022 40.0275 82.0351 39.0704 81.457 38.3634C80.8007 37.5587 79.8945 37.1407 79.0195 37.215C78.9726 37.2189 78.9335 37.2385 78.8867 37.2424C78.8515 37.2463 78.8163 37.2346 78.7812 37.2424L70.9335 38.9065C69.3437 34.0667 66.539 30.9846 62.5429 29.7698C64.3241 27.3831 66.8437 26.3089 70.1601 26.512C70.4648 26.5276 70.746 26.4143 70.9492 26.1956C71.1523 25.9768 71.246 25.6799 71.2109 25.387L70.6679 21.1761C70.6327 20.9105 70.496 20.6722 70.2851 20.5081C70.0742 20.3479 69.8007 20.2737 69.539 20.3128L66.1288 20.7855L66.703 18.5628C66.7694 18.3049 66.7304 18.0315 66.5936 17.801C66.4569 17.5706 66.2343 17.4065 65.9765 17.344L62.7148 16.5276C62.2187 16.4026 61.7187 16.6682 61.539 17.1448L59.7031 21.9964L58.8163 22.9847L59.5273 16.6605C59.5859 16.1214 59.207 15.6332 58.6718 15.5589L54.7304 15.0159C54.2109 14.9417 53.707 15.2971 53.6093 15.8245C52.9687 19.3011 52.0116 24.3245 51.371 27.3715L46.3983 16.4105C46.1835 15.9339 45.6327 15.7074 45.1405 15.887L40.3866 17.6526C40.1288 17.7503 39.9218 17.9495 39.8124 18.2034C39.7069 18.4573 39.7108 18.7464 39.8241 19.0003L40.91 21.4183L36.6014 20.4691C36.0741 20.3558 35.5623 20.6683 35.4217 21.18L34.3358 25.1214C34.2616 25.3949 34.3046 25.6917 34.4608 25.9339C34.6171 26.1722 34.8671 26.3363 35.1522 26.3753C38.1014 26.8128 41.0389 27.5355 42.5858 29.8245C42.8202 30.1722 43.0116 30.5589 43.1796 30.9729C42.8749 30.9495 42.5546 30.9378 42.1952 30.9456L42.0975 30.9495C39.8709 31.012 37.6561 31.5667 35.5233 32.5901C34.621 33.0237 33.7069 33.9339 33.8436 35.1917C33.871 35.4378 33.9413 35.6604 34.0428 35.8636V35.8714C34.7186 37.4652 34.1678 38.9222 33.4764 40.762L33.2421 41.3909C32.871 42.3948 31.8046 45.6526 32.3358 48.3401C30.8788 49.3245 29.7225 50.4651 28.8983 51.7503C27.9335 53.2581 26.6991 55.6331 26.3045 58.4026C25.8709 61.4651 26.3045 64.7698 27.6717 68.8086C27.6912 68.8633 27.7225 68.9063 27.7498 68.957C27.3045 70.5586 27.1834 72.2539 27.4686 73.9179C29.3475 84.9569 37.3319 95.6289 48.8276 102.465C50.8354 103.656 53.476 105.004 56.3159 105.004C56.4448 105.004 56.5698 105 56.6987 104.996C59.601 104.871 61.9448 103.363 63.3979 102.121C65.2182 100.567 66.6323 98.6173 67.894 96.7423C72.2026 90.3282 75.6831 83.3793 78.23 76.0823C78.855 74.2893 79.4488 72.3714 79.2183 70.3635C79.0347 68.7737 78.2652 67.3713 77.1831 66.4651C78.1323 65.6761 78.8745 64.5628 79.2886 63.2112C80.0894 60.6096 79.562 57.6487 77.9136 55.4846C77.6206 55.1018 77.2847 54.7542 76.9292 54.4299V52.9924L81.7456 53.7854C82.2378 53.8713 82.7105 53.5784 82.8589 53.1057L83.8081 50.1487C83.8902 49.8948 83.8667 49.6214 83.7456 49.3831L83.746 49.379ZM59.633 60.602C59.0275 60.5942 58.3049 60.1645 57.8518 59.6489C57.5354 59.2895 57.262 58.8793 56.9651 58.4419C56.5784 57.8638 56.176 57.2622 55.637 56.7271C55.2307 56.3208 54.7542 55.9732 54.2347 55.688V49.8403C54.2347 46.77 55.2542 43.9145 56.6175 41.9653C57.4573 42.5395 58.5042 42.8911 59.6605 42.9692C59.7738 42.977 59.8949 42.9809 60.0238 42.9809C61.4574 42.9809 63.5707 42.52 63.8168 42.4653L76.4028 39.7934C76.2582 40.3442 76.1957 40.9496 76.2504 41.5903C76.3246 42.4653 76.6098 43.2778 77.0473 43.938L68.5785 45.6138C66.0668 46.1372 63.9847 47.9693 63.1488 50.395L59.6371 60.602L59.633 60.602ZM57.9611 40.434C58.5236 39.9418 59.1056 39.5981 59.6759 39.4574C60.672 39.2113 61.5275 39.6449 62.215 40.7347C61.3908 40.8754 60.4025 41.0082 59.8009 40.9691C59.1095 40.9222 58.4767 40.7269 57.965 40.434L57.9611 40.434ZM79.5511 43.4379C79.2034 43.4691 78.9417 43.1527 78.8324 43.0199C78.512 42.6254 78.2972 42.0434 78.2425 41.4183C78.141 40.2269 78.6683 39.2503 79.1878 39.2035H79.2269C79.5277 39.2035 79.8011 39.4926 79.9066 39.6215C80.2269 40.016 80.4417 40.5981 80.4964 41.2231C80.598 42.4145 80.0706 43.3911 79.5511 43.4379ZM55.4031 17.1219L57.4304 17.4031L56.4773 25.8562C56.4304 26.2898 56.6648 26.7039 57.0593 26.8796C57.4538 27.0554 57.9226 26.9578 58.2116 26.6375L61.3132 23.1922C61.3952 23.0984 61.4616 22.9929 61.5046 22.8757L63.0905 18.6804L64.5085 19.0359L63.8093 21.7273C63.7273 22.0515 63.8093 22.3953 64.028 22.6414C64.2507 22.8914 64.5827 23.0164 64.9109 22.9656L68.8015 22.4265L69.0671 24.489C65.0749 24.5789 62.0437 26.3992 60.0554 29.907C59.8952 30.1883 59.8835 30.5281 60.0202 30.8211C60.1569 31.1141 60.4265 31.3211 60.7429 31.3836C64.7117 32.1219 67.3952 34.7391 68.9499 39.3172L64.2194 40.3211C64.1998 40.2547 64.192 40.1844 64.1569 40.118C63.0007 37.9578 61.1803 37.0125 59.1686 37.5086C55.8131 38.3484 52.2194 43.5008 52.2194 49.8286V54.9302C51.2858 54.7231 50.2858 54.6685 49.2663 54.7935C47.7585 54.981 46.3601 55.4966 45.0983 56.0982C45.2819 55.2075 45.3561 54.3091 45.4108 53.567L45.4381 53.188C45.6256 50.7974 45.6764 48.3091 44.7701 46.3364C44.5983 45.9614 44.3873 45.6489 44.153 45.3872C45.1022 39.395 47.7507 34.7352 52.2585 31.1802C52.2975 31.1529 52.3288 31.1177 52.36 31.0826L52.3756 31.0669C52.3796 31.063 52.3835 31.0591 52.3874 31.0552C52.4303 31.0084 52.4733 30.9537 52.5397 30.8013C52.5553 30.7662 52.5671 30.7349 52.5788 30.6998C52.8639 29.9302 53.4889 27.3248 55.3835 17.1178L55.4031 17.1219ZM36.5591 24.5711L37.0982 22.618L42.4224 23.7938C42.7935 23.8758 43.1763 23.743 43.4146 23.45C43.6528 23.1571 43.7075 22.7547 43.5513 22.4109L42.0865 19.1531L44.9654 18.0828L50.4342 30.1378C48.6217 31.6612 47.0944 33.3878 45.8444 35.3136C45.8561 34.4504 45.817 33.6378 45.7155 32.8878C45.7155 32.8683 45.7194 32.8527 45.7194 32.8332C45.7155 32.7902 45.7037 32.755 45.6959 32.7121C45.4616 31.1379 44.9811 29.8019 44.2389 28.7004C42.4772 26.091 39.5709 25.1145 36.5553 24.5754L36.5591 24.5711ZM36.3872 34.3836C38.2661 33.4813 40.2075 32.993 42.1528 32.9383L42.2622 32.9344C43.1255 32.9031 43.5122 32.9735 43.6802 33.0399C43.5825 33.1571 43.2857 33.3641 42.4341 33.6727C42.3013 33.7195 42.1841 33.7625 42.0982 33.8016C40.1294 34.6375 38.0943 35.0438 36.1177 34.993C35.9458 34.9891 35.8442 34.9578 35.8286 34.9578C35.8091 34.7664 36.1021 34.5203 36.3872 34.3836ZM35.1177 42.075L35.3482 41.4617C35.8873 40.0359 36.4263 38.575 36.3287 37.0008H36.4224C38.5904 37.0008 40.7622 36.5477 42.8794 35.6453C42.9419 35.618 43.0239 35.5906 43.1177 35.5555C43.313 35.4852 43.5747 35.3875 43.8521 35.2625C43.8286 37.0633 43.5396 39.1609 42.9536 41.6102C42.9458 41.6415 42.9536 41.6727 42.9497 41.704C42.6841 42.6219 42.4653 43.5673 42.2896 44.5438C41.8872 44.5281 41.5161 44.5828 41.2154 44.6414C40.1842 44.8406 39.2349 45.2156 38.317 45.5828C38.0513 45.6883 37.7896 45.7899 37.524 45.8914L36.942 46.1063C36.0396 46.4383 35.11 46.7898 34.2037 47.243C34.0904 45.6141 34.5474 43.614 35.1138 42.0749L35.1177 42.075ZM28.2818 58.677C28.6217 56.2668 29.7193 54.1653 30.5787 52.8254C31.524 51.3527 33.024 50.0871 35.0357 49.0637C35.8638 48.6418 36.7271 48.3215 37.6412 47.9856L38.2311 47.7668C38.5084 47.6614 38.7818 47.5559 39.0553 47.4465C39.9225 47.1028 40.7467 46.7747 41.5944 46.6106C42.0436 46.5247 42.36 46.5286 42.5397 46.6262C42.6373 46.6809 42.7936 46.8254 42.9616 47.1887C43.6764 48.7473 43.6217 50.9231 43.4499 53.0481L43.4225 53.4387C43.317 54.8606 43.1569 57.009 42.1725 57.7239C42.1178 57.7552 42.0592 57.7903 42.0045 57.8216C40.7311 58.5716 39.524 59.2825 38.2311 59.8138C37.6608 60.0482 37.0749 60.2474 36.4889 60.4466C35.5944 60.7513 34.6686 61.0677 33.778 61.5091C31.7272 62.5247 30.0671 64.1614 28.9382 66.1107C28.1804 63.3021 27.9656 60.8959 28.2781 58.681L28.2818 58.677ZM76.3438 75.415C73.8516 82.5517 70.4493 89.349 66.2348 95.622C65.0551 97.3798 63.7348 99.1962 62.0981 100.599C60.3833 102.063 58.434 102.915 56.6098 102.993C54.1723 103.095 51.8207 101.915 49.8481 100.739C38.8521 94.2001 31.2191 84.0442 29.4381 73.5752C28.7506 69.5361 31.0006 65.1143 34.6725 63.2942C35.1491 63.0598 35.6491 62.8645 36.1647 62.677C35.9616 64.2043 36.1218 65.7668 36.6296 67.22C35.4499 67.8098 34.4851 68.9192 34.0241 70.2903C33.5748 71.6262 33.5709 73.2044 34.0163 74.8528C34.3952 76.2512 35.028 77.5247 35.6413 78.7551C35.817 79.1067 36.1686 79.3098 36.5358 79.3098C36.6842 79.3098 36.8366 79.2786 36.9811 79.2043C37.4733 78.9582 37.6764 78.3567 37.4303 77.8645C36.86 76.72 36.2741 75.5364 35.9459 74.3293C35.7076 73.4504 35.5084 72.1457 35.9186 70.9309C36.2037 70.0872 36.7975 69.3997 37.4928 69.0403C37.7662 69.4895 38.0709 69.9192 38.4146 70.3176C38.0865 72.8567 38.9459 75.509 40.7349 77.341C40.9302 77.5402 41.192 77.6418 41.4498 77.6418C41.6998 77.6418 41.9537 77.5481 42.149 77.3566C42.5435 76.9699 42.5513 76.3371 42.1646 75.9425C41.1451 74.8956 40.524 73.5011 40.3716 72.0558C41.1997 72.6144 42.1099 73.048 43.0786 73.3292C43.1724 73.3566 43.2661 73.3683 43.356 73.3683C43.7896 73.3683 44.188 73.0831 44.3169 72.6456C44.4692 72.1144 44.1646 71.5597 43.6372 71.4073C41.6997 70.8448 39.9653 69.4503 39.0005 67.6768C38.0552 65.9424 37.8208 63.7902 38.356 61.8839C38.5708 61.8057 38.7857 61.7354 38.9966 61.6495C40.4224 61.0635 41.7466 60.2823 43.0239 59.5323C43.4653 59.2745 43.9067 59.0127 44.3481 58.7627C45.8442 57.9151 47.6293 57.0205 49.52 56.7861C51.3833 56.5596 53.1411 57.0596 54.2153 58.1339C54.6137 58.5323 54.9458 59.0284 55.2973 59.5518C55.6137 60.0206 55.9379 60.5089 56.3403 60.966C57.1059 61.837 58.3598 62.5831 59.6333 62.587C60.1567 62.6613 60.6489 62.7628 61.1294 62.88C61.606 64.962 62.0786 67.0909 62.3638 69.2316C62.4536 70.1144 61.8013 71.3019 60.4107 72.7668C59.8287 73.3801 59.1529 73.9074 58.438 74.4543C56.0318 74.0403 53.5239 74.4231 51.3638 75.552C50.8755 75.8059 50.6841 76.4114 50.9419 76.8997C51.1216 77.2396 51.4693 77.4349 51.8286 77.4349C51.9849 77.4349 52.1411 77.3997 52.2896 77.3216C53.5005 76.6888 54.8443 76.345 56.2076 76.2982C54.9068 77.5599 54.1529 78.8529 53.9146 80.224C53.8208 80.767 54.1841 81.2865 54.7271 81.3802C54.7857 81.388 54.8404 81.3958 54.899 81.3958C55.3755 81.3958 55.7974 81.0521 55.8833 80.5677C56.0747 79.4661 56.8052 78.3841 58.1216 77.2552C58.5552 76.8841 59.0084 76.5365 59.4654 76.1888C60.2779 75.5677 61.1177 74.9232 61.8599 74.1419C62.1412 73.8489 62.3873 73.5599 62.6217 73.2786C62.5787 76.0091 62.0396 78.4114 61.0045 80.427C60.4537 81.4973 59.7584 82.4817 59.024 83.5247C58.8833 83.72 58.7466 83.9271 58.606 84.1263C56.6451 85.4271 53.7388 86.1615 51.6998 86.599C51.1607 86.7123 50.817 87.2474 50.9342 87.7865C51.0357 88.2552 51.4498 88.5755 51.9107 88.5755C51.981 88.5755 52.0513 88.5677 52.1217 88.5521C53.4381 88.2709 55.0983 87.8646 56.6998 87.2709C55.5943 89.6459 55.4029 91.9506 56.1724 93.8451C56.3287 94.2318 56.7037 94.4701 57.0982 94.4701C57.2232 94.4701 57.3521 94.4467 57.4732 94.3959C57.9849 94.1889 58.231 93.6068 58.024 93.0951C57.1607 90.9623 58.2349 88.5248 58.9537 87.2631C59.4537 86.3803 60.0396 85.5561 60.6568 84.6811C60.9576 84.2553 61.2622 83.8217 61.5591 83.3764C62.8208 85.4741 63.1568 88.142 62.3794 90.4662C62.2036 90.9896 62.4849 91.556 63.0083 91.7318C63.1138 91.7669 63.2193 91.7826 63.3247 91.7826C63.7427 91.7826 64.1333 91.517 64.274 91.099C65.3404 87.9076 64.7076 84.2006 62.692 81.5052C62.7232 81.4505 62.7545 81.3958 62.7857 81.3372C64.1763 78.6263 64.7857 75.3489 64.5982 71.5989C64.5787 71.1927 64.524 70.7903 64.4888 70.388C65.2857 70.7239 65.9888 71.2747 66.6333 72.1107C67.5201 73.2669 67.9263 74.8177 67.7153 76.263C67.6489 76.724 67.52 77.1927 67.3872 77.6927C67.1997 78.3802 67.0083 79.0911 66.9575 79.8607C66.856 81.3919 67.52 83.2904 69.2309 83.8295C69.3325 83.8608 69.4301 83.8764 69.5317 83.8764C69.9575 83.8764 70.352 83.6029 70.4848 83.1772C70.6489 82.6498 70.3598 82.0874 69.8325 81.9233C69.2153 81.728 68.9028 80.7905 68.9536 79.9975C68.9926 79.4232 69.1489 78.8373 69.3169 78.2202C69.3559 78.0717 69.395 77.9194 69.434 77.767L70.9145 78.7748C71.0864 78.892 71.2817 78.9467 71.477 78.9467C71.7973 78.9467 72.1099 78.7944 72.3052 78.5092C72.6138 78.0522 72.4966 77.4311 72.0395 77.1186L69.7622 75.5717C69.7818 73.8998 69.2427 72.2358 68.2192 70.8998C67.102 69.4428 65.7856 68.5521 64.2231 68.1928C63.9849 66.6381 63.6763 65.1069 63.3403 63.5951C64.9419 64.2396 66.3051 65.056 67.563 65.8178C69.2388 66.8334 70.688 67.7123 72.2232 67.81C72.4615 67.8256 72.692 67.8335 72.9185 67.8335C73.7232 67.8335 74.4537 67.728 75.1177 67.5366C76.313 67.9663 77.0786 69.3491 77.2193 70.5874C77.399 72.1733 76.8795 73.8452 76.3287 75.4194L76.3438 75.415ZM81.2188 51.665L76.0899 50.8212C75.793 50.7705 75.504 50.8564 75.2813 51.0439C75.0587 51.2353 74.9298 51.5127 74.9298 51.8056V53.0439C73.6603 52.4111 72.2423 52.0713 70.8282 52.1025C68.4805 52.1728 66.1446 53.29 64.5821 55.0908C64.2188 55.5088 64.2657 56.1377 64.6797 56.501C65.0977 56.8643 65.7266 56.8213 66.0899 56.4034C67.293 55.0206 69.086 54.1612 70.8868 54.1065C72.9766 54.0557 75.0548 55.0361 76.3204 56.6963C77.586 58.3565 77.9884 60.626 77.3751 62.6221C77.0079 63.8135 76.3282 64.7549 75.4571 65.2627C75.3048 65.3525 75.1329 65.4228 74.9571 65.4931C74.8556 65.5088 74.7618 65.5478 74.672 65.5908C74.0235 65.7939 73.2579 65.872 72.3517 65.8134C71.3087 65.747 70.0548 64.9892 68.6017 64.1064C66.7658 62.9931 64.5431 61.6611 61.6212 60.9502L65.0274 51.0479C65.6368 49.2862 67.1485 47.9541 68.9649 47.5752L79.8399 45.4229C79.875 45.4151 79.8985 45.3956 79.9297 45.3839C80.0391 45.3644 80.1524 45.3448 80.2578 45.3136L80.3985 46.4738L77.6016 47.3175C77.1836 47.4425 76.8945 47.8292 76.8906 48.2667C76.8867 48.7042 77.1719 49.0949 77.5898 49.2277L81.5898 50.4855L81.2109 51.6613L81.2188 51.665Z" fill="black"/>
<path d="M8.5245 125.137H7.7468C7.7326 125.036 7.7036 124.947 7.6598 124.869C7.616 124.789 7.55978 124.722 7.49112 124.666C7.42247 124.611 7.34316 124.568 7.2532 124.538C7.16442 124.509 7.06795 124.494 6.96378 124.494C6.77557 124.494 6.61162 124.541 6.47195 124.634C6.33227 124.727 6.22396 124.862 6.14702 125.039C6.07008 125.215 6.03161 125.43 6.03161 125.682C6.03161 125.941 6.07008 126.159 6.14702 126.335C6.22514 126.512 6.33404 126.645 6.47372 126.735C6.6134 126.825 6.77498 126.87 6.95845 126.87C7.06143 126.87 7.15672 126.856 7.24432 126.829C7.3331 126.802 7.41181 126.762 7.48047 126.71C7.54912 126.657 7.60594 126.592 7.65092 126.516C7.69709 126.441 7.72905 126.354 7.7468 126.257L8.5245 126.261C8.50438 126.428 8.45407 126.589 8.37358 126.744C8.29427 126.897 8.18714 127.035 8.0522 127.157C7.91844 127.278 7.75864 127.374 7.5728 127.445C7.38814 127.515 7.17921 127.55 6.94602 127.55C6.62169 127.55 6.33168 127.476 6.07599 127.33C5.8215 127.183 5.62027 126.97 5.4723 126.692C5.32552 126.414 5.25213 126.077 5.25213 125.682C5.25213 125.285 5.3267 124.948 5.47585 124.67C5.625 124.392 5.82741 124.18 6.0831 124.034C6.33878 123.887 6.62642 123.814 6.94602 123.814C7.15672 123.814 7.35204 123.844 7.53196 123.903C7.71307 123.962 7.87346 124.048 8.01314 124.162C8.15282 124.274 8.26645 124.412 8.35405 124.576C8.44283 124.739 8.49964 124.926 8.5245 125.137ZM9.06161 127.5V124.773H9.79492V125.249H9.82333C9.87305 125.079 9.9565 124.951 10.0737 124.865C10.1909 124.777 10.3258 124.734 10.4785 124.734C10.5164 124.734 10.5572 124.736 10.601 124.741C10.6448 124.746 10.6833 124.752 10.7164 124.76V125.431C10.6809 125.421 10.6318 125.411 10.5691 125.403C10.5063 125.395 10.4489 125.391 10.3968 125.391C10.2856 125.391 10.1861 125.415 10.0985 125.463C10.0121 125.511 9.94348 125.577 9.89258 125.662C9.84286 125.748 9.818 125.846 9.818 125.957V127.5H9.06161ZM12.2235 127.553C11.9429 127.553 11.7014 127.496 11.499 127.383C11.2978 127.268 11.1427 127.106 11.0338 126.896C10.9249 126.686 10.8705 126.436 10.8705 126.149C10.8705 125.868 10.9249 125.622 11.0338 125.41C11.1427 125.198 11.296 125.033 11.4937 124.915C11.6926 124.796 11.9258 124.737 12.1933 124.737C12.3732 124.737 12.5407 124.766 12.6958 124.824C12.852 124.881 12.9881 124.967 13.1041 125.082C13.2213 125.196 13.3125 125.341 13.3776 125.515C13.4427 125.688 13.4752 125.89 13.4752 126.122V126.33H11.1723V125.861H12.7632C12.7632 125.752 12.7396 125.656 12.6922 125.572C12.6449 125.488 12.5792 125.422 12.4951 125.375C12.4123 125.326 12.3158 125.302 12.2057 125.302C12.0909 125.302 11.9891 125.328 11.9003 125.382C11.8127 125.434 11.7441 125.504 11.6943 125.593C11.6446 125.681 11.6192 125.778 11.618 125.886V126.332C11.618 126.467 11.6428 126.583 11.6926 126.681C11.7435 126.78 11.8151 126.855 11.9074 126.909C11.9997 126.962 12.1092 126.989 12.2359 126.989C12.3199 126.989 12.3969 126.977 12.4667 126.953C12.5365 126.929 12.5963 126.894 12.646 126.847C12.6958 126.799 12.7336 126.741 12.7597 126.673L13.4593 126.719C13.4237 126.887 13.3509 127.034 13.2409 127.159C13.132 127.283 12.9911 127.38 12.8183 127.45C12.6466 127.519 12.4484 127.553 12.2235 127.553ZM14.7465 127.551C14.5725 127.551 14.4175 127.521 14.2813 127.461C14.1452 127.399 14.0375 127.309 13.9582 127.189C13.8801 127.069 13.841 126.918 13.841 126.738C13.841 126.587 13.8688 126.46 13.9244 126.357C13.9801 126.254 14.0558 126.171 14.1517 126.108C14.2476 126.045 14.3565 125.998 14.4784 125.966C14.6015 125.934 14.7306 125.911 14.8655 125.898C15.0241 125.882 15.152 125.866 15.249 125.852C15.3461 125.837 15.4165 125.814 15.4603 125.785C15.5041 125.755 15.526 125.711 15.526 125.653V125.643C15.526 125.53 15.4905 125.443 15.4195 125.382C15.3496 125.32 15.2502 125.289 15.1212 125.289C14.9851 125.289 14.8767 125.32 14.7963 125.38C14.7158 125.439 14.6625 125.514 14.6365 125.604L13.9369 125.547C13.9724 125.381 14.0422 125.238 14.1464 125.117C14.2506 124.995 14.3849 124.902 14.5494 124.837C14.7152 124.77 14.9069 124.737 15.1247 124.737C15.2762 124.737 15.4213 124.755 15.5597 124.79C15.6994 124.826 15.8231 124.881 15.9308 124.956C16.0397 125.03 16.1256 125.126 16.1883 125.243C16.251 125.359 16.2824 125.498 16.2824 125.661V127.5H15.5651V127.122H15.5438C15.5 127.207 15.4414 127.282 15.368 127.347C15.2946 127.411 15.2064 127.462 15.1034 127.498C15.0004 127.534 14.8815 127.551 14.7465 127.551ZM14.9632 127.029C15.0744 127.029 15.1727 127.008 15.2579 126.964C15.3431 126.919 15.41 126.858 15.4585 126.783C15.5071 126.707 15.5313 126.621 15.5313 126.525V126.236C15.5077 126.251 15.4751 126.265 15.4337 126.278C15.3934 126.29 15.3479 126.301 15.297 126.312C15.2461 126.322 15.1952 126.33 15.1443 126.339C15.0934 126.346 15.0472 126.352 15.0058 126.358C14.917 126.371 14.8395 126.392 14.7732 126.42C14.7069 126.449 14.6554 126.487 14.6187 126.536C14.582 126.583 14.5637 126.642 14.5637 126.713C14.5637 126.816 14.6009 126.895 14.6755 126.95C14.7513 127.003 14.8472 127.029 14.9632 127.029ZM18.3199 124.773V125.341H16.6775V124.773H18.3199ZM17.0503 124.119H17.8067V126.662C17.8067 126.732 17.8174 126.786 17.8387 126.825C17.86 126.863 17.8896 126.89 17.9275 126.905C17.9665 126.921 18.0115 126.928 18.0624 126.928C18.0979 126.928 18.1334 126.925 18.1689 126.919C18.2045 126.912 18.2317 126.907 18.2506 126.903L18.3696 127.466C18.3317 127.478 18.2784 127.492 18.2098 127.507C18.1411 127.524 18.0577 127.534 17.9594 127.537C17.7771 127.544 17.6173 127.52 17.48 127.464C17.3439 127.409 17.238 127.322 17.1622 127.205C17.0864 127.088 17.0492 126.94 17.0503 126.761V124.119ZM20.0262 127.553C19.7456 127.553 19.5042 127.496 19.3018 127.383C19.1005 127.268 18.9455 127.106 18.8366 126.896C18.7277 126.686 18.6732 126.436 18.6732 126.149C18.6732 125.868 18.7277 125.622 18.8366 125.41C18.9455 125.198 19.0988 125.033 19.2964 124.915C19.4953 124.796 19.7285 124.737 19.996 124.737C20.1759 124.737 20.3434 124.766 20.4985 124.824C20.6547 124.881 20.7909 124.967 20.9069 125.082C21.0241 125.196 21.1152 125.341 21.1803 125.515C21.2454 125.688 21.278 125.89 21.278 126.122V126.33H18.9751V125.861H20.566C20.566 125.752 20.5423 125.656 20.4949 125.572C20.4476 125.488 20.3819 125.422 20.2979 125.375C20.215 125.326 20.1185 125.302 20.0084 125.302C19.8936 125.302 19.7918 125.328 19.703 125.382C19.6154 125.434 19.5468 125.504 19.4971 125.593C19.4474 125.681 19.4219 125.778 19.4207 125.886V126.332C19.4207 126.467 19.4456 126.583 19.4953 126.681C19.5462 126.78 19.6178 126.855 19.7101 126.909C19.8025 126.962 19.912 126.989 20.0386 126.989C20.1227 126.989 20.1996 126.977 20.2694 126.953C20.3393 126.929 20.3991 126.894 20.4488 126.847C20.4985 126.799 20.5364 126.741 20.5624 126.673L21.262 126.719C21.2265 126.887 21.1537 127.034 21.0436 127.159C20.9347 127.283 20.7938 127.38 20.621 127.45C20.4494 127.519 20.2511 127.553 20.0262 127.553ZM22.7765 127.544C22.5694 127.544 22.3818 127.491 22.2137 127.385C22.0468 127.277 21.9142 127.119 21.816 126.911C21.7189 126.701 21.6704 126.444 21.6704 126.14C21.6704 125.827 21.7207 125.568 21.8213 125.36C21.9219 125.152 22.0557 124.996 22.2226 124.893C22.3907 124.789 22.5747 124.737 22.7748 124.737C22.9275 124.737 23.0547 124.763 23.1565 124.815C23.2595 124.866 23.3424 124.93 23.4051 125.007C23.469 125.083 23.5175 125.157 23.5507 125.231H23.5738V123.864H24.3284V127.5H23.5827V127.063H23.5507C23.5152 127.139 23.4649 127.214 23.3998 127.289C23.3358 127.362 23.2524 127.423 23.1494 127.472C23.0476 127.52 22.9233 127.544 22.7765 127.544ZM23.0162 126.942C23.1382 126.942 23.2412 126.909 23.3252 126.843C23.4104 126.776 23.4755 126.681 23.5205 126.561C23.5667 126.44 23.5898 126.299 23.5898 126.136C23.5898 125.974 23.5673 125.833 23.5223 125.714C23.4773 125.594 23.4122 125.502 23.327 125.437C23.2417 125.372 23.1382 125.339 23.0162 125.339C22.892 125.339 22.7872 125.373 22.702 125.44C22.6167 125.508 22.5522 125.601 22.5084 125.721C22.4646 125.84 22.4427 125.979 22.4427 126.136C22.4427 126.295 22.4646 126.435 22.5084 126.557C22.5534 126.678 22.6179 126.773 22.702 126.841C22.7872 126.909 22.892 126.942 23.0162 126.942ZM26.1217 127.5V123.864H26.8781V125.231H26.9012C26.9343 125.157 26.9823 125.083 27.045 125.007C27.1089 124.93 27.1918 124.866 27.2936 124.815C27.3966 124.763 27.5244 124.737 27.6771 124.737C27.876 124.737 28.0595 124.789 28.2275 124.893C28.3956 124.996 28.53 125.152 28.6306 125.36C28.7312 125.568 28.7815 125.827 28.7815 126.14C28.7815 126.444 28.7324 126.701 28.6341 126.911C28.5371 127.119 28.4045 127.277 28.2364 127.385C28.0695 127.491 27.8825 127.544 27.6753 127.544C27.5286 127.544 27.4037 127.52 27.3007 127.472C27.1989 127.423 27.1154 127.362 27.0503 127.289C26.9852 127.214 26.9355 127.139 26.9012 127.063H26.8675V127.5H26.1217ZM26.8621 126.136C26.8621 126.299 26.8846 126.44 26.9296 126.561C26.9746 126.681 27.0397 126.776 27.1249 126.843C27.2101 126.909 27.3137 126.942 27.4356 126.942C27.5587 126.942 27.6629 126.909 27.7481 126.841C27.8334 126.773 27.8979 126.678 27.9417 126.557C27.9867 126.435 28.0091 126.295 28.0091 126.136C28.0091 125.979 27.9872 125.84 27.9434 125.721C27.8997 125.601 27.8351 125.508 27.7499 125.44C27.6647 125.373 27.5599 125.339 27.4356 125.339C27.3125 125.339 27.2084 125.372 27.1231 125.437C27.0391 125.502 26.9746 125.594 26.9296 125.714C26.8846 125.833 26.8621 125.974 26.8621 126.136ZM29.6653 128.523C29.5694 128.523 29.4795 128.515 29.3954 128.5C29.3126 128.485 29.2439 128.467 29.1895 128.445L29.3599 127.88C29.4487 127.907 29.5286 127.922 29.5996 127.924C29.6718 127.927 29.734 127.91 29.786 127.875C29.8393 127.839 29.8825 127.779 29.9157 127.694L29.96 127.578L28.9817 124.773H29.7772L30.3418 126.776H30.3702L30.9402 124.773H31.7409L30.6809 127.795C30.63 127.942 30.5608 128.069 30.4732 128.178C30.3868 128.288 30.2773 128.373 30.1447 128.432C30.0121 128.493 29.8523 128.523 29.6653 128.523ZM33.2994 127.5V123.864H34.0683V126.866H35.6272V127.5H33.2994ZM37.3651 127.553C37.0845 127.553 36.843 127.496 36.6406 127.383C36.4394 127.268 36.2843 127.106 36.1754 126.896C36.0665 126.686 36.0121 126.436 36.0121 126.149C36.0121 125.868 36.0665 125.622 36.1754 125.41C36.2843 125.198 36.4376 125.033 36.6353 124.915C36.8342 124.796 37.0674 124.737 37.3349 124.737C37.5148 124.737 37.6823 124.766 37.8374 124.824C37.9936 124.881 38.1297 124.967 38.2457 125.082C38.3629 125.196 38.4541 125.341 38.5192 125.515C38.5843 125.688 38.6168 125.89 38.6168 126.122V126.33H36.3139V125.861H37.9048C37.9048 125.752 37.8812 125.656 37.8338 125.572C37.7865 125.488 37.7208 125.422 37.6367 125.375C37.5539 125.326 37.4574 125.302 37.3473 125.302C37.2325 125.302 37.1307 125.328 37.0419 125.382C36.9543 125.434 36.8857 125.504 36.8359 125.593C36.7862 125.681 36.7608 125.778 36.7596 125.886V126.332C36.7596 126.467 36.7844 126.583 36.8342 126.681C36.8851 126.78 36.9567 126.855 37.049 126.909C37.1413 126.962 37.2508 126.989 37.3775 126.989C37.4615 126.989 37.5385 126.977 37.6083 126.953C37.6781 126.929 37.7379 126.894 37.7876 126.847C37.8374 126.799 37.8752 126.741 37.9013 126.673L38.6009 126.719C38.5653 126.887 38.4925 127.034 38.3825 127.159C38.2736 127.283 38.1327 127.38 37.9599 127.45C37.7882 127.519 37.59 127.553 37.3651 127.553ZM39.6289 127.5L38.8867 124.773H39.652L40.0746 126.605H40.0994L40.5398 124.773H41.2908L41.7383 126.594H41.7614L42.1768 124.773H42.9403L42.1999 127.5H41.3991L40.9304 125.785H40.8967L40.4279 127.5H39.6289ZM44.5184 127.553C44.2378 127.553 43.9964 127.496 43.7939 127.383C43.5927 127.268 43.4376 127.106 43.3287 126.896C43.2198 126.686 43.1654 126.436 43.1654 126.149C43.1654 125.868 43.2198 125.622 43.3287 125.41C43.4376 125.198 43.5909 125.033 43.7886 124.915C43.9875 124.796 44.2207 124.737 44.4882 124.737C44.6681 124.737 44.8356 124.766 44.9907 124.824C45.1469 124.881 45.2831 124.967 45.3991 125.082C45.5162 125.196 45.6074 125.341 45.6725 125.515C45.7376 125.688 45.7702 125.89 45.7702 126.122V126.33H43.4672V125.861H45.0581C45.0581 125.752 45.0345 125.656 44.9871 125.572C44.9398 125.488 44.8741 125.422 44.79 125.375C44.7072 125.326 44.6107 125.302 44.5006 125.302C44.3858 125.302 44.284 125.328 44.1952 125.382C44.1076 125.434 44.039 125.504 43.9893 125.593C43.9395 125.681 43.9141 125.778 43.9129 125.886V126.332C43.9129 126.467 43.9378 126.583 43.9875 126.681C44.0384 126.78 44.11 126.855 44.2023 126.909C44.2947 126.962 44.4041 126.989 44.5308 126.989C44.6148 126.989 44.6918 126.977 44.7616 126.953C44.8315 126.929 44.8912 126.894 44.941 126.847C44.9907 126.799 45.0286 126.741 45.0546 126.673L45.7542 126.719C45.7187 126.887 45.6459 127.034 45.5358 127.159C45.4269 127.283 45.286 127.38 45.1132 127.45C44.9416 127.519 44.7433 127.553 44.5184 127.553ZM47.0202 125.923V127.5H46.2638V124.773H46.9846V125.254H47.0166C47.077 125.095 47.1782 124.97 47.3202 124.877C47.4623 124.784 47.6345 124.737 47.8369 124.737C48.0263 124.737 48.1914 124.779 48.3323 124.862C48.4732 124.944 48.5827 125.063 48.6608 125.217C48.7389 125.369 48.778 125.552 48.778 125.763V127.5H48.0216V125.898C48.0228 125.732 47.9801 125.601 47.8937 125.508C47.8073 125.413 47.6884 125.366 47.5368 125.366C47.435 125.366 47.3451 125.388 47.267 125.431C47.19 125.475 47.1296 125.539 47.0858 125.623C47.0432 125.706 47.0213 125.806 47.0202 125.923ZM51.8346 127.5H50.5455V123.864H51.8453C52.211 123.864 52.5259 123.936 52.7899 124.082C53.0538 124.226 53.2568 124.434 53.3989 124.705C53.5421 124.976 53.6137 125.301 53.6137 125.678C53.6137 126.057 53.5421 126.383 53.3989 126.655C53.2568 126.927 53.0526 127.136 52.7863 127.282C52.5212 127.427 52.2039 127.5 51.8346 127.5ZM51.3144 126.841H51.8026C52.0299 126.841 52.2211 126.801 52.3762 126.721C52.5324 126.639 52.6496 126.513 52.7277 126.342C52.807 126.171 52.8467 125.949 52.8467 125.678C52.8467 125.41 52.807 125.19 52.7277 125.02C52.6496 124.849 52.533 124.724 52.3779 124.643C52.2229 124.563 52.0317 124.522 51.8044 124.522H51.3144V126.841ZM55.4119 127.553C55.1314 127.553 54.8899 127.496 54.6875 127.383C54.4863 127.268 54.3312 127.106 54.2223 126.896C54.1134 126.686 54.0589 126.436 54.0589 126.149C54.0589 125.868 54.1134 125.622 54.2223 125.41C54.3312 125.198 54.4845 125.033 54.6822 124.915C54.881 124.796 55.1142 124.737 55.3817 124.737C55.5617 124.737 55.7292 124.766 55.8842 124.824C56.0405 124.881 56.1766 124.967 56.2926 125.082C56.4098 125.196 56.5009 125.341 56.5661 125.515C56.6312 125.688 56.6637 125.89 56.6637 126.122V126.33H54.3608V125.861H55.9517C55.9517 125.752 55.928 125.656 55.8807 125.572C55.8333 125.488 55.7676 125.422 55.6836 125.375C55.6007 125.326 55.5043 125.302 55.3942 125.302C55.2794 125.302 55.1776 125.328 55.0888 125.382C55.0012 125.434 54.9325 125.504 54.8828 125.593C54.8331 125.681 54.8076 125.778 54.8065 125.886V126.332C54.8065 126.467 54.8313 126.583 54.881 126.681C54.9319 126.78 55.0036 126.855 55.0959 126.909C55.1882 126.962 55.2977 126.989 55.4244 126.989C55.5084 126.989 55.5853 126.977 55.6552 126.953C55.725 126.929 55.7848 126.894 55.8345 126.847C55.8842 126.799 55.9221 126.741 55.9482 126.673L56.6477 126.719C56.6122 126.887 56.5394 127.034 56.4293 127.159C56.3204 127.283 56.1796 127.38 56.0067 127.45C55.8351 127.519 55.6368 127.553 55.4119 127.553ZM59.4265 125.55L58.734 125.593C58.7222 125.534 58.6967 125.481 58.6577 125.433C58.6186 125.385 58.5671 125.346 58.5032 125.318C58.4405 125.288 58.3653 125.273 58.2777 125.273C58.1605 125.273 58.0617 125.298 57.9812 125.348C57.9007 125.397 57.8604 125.462 57.8604 125.543C57.8604 125.608 57.8865 125.663 57.9386 125.708C57.9906 125.753 58.08 125.79 58.2067 125.817L58.7003 125.916C58.9654 125.971 59.1631 126.058 59.2933 126.179C59.4235 126.3 59.4886 126.458 59.4886 126.655C59.4886 126.834 59.436 126.99 59.3306 127.125C59.2264 127.26 59.0832 127.366 58.9009 127.441C58.7198 127.516 58.5109 127.553 58.2741 127.553C57.9131 127.553 57.6255 127.478 57.4112 127.328C57.1982 127.176 57.0733 126.97 57.0366 126.71L57.7805 126.671C57.803 126.781 57.8575 126.865 57.9439 126.923C58.0303 126.98 58.141 127.008 58.2759 127.008C58.4085 127.008 58.515 126.983 58.5955 126.932C58.6772 126.88 58.7186 126.813 58.7198 126.731C58.7186 126.663 58.6896 126.606 58.6328 126.562C58.576 126.518 58.4884 126.483 58.37 126.46L57.8977 126.365C57.6314 126.312 57.4331 126.22 57.3029 126.088C57.1739 125.957 57.1094 125.79 57.1094 125.586C57.1094 125.411 57.1567 125.26 57.2514 125.133C57.3473 125.007 57.4817 124.909 57.6545 124.84C57.8285 124.772 58.0321 124.737 58.2653 124.737C58.6097 124.737 58.8808 124.81 59.0785 124.956C59.2773 125.101 59.3933 125.299 59.4265 125.55ZM59.9649 127.5V124.773H60.7213V127.5H59.9649ZM60.3449 124.421C60.2325 124.421 60.136 124.384 60.0555 124.309C59.9762 124.234 59.9365 124.143 59.9365 124.038C59.9365 123.933 59.9762 123.844 60.0555 123.77C60.136 123.694 60.2325 123.656 60.3449 123.656C60.4574 123.656 60.5532 123.694 60.6325 123.77C60.713 123.844 60.7533 123.933 60.7533 124.038C60.7533 124.143 60.713 124.234 60.6325 124.309C60.5532 124.384 60.4574 124.421 60.3449 124.421ZM62.5559 128.58C62.3109 128.58 62.1008 128.546 61.9256 128.478C61.7516 128.412 61.6131 128.321 61.5101 128.207C61.4071 128.092 61.3403 127.963 61.3095 127.82L62.0091 127.725C62.0304 127.78 62.0641 127.831 62.1103 127.878C62.1564 127.926 62.2174 127.963 62.2931 127.992C62.3701 128.021 62.4636 128.036 62.5737 128.036C62.7382 128.036 62.8738 127.996 62.9803 127.915C63.088 127.836 63.1419 127.703 63.1419 127.516V127.017H63.1099C63.0768 127.093 63.027 127.164 62.9608 127.232C62.8945 127.299 62.8092 127.354 62.7051 127.397C62.6009 127.44 62.4766 127.461 62.3322 127.461C62.1274 127.461 61.941 127.414 61.7729 127.319C61.606 127.223 61.4728 127.077 61.3734 126.88C61.2752 126.683 61.226 126.433 61.226 126.131C61.226 125.822 61.2763 125.564 61.377 125.357C61.4776 125.15 61.6113 124.995 61.7782 124.892C61.9463 124.789 62.1304 124.737 62.3304 124.737C62.4831 124.737 62.611 124.763 62.714 124.815C62.8169 124.866 62.8998 124.93 62.9625 125.007C63.0265 125.083 63.0756 125.157 63.1099 125.231H63.1383V124.773H63.8894V127.527C63.8894 127.759 63.8326 127.953 63.7189 128.109C63.6053 128.265 63.4479 128.382 63.2466 128.461C63.0466 128.54 62.8163 128.58 62.5559 128.58ZM62.5719 126.893C62.6938 126.893 62.7968 126.863 62.8809 126.802C62.9661 126.741 63.0312 126.653 63.0762 126.539C63.1223 126.425 63.1454 126.287 63.1454 126.127C63.1454 125.968 63.1229 125.829 63.0779 125.712C63.033 125.594 62.9679 125.502 62.8826 125.437C62.7974 125.372 62.6938 125.339 62.5719 125.339C62.4476 125.339 62.3429 125.373 62.2576 125.44C62.1724 125.507 62.1079 125.599 62.0641 125.717C62.0203 125.836 61.9984 125.972 61.9984 126.127C61.9984 126.285 62.0203 126.421 62.0641 126.536C62.1091 126.65 62.1736 126.738 62.2576 126.8C62.3429 126.862 62.4476 126.893 62.5719 126.893ZM65.2477 125.923V127.5H64.4913V124.773H65.2122V125.254H65.2441C65.3045 125.095 65.4057 124.97 65.5478 124.877C65.6898 124.784 65.862 124.737 66.0645 124.737C66.2538 124.737 66.419 124.779 66.5598 124.862C66.7007 124.944 66.8102 125.063 66.8883 125.217C66.9664 125.369 67.0055 125.552 67.0055 125.763V127.5H66.2491V125.898C66.2503 125.732 66.2077 125.601 66.1213 125.508C66.0349 125.413 65.9159 125.366 65.7644 125.366C65.6626 125.366 65.5726 125.388 65.4945 125.431C65.4176 125.475 65.3572 125.539 65.3134 125.623C65.2708 125.706 65.2489 125.806 65.2477 125.923Z" fill="black"/>
<path d="M6.76847 129.773V130.341H5.08523V129.773H6.76847ZM5.47053 132.5V129.576C5.47053 129.378 5.509 129.214 5.58594 129.084C5.66406 128.954 5.7706 128.856 5.90554 128.791C6.04048 128.726 6.19377 128.693 6.36541 128.693C6.48142 128.693 6.58736 128.702 6.68324 128.72C6.7803 128.738 6.85251 128.754 6.89986 128.768L6.76491 129.336C6.73532 129.326 6.69863 129.318 6.65483 129.309C6.61222 129.301 6.56842 129.297 6.52344 129.297C6.41217 129.297 6.33464 129.323 6.29084 129.375C6.24704 129.426 6.22514 129.498 6.22514 129.59V132.5H5.47053ZM7.23056 132.5V129.773H7.96387V130.249H7.99228C8.04199 130.079 8.12544 129.951 8.24263 129.865C8.35982 129.777 8.49476 129.734 8.64746 129.734C8.68534 129.734 8.72618 129.736 8.76998 129.741C8.81377 129.746 8.85224 129.752 8.88539 129.76V130.431C8.84988 130.421 8.80075 130.411 8.73801 130.403C8.67528 130.395 8.61787 130.391 8.56578 130.391C8.45452 130.391 8.35508 130.415 8.26749 130.463C8.18108 130.511 8.11242 130.577 8.06152 130.662C8.01181 130.748 7.98695 130.846 7.98695 130.957V132.5H7.23056ZM10.3817 132.553C10.1059 132.553 9.86742 132.495 9.66619 132.377C9.46615 132.259 9.31167 132.095 9.20277 131.884C9.09387 131.672 9.03942 131.426 9.03942 131.147C9.03942 130.865 9.09387 130.619 9.20277 130.408C9.31167 130.196 9.46615 130.032 9.66619 129.915C9.86742 129.796 10.1059 129.737 10.3817 129.737C10.6576 129.737 10.8955 129.796 11.0955 129.915C11.2968 130.032 11.4518 130.196 11.5607 130.408C11.6696 130.619 11.7241 130.865 11.7241 131.147C11.7241 131.426 11.6696 131.672 11.5607 131.884C11.4518 132.095 11.2968 132.259 11.0955 132.377C10.8955 132.495 10.6576 132.553 10.3817 132.553ZM10.3853 131.967C10.5108 131.967 10.6155 131.932 10.6996 131.861C10.7836 131.789 10.8469 131.69 10.8896 131.566C10.9334 131.442 10.9553 131.3 10.9553 131.142C10.9553 130.983 10.9334 130.842 10.8896 130.717C10.8469 130.593 10.7836 130.495 10.6996 130.423C10.6155 130.35 10.5108 130.314 10.3853 130.314C10.2586 130.314 10.1521 130.35 10.0657 130.423C9.98047 130.495 9.91596 130.593 9.87216 130.717C9.82955 130.842 9.80824 130.983 9.80824 131.142C9.80824 131.3 9.82955 131.442 9.87216 131.566C9.91596 131.69 9.98047 131.789 10.0657 131.861C10.1521 131.932 10.2586 131.967 10.3853 131.967ZM12.2159 132.5V129.773H12.9368V130.254H12.9688C13.0256 130.094 13.1203 129.968 13.2528 129.876C13.3854 129.783 13.544 129.737 13.7287 129.737C13.9157 129.737 14.0749 129.784 14.2063 129.877C14.3377 129.97 14.4253 130.095 14.4691 130.254H14.4975C14.5531 130.098 14.6538 129.973 14.7994 129.879C14.9461 129.785 15.1196 129.737 15.3196 129.737C15.5741 129.737 15.7807 129.818 15.9393 129.98C16.0991 130.141 16.179 130.37 16.179 130.666V132.5H15.4244V130.815C15.4244 130.663 15.3841 130.55 15.3036 130.474C15.2231 130.398 15.1225 130.36 15.0018 130.36C14.8645 130.36 14.7573 130.404 14.6804 130.492C14.6035 130.578 14.565 130.692 14.565 130.835V132.5H13.8317V130.799C13.8317 130.665 13.7932 130.559 13.7163 130.479C13.6405 130.4 13.5405 130.36 13.4162 130.36C13.3321 130.36 13.2564 130.382 13.1889 130.424C13.1226 130.466 13.07 130.524 13.0309 130.6C12.9918 130.675 12.9723 130.762 12.9723 130.863V132.5H12.2159ZM20.9894 128.864V132.5H20.3254L18.7433 130.211H18.7167V132.5H17.9479V128.864H18.6226L20.1922 131.151H20.2242V128.864H20.9894ZM22.8427 132.553C22.5669 132.553 22.3284 132.495 22.1271 132.377C21.9271 132.259 21.7726 132.095 21.6637 131.884C21.5548 131.672 21.5004 131.426 21.5004 131.147C21.5004 130.865 21.5548 130.619 21.6637 130.408C21.7726 130.196 21.9271 130.032 22.1271 129.915C22.3284 129.796 22.5669 129.737 22.8427 129.737C23.1185 129.737 23.3564 129.796 23.5565 129.915C23.7577 130.032 23.9128 130.196 24.0217 130.408C24.1306 130.619 24.185 130.865 24.185 131.147C24.185 131.426 24.1306 131.672 24.0217 131.884C23.9128 132.095 23.7577 132.259 23.5565 132.377C23.3564 132.495 23.1185 132.553 22.8427 132.553ZM22.8462 131.967C22.9717 131.967 23.0765 131.932 23.1605 131.861C23.2446 131.789 23.3079 131.69 23.3505 131.566C23.3943 131.442 23.4162 131.3 23.4162 131.142C23.4162 130.983 23.3943 130.842 23.3505 130.717C23.3079 130.593 23.2446 130.495 23.1605 130.423C23.0765 130.35 22.9717 130.314 22.8462 130.314C22.7196 130.314 22.613 130.35 22.5266 130.423C22.4414 130.495 22.3769 130.593 22.3331 130.717C22.2905 130.842 22.2692 130.983 22.2692 131.142C22.2692 131.3 22.2905 131.442 22.3331 131.566C22.3769 131.69 22.4414 131.789 22.5266 131.861C22.613 131.932 22.7196 131.967 22.8462 131.967ZM26.4258 131.339V129.773H27.1822V132.5H26.456V132.005H26.4276C26.366 132.164 26.2636 132.293 26.1204 132.39C25.9783 132.487 25.8049 132.536 25.6001 132.536C25.4179 132.536 25.2575 132.494 25.119 132.411C24.9805 132.328 24.8722 132.211 24.794 132.058C24.7171 131.905 24.678 131.722 24.6768 131.509V129.773H25.4332V131.374C25.4344 131.535 25.4776 131.663 25.5629 131.756C25.6481 131.85 25.7623 131.896 25.9055 131.896C25.9967 131.896 26.0819 131.876 26.1612 131.834C26.2405 131.792 26.3045 131.729 26.353 131.646C26.4027 131.563 26.427 131.461 26.4258 131.339ZM28.5436 130.923V132.5H27.7872V129.773H28.5081V130.254H28.54C28.6004 130.095 28.7016 129.97 28.8437 129.877C28.9857 129.784 29.1579 129.737 29.3604 129.737C29.5497 129.737 29.7149 129.779 29.8557 129.862C29.9966 129.944 30.1061 130.063 30.1842 130.217C30.2623 130.369 30.3014 130.552 30.3014 130.763V132.5H29.545V130.898C29.5462 130.732 29.5036 130.601 29.4172 130.508C29.3308 130.413 29.2118 130.366 29.0603 130.366C28.9585 130.366 28.8685 130.388 28.7904 130.431C28.7135 130.475 28.6531 130.539 28.6093 130.623C28.5667 130.706 28.5448 130.806 28.5436 130.923ZM32.069 132.5V128.864H33.5036C33.7794 128.864 34.0144 128.916 34.2085 129.022C34.4027 129.126 34.5506 129.271 34.6524 129.457C34.7554 129.641 34.8069 129.854 34.8069 130.096C34.8069 130.337 34.7548 130.55 34.6507 130.735C34.5465 130.92 34.3956 131.064 34.1979 131.167C34.0014 131.27 33.7635 131.321 33.4841 131.321H32.5697V130.705H33.3598C33.5078 130.705 33.6297 130.679 33.7256 130.629C33.8227 130.576 33.8949 130.505 33.9422 130.414C33.9907 130.321 34.015 130.215 34.015 130.096C34.015 129.975 33.9907 129.87 33.9422 129.78C33.8949 129.689 33.8227 129.618 33.7256 129.569C33.6285 129.518 33.5054 129.492 33.3563 129.492H32.8378V132.5H32.069ZM35.2921 132.5V129.773H36.0254V130.249H36.0538C36.1035 130.079 36.187 129.951 36.3042 129.865C36.4213 129.777 36.5563 129.734 36.709 129.734C36.7469 129.734 36.7877 129.736 36.8315 129.741C36.8753 129.746 36.9138 129.752 36.9469 129.76V130.431C36.9114 130.421 36.8623 130.411 36.7995 130.403C36.7368 130.395 36.6794 130.391 36.6273 130.391C36.516 130.391 36.4166 130.415 36.329 130.463C36.2426 130.511 36.1739 130.577 36.123 130.662C36.0733 130.748 36.0485 130.846 36.0485 130.957V132.5H35.2921ZM38.4433 132.553C38.1675 132.553 37.9289 132.495 37.7277 132.377C37.5277 132.259 37.3732 132.095 37.2643 131.884C37.1554 131.672 37.1009 131.426 37.1009 131.147C37.1009 130.865 37.1554 130.619 37.2643 130.408C37.3732 130.196 37.5277 130.032 37.7277 129.915C37.9289 129.796 38.1675 129.737 38.4433 129.737C38.7191 129.737 38.957 129.796 39.157 129.915C39.3583 130.032 39.5133 130.196 39.6222 130.408C39.7311 130.619 39.7856 130.865 39.7856 131.147C39.7856 131.426 39.7311 131.672 39.6222 131.884C39.5133 132.095 39.3583 132.259 39.157 132.377C38.957 132.495 38.7191 132.553 38.4433 132.553ZM38.4468 131.967C38.5723 131.967 38.6771 131.932 38.7611 131.861C38.8451 131.789 38.9085 131.69 38.9511 131.566C38.9949 131.442 39.0168 131.3 39.0168 131.142C39.0168 130.983 38.9949 130.842 38.9511 130.717C38.9085 130.593 38.8451 130.495 38.7611 130.423C38.6771 130.35 38.5723 130.314 38.4468 130.314C38.3202 130.314 38.2136 130.35 38.1272 130.423C38.042 130.495 37.9775 130.593 37.9337 130.717C37.8911 130.842 37.8698 130.983 37.8698 131.142C37.8698 131.3 37.8911 131.442 37.9337 131.566C37.9775 131.69 38.042 131.789 38.1272 131.861C38.2136 131.932 38.3202 131.967 38.4468 131.967ZM40.2774 129.773H41.0338V132.635C41.0338 132.846 40.9924 133.016 40.9095 133.146C40.8267 133.277 40.7077 133.372 40.5526 133.432C40.3988 133.493 40.2147 133.523 40.0004 133.523C39.9744 133.523 39.9495 133.522 39.9259 133.521C39.901 133.521 39.875 133.52 39.8477 133.519V132.928C39.8679 132.929 39.8856 132.93 39.901 132.93C39.9152 132.931 39.9306 132.931 39.9472 132.931C40.0691 132.931 40.1543 132.905 40.2029 132.853C40.2526 132.802 40.2774 132.725 40.2774 132.623V129.773ZM40.6539 129.421C40.5426 129.421 40.4467 129.384 40.3662 129.309C40.2857 129.234 40.2455 129.143 40.2455 129.038C40.2455 128.933 40.2857 128.844 40.3662 128.77C40.4467 128.694 40.5426 128.656 40.6539 128.656C40.7675 128.656 40.864 128.694 40.9433 128.77C41.0238 128.844 41.064 128.933 41.064 129.038C41.064 129.143 41.0238 129.234 40.9433 129.309C40.864 129.384 40.7675 129.421 40.6539 129.421ZM42.8826 132.553C42.6021 132.553 42.3606 132.496 42.1582 132.383C41.957 132.268 41.8019 132.106 41.693 131.896C41.5841 131.686 41.5297 131.436 41.5297 131.149C41.5297 130.868 41.5841 130.622 41.693 130.41C41.8019 130.198 41.9552 130.033 42.1529 129.915C42.3517 129.796 42.5849 129.737 42.8525 129.737C43.0324 129.737 43.1999 129.766 43.3549 129.824C43.5112 129.881 43.6473 129.967 43.7633 130.082C43.8805 130.196 43.9717 130.341 44.0368 130.515C44.1019 130.688 44.1344 130.89 44.1344 131.122V131.33H41.8315V130.861H43.4224C43.4224 130.752 43.3987 130.656 43.3514 130.572C43.304 130.488 43.2383 130.422 43.1543 130.375C43.0714 130.326 42.975 130.302 42.8649 130.302C42.7501 130.302 42.6483 130.328 42.5595 130.382C42.4719 130.434 42.4032 130.504 42.3535 130.593C42.3038 130.681 42.2783 130.778 42.2772 130.886V131.332C42.2772 131.467 42.302 131.583 42.3517 131.681C42.4026 131.78 42.4743 131.855 42.5666 131.909C42.6589 131.962 42.7684 131.989 42.8951 131.989C42.9791 131.989 43.056 131.977 43.1259 131.953C43.1957 131.929 43.2555 131.894 43.3052 131.847C43.3549 131.799 43.3928 131.741 43.4189 131.673L44.1184 131.719C44.0829 131.887 44.0101 132.034 43.9 132.159C43.7911 132.283 43.6503 132.38 43.4775 132.45C43.3058 132.519 43.1075 132.553 42.8826 132.553ZM45.8603 132.553C45.5809 132.553 45.3406 132.494 45.1394 132.376C44.9393 132.256 44.7855 132.09 44.6777 131.879C44.5712 131.667 44.5179 131.423 44.5179 131.147C44.5179 130.868 44.5718 130.623 44.6795 130.412C44.7884 130.2 44.9429 130.035 45.1429 129.917C45.343 129.797 45.5809 129.737 45.8567 129.737C46.0946 129.737 46.303 129.78 46.4817 129.867C46.6605 129.953 46.8019 130.075 46.9061 130.231C47.0102 130.387 47.0676 130.571 47.0783 130.781H46.3645C46.3444 130.645 46.2911 130.536 46.2047 130.453C46.1195 130.369 46.0076 130.327 45.8691 130.327C45.752 130.327 45.6496 130.359 45.562 130.423C45.4756 130.485 45.4081 130.577 45.3596 130.698C45.311 130.819 45.2868 130.965 45.2868 131.136C45.2868 131.31 45.3104 131.458 45.3578 131.58C45.4063 131.702 45.4744 131.795 45.562 131.859C45.6496 131.923 45.752 131.955 45.8691 131.955C45.9556 131.955 46.0331 131.937 46.1017 131.902C46.1716 131.866 46.229 131.815 46.274 131.747C46.3201 131.679 46.3503 131.596 46.3645 131.5H47.0783C47.0665 131.709 47.0096 131.892 46.9078 132.051C46.8072 132.208 46.6681 132.331 46.4906 132.42C46.313 132.509 46.1029 132.553 45.8603 132.553ZM49.0132 129.773V130.341H47.3708V129.773H49.0132ZM47.7437 129.119H48.5001V131.662C48.5001 131.732 48.5107 131.786 48.532 131.825C48.5534 131.863 48.5829 131.89 48.6208 131.905C48.6599 131.921 48.7049 131.928 48.7558 131.928C48.7913 131.928 48.8268 131.925 48.8623 131.919C48.8978 131.912 48.925 131.907 48.944 131.903L49.0629 132.466C49.0251 132.478 48.9718 132.492 48.9031 132.507C48.8345 132.524 48.751 132.534 48.6528 132.537C48.4705 132.544 48.3107 132.52 48.1734 132.464C48.0373 132.409 47.9313 132.322 47.8556 132.205C47.7798 132.088 47.7425 131.94 47.7437 131.761V129.119Z" fill="black"/>
<g clip-path="url(#clip1_9_8)">
<path d="M4.90533 125.882C4.9822 125.882 5.05906 125.882 12.5711 125.885C20.0832 125.889 35.0281 125.895 43.594 125.927C52.1598 125.959 53.8936 126.017 56.1675 126.24" stroke="white" stroke-width="38" stroke-linecap="round"/>
</g>
</g>
<defs>
<clipPath id="clip0_9_8">
<rect width="110" height="135" fill="white"/>
</clipPath>
<clipPath id="clip1_9_8">
<rect width="333.33" height="416.663" fill="white" transform="translate(-64 -104)"/>
</clipPath>
</defs>
</svg>
