<svg xmlns="http://www.w3.org/2000/svg" version="1.1" viewBox="-5.0 -10.0 110.0 135.0">
 <path d="m78.746 39.379c-0.12109-0.23438-0.33203-0.41406-0.58594-0.49609l-1.8672-0.58594 0.49609-0.14844c0.46484-0.14063 0.76172-0.59375 0.70313-1.0742l-0.41797-3.4883c0.33203-0.71875 0.49609-1.5859 0.41406-2.5273-0.085937-1.0312-0.45312-1.9883-1.0312-2.6953-0.65625-0.80469-1.5625-1.2227-2.4375-1.1484-0.046875 0.003906-0.085937 0.023437-0.13281 0.027344-0.035157 0.003906-0.070313-0.007813-0.10547 0l-7.8477 1.6641c-1.5898-4.8398-4.3945-7.9219-8.3906-9.1367 1.7812-2.3867 4.3008-3.4609 7.6172-3.2578 0.30469 0.015625 0.58594-0.097657 0.78906-0.31641s0.29688-0.51562 0.26172-0.80859l-0.54297-4.2109c-0.035157-0.26562-0.17188-0.50391-0.38281-0.66797-0.21094-0.16016-0.48438-0.23437-0.74609-0.19531l-3.4102 0.47266 0.57422-2.2227c0.066406-0.25781 0.027344-0.53125-0.10938-0.76172s-0.35938-0.39453-0.61719-0.45703l-3.2617-0.81641c-0.49609-0.125-0.99609 0.14062-1.1758 0.61719l-1.8359 4.8516-0.88672 0.98828 0.71094-6.3242c0.058594-0.53906-0.32031-1.0273-0.85547-1.1016l-3.9414-0.54297c-0.51953-0.074219-1.0234 0.28125-1.1211 0.80859-0.64062 3.4766-1.5977 8.5-2.2383 11.547l-4.9727-10.961c-0.21484-0.47656-0.76563-0.70312-1.2578-0.52344l-4.7539 1.7656c-0.25781 0.097656-0.46484 0.29688-0.57422 0.55078-0.10547 0.25391-0.10156 0.54297 0.011719 0.79688l1.0859 2.418-4.3086-0.94922c-0.52734-0.11328-1.0391 0.19922-1.1797 0.71094l-1.0859 3.9414c-0.074219 0.27344-0.03125 0.57031 0.125 0.8125 0.15625 0.23828 0.40625 0.40234 0.69141 0.44141 2.9492 0.4375 5.8867 1.1602 7.4336 3.4492 0.23437 0.34766 0.42578 0.73438 0.59375 1.1484-0.30469-0.023437-0.625-0.035156-0.98438-0.027344l-0.097656 0.003907c-2.2266 0.0625-4.4414 0.61719-6.5742 1.6406-0.90234 0.43359-1.8164 1.3438-1.6797 2.6016 0.027344 0.24609 0.097656 0.46875 0.19922 0.67188v0.007813c0.67578 1.5938 0.125 3.0508-0.56641 4.8906l-0.23437 0.62891c-0.37109 1.0039-1.4375 4.2617-0.90625 6.9492-1.457 0.98438-2.6133 2.125-3.4375 3.4102-0.96484 1.5078-2.1992 3.8828-2.5938 6.6523-0.43359 3.0625 0 6.3672 1.3672 10.406 0.019531 0.054687 0.050781 0.097656 0.078125 0.14844-0.44531 1.6016-0.56641 3.2969-0.28125 4.9609 1.8789 11.039 9.8633 21.711 21.359 28.547 2.0078 1.1914 4.6484 2.5391 7.4883 2.5391 0.12891 0 0.25391-0.003906 0.38281-0.007812 2.9023-0.125 5.2461-1.6328 6.6992-2.875 1.8203-1.5547 3.2344-3.5039 4.4961-5.3789 4.3086-6.4141 7.7891-13.363 10.336-20.66 0.625-1.793 1.2188-3.7109 0.98828-5.7188-0.18359-1.5898-0.95312-2.9922-2.0352-3.8984 0.94922-0.78906 1.6914-1.9023 2.1055-3.2539 0.80078-2.6016 0.27344-5.5625-1.375-7.7266-0.29297-0.38281-0.62891-0.73047-0.98437-1.0547v-1.4375l4.8164 0.79297c0.49219 0.085938 0.96484-0.20703 1.1133-0.67969l0.94922-2.957c0.082031-0.25391 0.058594-0.52734-0.0625-0.76563zm-24.113 11.223c-0.60547-0.007812-1.3281-0.4375-1.7812-0.95312-0.31641-0.35938-0.58984-0.76953-0.88672-1.207-0.38672-0.57812-0.78906-1.1797-1.3281-1.7148-0.40625-0.40625-0.88281-0.75391-1.4023-1.0391v-5.8477c0-3.0703 1.0195-5.9258 2.3828-7.875 0.83984 0.57422 1.8867 0.92578 3.043 1.0039 0.11328 0.007812 0.23438 0.011719 0.36328 0.011719 1.4336 0 3.5469-0.46094 3.793-0.51562l12.586-2.6719c-0.14453 0.55078-0.20703 1.1562-0.15234 1.7969 0.074219 0.875 0.35938 1.6875 0.79688 2.3477l-8.4688 1.6758c-2.5117 0.52344-4.5938 2.3555-5.4297 4.7812l-3.5117 10.207zm-1.6719-20.168c0.5625-0.49219 1.1445-0.83594 1.7148-0.97656 0.99609-0.24609 1.8516 0.1875 2.5391 1.2773-0.82422 0.14062-1.8125 0.27344-2.4141 0.23438-0.69141-0.046875-1.3242-0.24219-1.8359-0.53516zm21.59 3.0039c-0.34766 0.03125-0.60938-0.28516-0.71875-0.41797-0.32031-0.39453-0.53516-0.97656-0.58984-1.6016-0.10156-1.1914 0.42578-2.168 0.94531-2.2148h0.039062c0.30078 0 0.57422 0.28906 0.67969 0.41797 0.32031 0.39453 0.53516 0.97656 0.58984 1.6016 0.10156 1.1914-0.42578 2.168-0.94531 2.2148zm-24.148-26.316 2.0273 0.28125-0.95313 8.4531c-0.046874 0.43359 0.1875 0.84766 0.58203 1.0234 0.39453 0.17578 0.86328 0.078125 1.1523-0.24219l3.1016-3.4453c0.082031-0.09375 0.14844-0.19922 0.19141-0.31641l1.5859-4.1953 1.418 0.35547-0.69922 2.6914c-0.082032 0.32422 0 0.66797 0.21875 0.91406 0.22266 0.25 0.55469 0.375 0.88281 0.32422l3.8906-0.53906 0.26562 2.0625c-3.9922 0.089844-7.0234 1.9102-9.0117 5.418-0.16016 0.28125-0.17188 0.62109-0.035157 0.91406 0.13672 0.29297 0.40625 0.5 0.72266 0.5625 3.9688 0.73828 6.6523 3.3555 8.207 7.9336l-4.7305 1.0039c-0.019531-0.066406-0.027344-0.13672-0.0625-0.20312-1.1562-2.1602-2.9766-3.1055-4.9883-2.6094-3.3555 0.83984-6.9492 5.9922-6.9492 12.32v5.1016c-0.93359-0.20703-1.9336-0.26172-2.9531-0.13672-1.5078 0.1875-2.9062 0.70312-4.168 1.3047 0.18359-0.89062 0.25781-1.7891 0.3125-2.5312l0.027344-0.37891c0.1875-2.3906 0.23828-4.8789-0.66797-6.8516-0.17188-0.375-0.38281-0.6875-0.61719-0.94922 0.94922-5.9922 3.5977-10.652 8.1055-14.207 0.039063-0.027344 0.070313-0.0625 0.10156-0.097657l0.015625-0.015625c0.003906-0.003906 0.007812-0.007812 0.011719-0.011718 0.042969-0.046876 0.085937-0.10156 0.15234-0.25391 0.015626-0.035156 0.027344-0.066406 0.039063-0.10156 0.28516-0.76953 0.91016-3.375 2.8047-13.582zm-18.844 7.4492 0.53906-1.9531 5.3242 1.1758c0.37109 0.082031 0.75391-0.050781 0.99219-0.34375 0.23828-0.29297 0.29297-0.69531 0.13672-1.0391l-1.4648-3.2578 2.8789-1.0703 5.4688 12.055c-1.8125 1.5234-3.3398 3.25-4.5898 5.1758 0.011719-0.86328-0.027344-1.6758-0.12891-2.4258 0-0.019531 0.003906-0.035157 0.003906-0.054688-0.003906-0.042969-0.015625-0.078125-0.023438-0.12109-0.23437-1.5742-0.71484-2.9102-1.457-4.0117-1.7617-2.6094-4.668-3.5859-7.6836-4.125zm-0.17188 9.8125c1.8789-0.90234 3.8203-1.3906 5.7656-1.4453l0.10938-0.003906c0.86328-0.03125 1.25 0.039062 1.418 0.10547-0.097657 0.11719-0.39453 0.32422-1.2461 0.63281-0.13281 0.046875-0.25 0.089844-0.33594 0.12891-1.9688 0.83594-4.0039 1.2422-5.9805 1.1914-0.17188-0.003907-0.27344-0.035157-0.28906-0.035157-0.019531-0.19141 0.27344-0.4375 0.55859-0.57422zm-1.2695 7.6914 0.23047-0.61328c0.53906-1.4258 1.0781-2.8867 0.98047-4.4609h0.09375c2.168 0 4.3398-0.45312 6.457-1.3555 0.0625-0.027343 0.14453-0.054687 0.23828-0.089843 0.19531-0.070313 0.45703-0.16797 0.73437-0.29297-0.023437 1.8008-0.3125 3.8984-0.89844 6.3477-0.007813 0.03125 0 0.0625-0.003906 0.09375-0.26562 0.91797-0.48438 1.8633-0.66016 2.8398-0.40234-0.015625-0.77344 0.039062-1.0742 0.097656-1.0312 0.19922-1.9805 0.57422-2.8984 0.94141-0.26562 0.10547-0.52734 0.20703-0.79297 0.30859l-0.58203 0.21484c-0.90234 0.33203-1.832 0.68359-2.7383 1.1367-0.11328-1.6289 0.34375-3.6289 0.91016-5.168zm-6.8359 16.602c0.33984-2.4102 1.4375-4.5117 2.2969-5.8516 0.94531-1.4727 2.4453-2.7383 4.457-3.7617 0.82812-0.42188 1.6914-0.74219 2.6055-1.0781l0.58984-0.21875c0.27734-0.10547 0.55078-0.21094 0.82422-0.32031 0.86719-0.34375 1.6914-0.67187 2.5391-0.83594 0.44922-0.085937 0.76562-0.082031 0.94531 0.015625 0.097657 0.054688 0.25391 0.19922 0.42188 0.5625 0.71484 1.5586 0.66016 3.7344 0.48828 5.8594l-0.027344 0.39062c-0.10547 1.4219-0.26562 3.5703-1.25 4.2852-0.054687 0.03125-0.11328 0.066406-0.16797 0.097656-1.2734 0.75-2.4805 1.4609-3.7734 1.9922-0.57031 0.23438-1.1562 0.43359-1.7422 0.63281-0.89453 0.30469-1.8203 0.62109-2.7109 1.0625-2.0508 1.0156-3.7109 2.6523-4.8398 4.6016-0.75781-2.8086-0.97266-5.2148-0.66016-7.4297zm48.062 16.738c-2.4922 7.1367-5.8945 13.934-10.109 20.207-1.1797 1.7578-2.5 3.5742-4.1367 4.9766-1.7148 1.4648-3.6641 2.3164-5.4883 2.3945-2.4375 0.10156-4.7891-1.0781-6.7617-2.2539-10.996-6.5391-18.629-16.695-20.41-27.164-0.6875-4.0391 1.5625-8.4609 5.2344-10.281 0.47656-0.23438 0.97656-0.42969 1.4922-0.61719-0.20312 1.5273-0.042968 3.0898 0.46484 4.543-1.1797 0.58984-2.1445 1.6992-2.6055 3.0703-0.44922 1.3359-0.45313 2.9141-0.007813 4.5625 0.37891 1.3984 1.0117 2.6719 1.625 3.9023 0.17578 0.35156 0.52734 0.55469 0.89453 0.55469 0.14844 0 0.30078-0.03125 0.44531-0.10547 0.49219-0.24609 0.69531-0.84766 0.44922-1.3398-0.57031-1.1445-1.1562-2.3281-1.4844-3.5352-0.23828-0.87891-0.4375-2.1836-0.027343-3.3984 0.28516-0.84375 0.87891-1.5312 1.5742-1.8906 0.27344 0.44922 0.57812 0.87891 0.92187 1.2773-0.32812 2.5391 0.53125 5.1914 2.3203 7.0234 0.19531 0.19922 0.45703 0.30078 0.71484 0.30078 0.25 0 0.50391-0.09375 0.69922-0.28516 0.39453-0.38672 0.40234-1.0195 0.015624-1.4141-1.0195-1.0469-1.6406-2.4414-1.793-3.8867 0.82812 0.55859 1.7383 0.99219 2.707 1.2734 0.09375 0.027344 0.1875 0.039063 0.27734 0.039063 0.43359 0 0.83203-0.28516 0.96094-0.72266 0.15234-0.53125-0.15234-1.0859-0.67969-1.2383-1.9375-0.5625-3.6719-1.957-4.6367-3.7305-0.94531-1.7344-1.1797-3.8867-0.64453-5.793 0.21484-0.078124 0.42969-0.14844 0.64062-0.23437 1.4258-0.58594 2.75-1.3672 4.0273-2.1172 0.44141-0.25781 0.88281-0.51953 1.3242-0.76953 1.4961-0.84766 3.2812-1.7422 5.1719-1.9766 1.8633-0.22656 3.6211 0.27344 4.6953 1.3477 0.39844 0.39844 0.73047 0.89453 1.082 1.418 0.31641 0.46875 0.64062 0.95703 1.043 1.4141 0.76562 0.87109 2.0195 1.6172 3.293 1.6211 0.52344 0.074218 1.0156 0.17578 1.4961 0.29297 0.47656 2.082 0.94922 4.2109 1.2344 6.3516 0.089844 0.88281-0.5625 2.0703-1.9531 3.5352-0.58203 0.61328-1.2578 1.1406-1.9727 1.6875-2.4062-0.41406-4.9141-0.03125-7.0742 1.0977-0.48828 0.25391-0.67969 0.85938-0.42188 1.3477 0.17969 0.33984 0.52734 0.53516 0.88672 0.53516 0.15625 0 0.3125-0.035156 0.46094-0.11328 1.2109-0.63281 2.5547-0.97656 3.918-1.0234-1.3008 1.2617-2.0547 2.5547-2.293 3.9258-0.09375 0.54297 0.26953 1.0625 0.8125 1.1562 0.058594 0.007813 0.11328 0.015625 0.17188 0.015625 0.47656 0 0.89844-0.34375 0.98437-0.82812 0.19141-1.1016 0.92188-2.1836 2.2383-3.3125 0.43359-0.37109 0.88672-0.71875 1.3438-1.0664 0.8125-0.62109 1.6523-1.2656 2.3945-2.0469 0.28125-0.29297 0.52734-0.58203 0.76172-0.86328-0.042969 2.7305-0.58203 5.1328-1.6172 7.1484-0.55078 1.0703-1.2461 2.0547-1.9805 3.0977-0.14063 0.19531-0.27734 0.40234-0.41797 0.60156-1.9609 1.3008-4.8672 2.0352-6.9062 2.4727-0.53906 0.11328-0.88281 0.64844-0.76562 1.1875 0.10156 0.46875 0.51562 0.78906 0.97656 0.78906 0.070313 0 0.14062-0.007813 0.21094-0.023438 1.3164-0.28125 2.9766-0.6875 4.5781-1.2812-1.1055 2.375-1.2969 4.6797-0.52734 6.5742 0.15625 0.38672 0.53125 0.625 0.92578 0.625 0.125 0 0.25391-0.023438 0.375-0.074219 0.51172-0.20703 0.75781-0.78906 0.55078-1.3008-0.86328-2.1328 0.21094-4.5703 0.92969-5.832 0.5-0.88281 1.0859-1.707 1.7031-2.582 0.30078-0.42578 0.60547-0.85938 0.90234-1.3047 1.2617 2.0977 1.5977 4.7656 0.82031 7.0898-0.17578 0.52344 0.10547 1.0898 0.62891 1.2656 0.10547 0.035156 0.21094 0.050781 0.31641 0.050781 0.41797 0 0.80859-0.26562 0.94922-0.68359 1.0664-3.1914 0.43359-6.8984-1.582-9.5938 0.03125-0.054687 0.0625-0.10938 0.09375-0.16797 1.3906-2.7109 2-5.9883 1.8125-9.7383-0.019531-0.40625-0.074218-0.80859-0.10938-1.2109 0.79688 0.33594 1.5 0.88672 2.1445 1.7227 0.88672 1.1562 1.293 2.707 1.082 4.1523-0.066406 0.46094-0.19531 0.92969-0.32812 1.4297-0.1875 0.6875-0.37891 1.3984-0.42969 2.168-0.10156 1.5312 0.5625 3.4297 2.2734 3.9688 0.10156 0.03125 0.19922 0.046875 0.30078 0.046875 0.42578 0 0.82031-0.27344 0.95312-0.69922 0.16406-0.52734-0.125-1.0898-0.65234-1.2539-0.61719-0.19531-0.92969-1.1328-0.87891-1.9258 0.039063-0.57422 0.19531-1.1602 0.36328-1.7773 0.039063-0.14844 0.078125-0.30078 0.11719-0.45312l1.4805 1.0078c0.17188 0.11719 0.36719 0.17187 0.5625 0.17187 0.32031 0 0.63281-0.15234 0.82813-0.4375 0.30859-0.45703 0.19141-1.0781-0.26563-1.3906l-2.2773-1.5469c0.019531-1.6719-0.51953-3.3359-1.543-4.6719-1.1172-1.457-2.4336-2.3477-3.9961-2.707-0.23828-1.5547-0.54688-3.0859-0.88281-4.5977 1.6016 0.64453 2.9648 1.4609 4.2227 2.2227 1.6758 1.0156 3.125 1.8945 4.6602 1.9922 0.23828 0.015625 0.46875 0.023437 0.69531 0.023437 0.80469 0 1.5352-0.10547 2.1992-0.29688 1.1953 0.42969 1.9609 1.8125 2.1016 3.0508 0.17969 1.5859-0.33984 3.2578-0.89062 4.832zm4.875-23.75-5.1289-0.84375c-0.29688-0.050781-0.58594 0.035157-0.80859 0.22266-0.22266 0.19141-0.35156 0.46875-0.35156 0.76172v1.2383c-1.2695-0.63281-2.6875-0.97266-4.1016-0.94141-2.3477 0.070313-4.6836 1.1875-6.2461 2.9883-0.36328 0.41797-0.31641 1.0469 0.097657 1.4102 0.41797 0.36328 1.0469 0.32031 1.4102-0.097656 1.2031-1.3828 2.9961-2.2422 4.7969-2.2969 2.0898-0.050781 4.168 0.92969 5.4336 2.5898 1.2656 1.6602 1.668 3.9297 1.0547 5.9258-0.36719 1.1914-1.0469 2.1328-1.918 2.6406-0.15234 0.089843-0.32422 0.16016-0.5 0.23047-0.10156 0.015624-0.19531 0.054687-0.28516 0.097656-0.64844 0.20312-1.4141 0.28125-2.3203 0.22266-1.043-0.066406-2.2969-0.82422-3.75-1.707-1.8359-1.1133-4.0586-2.4453-6.9805-3.1562l3.4062-9.9023c0.60938-1.7617 2.1211-3.0938 3.9375-3.4727l10.875-2.1523c0.035156-0.007813 0.058594-0.027344 0.089844-0.039063 0.10937-0.019531 0.22266-0.039062 0.32812-0.070312l0.14063 1.1602-2.7969 0.84375c-0.41797 0.125-0.70703 0.51172-0.71094 0.94922s0.28125 0.82812 0.69922 0.96094l4 1.2578-0.37891 1.1758z"/>
<text x="0.0" y="117.5" font-size="5.0" font-weight="bold" font-family="Arbeit Regular, Helvetica, Arial-Unicode, Arial, Sans-serif" fill="#000000">Created by Lewen Design</text><text x="0.0" y="122.5" font-size="5.0" font-weight="bold" font-family="Arbeit Regular, Helvetica, Arial-Unicode, Arial, Sans-serif" fill="#000000">from Noun Project</text></svg>