<svg xmlns="http://www.w3.org/2000/svg" xmlns:xlink="http://www.w3.org/1999/xlink" xmlns:xodm="http://www.corel.com/coreldraw/odm/2003" xml:space="preserve" version="1.1" style="shape-rendering:geometricPrecision;text-rendering:geometricPrecision;image-rendering:optimizeQuality;" viewBox="0 0 333.33 416.66249999999997" x="0px" y="0px" fill-rule="evenodd" clip-rule="evenodd"><defs><style type="text/css">
   
    .fil0 {fill:black;fill-rule:nonzero}
   
  </style></defs><g><path class="fil0" d="M318.71 97.5c5.06,0 8.75,4.72 7.62,9.6l-27.88 139.38c-0.74,3.72 -4.02,6.3 -7.67,6.3l-177.33 0c-3.87,0 -7.08,-2.81 -7.71,-6.5l-43.56 -217.81 -47.67 0c-10.29,0 -10.29,-15.65 0,-15.65l54.08 0c3.66,-0 6.93,2.57 7.67,6.3l43.6 218.01 164.5 0 24.8 -123.98 -174.79 0c-10.3,0 -10.3,-15.65 0,-15.65l184.33 0zm-162.19 67.11c-10.3,0 -10.3,-15.65 0,-15.65l104.82 0c10.3,0 10.3,15.65 0,15.65l-104.82 0zm-9.99 -25.67c-10.3,0 -10.3,-15.65 0,-15.65l104.82 0c10.3,0 10.3,15.65 0,15.65l-104.82 0zm3.22 125.41c15.5,0 28.07,12.57 28.07,28.07 0,15.5 -12.57,28.07 -28.07,28.07 -15.5,0 -28.07,-12.57 -28.07,-28.07 0,-15.5 12.57,-28.07 28.07,-28.07zm0 15.65c-6.86,0 -12.42,5.56 -12.42,12.42 0,6.86 5.56,12.42 12.42,12.42 6.86,0 12.42,-5.56 12.42,-12.42 0,-6.86 -5.56,-12.42 -12.42,-12.42zm104.72 -15.65c15.5,0 28.07,12.57 28.07,28.07 0,15.5 -12.57,28.07 -28.07,28.07 -15.5,0 -28.07,-12.57 -28.07,-28.07 0,-15.5 12.57,-28.07 28.07,-28.07zm0 15.65c-6.86,0 -12.42,5.56 -12.42,12.42 0,6.86 5.56,12.42 12.42,12.42 6.86,0 12.42,-5.56 12.42,-12.42 0,-6.86 -5.56,-12.42 -12.42,-12.42z"/></g><text x="0" y="348.33" fill="#000000" font-size="5px" font-weight="bold" font-family="'Helvetica Neue', Helvetica, Arial-Unicode, Arial, Sans-serif">Created by Zero Team0</text><text x="0" y="353.33" fill="#000000" font-size="5px" font-weight="bold" font-family="'Helvetica Neue', Helvetica, Arial-Unicode, Arial, Sans-serif">from the Noun Project</text></svg>