<svg xmlns="http://www.w3.org/2000/svg" version="1.1" viewBox="-5.0 -10.0 110.0 135.0">
 <path d="m83.398 97.5h-57.863c-3.4609 0-5.2461-4.1992-2.7344-6.7227l8.4023-8.4961c2.6289-2.7344 4.1992-6.3008 4.1992-10.09v-1.2461c0-1.2188-0.98828-2.207-2.207-2.207h-8.8125c-2.9453 0-5.3633-2.418-5.3633-5.3516v-10.711c0-0.39844-0.32422-0.71875-0.71875-0.71875h-3.2695c-2.1016 0-3.3555-2.3125-2.207-4.0938 1.1602-1.7852 2.5234-4.3047 3.8828-6.8281 1.2656-2.4062 2.3125-6.7148 2.3125-9.4453l0.10547-0.83203c1.0547-16.594 15.547-29.512 32.762-28.152 14.707 1.1523 26.57 13.02 27.824 27.723 0.59766 6.957-1.2148 13.445-4.6484 18.781-1.8242 2.8359-2.6992 6.1797-2.6992 9.5508v6.7109c0 3.9883 1.2578 7.875 3.7773 11.125l10.609 14.176c2.1055 2.8398 0.10938 6.8281-3.3516 6.8281z"/>
<text x="0.0" y="117.5" font-size="5.0" font-weight="bold" font-family="Arbeit Regular, Helvetica, Arial-Unicode, Arial, Sans-serif" fill="#000000">Created by hanifmuhammad</text><text x="0.0" y="122.5" font-size="5.0" font-weight="bold" font-family="Arbeit Regular, Helvetica, Arial-Unicode, Arial, Sans-serif" fill="#000000">from Noun Project</text></svg>