<svg xmlns="http://www.w3.org/2000/svg" xmlns:xlink="http://www.w3.org/1999/xlink" version="1.1" x="0px" y="0px" viewBox="0 0 100 125" style="enable-background:new 0 0 100 100;" xml:space="preserve"><path d="M47.7,95.1L47.5,94c-0.9-4.9-1.8-9-3-13c-0.1-0.4-0.2-0.8-0.4-1.3c-0.8-2.8-1.6-5.7-4.2-7c-2.1-1.2-4.6-0.8-7.2-0.5  c-1,0.1-2.1,0.3-3.1,0.3c-6.1,0.2-7.2-2.2-7.6-4.6c-0.2-1.2-0.1-2.4-0.1-3.2c0-0.3,0-0.6,0-0.8s-0.1-0.3-0.4-0.7  c-0.1-0.2-0.3-0.4-0.5-0.6c-0.5-0.7-0.4-1.7-0.2-2.5c-1.8-0.7-2.1-1.9-2.2-2.4c-0.1-0.4,0.1-0.9,0.3-1.8c0.1-0.3,0.2-0.7,0.3-1.1  c0-0.2,0.1-0.3,0.1-0.4c-0.1-0.1-0.4-0.2-1.1-0.3c-0.9-0.2-2.1-0.6-3-1.7c-0.3-0.4-0.8-1-0.7-1.9c0-0.7,0.5-1.4,1.1-2.3  c0.1-0.2,0.2-0.3,0.3-0.4c0.6-1.1,1.5-2.3,1.5-2.3l0.4-0.7c1-1.6,2-3.1,2.6-3.8c0.5-0.6,1-1.7,1.1-2.6c0-0.4-0.1-1.1-0.2-1.8  c-0.2-0.9-0.4-1.9-0.3-2.8c0.1-1.6,0.7-3.3,1.2-4.8l0.1-0.3c0.3-0.9,0.5-1.8,0.7-2.7c0.2-0.8,0.3-1.6,0.6-2.4  c2.2-7.7,8-13.9,15.4-16.5c3.5-1.2,7.4-1.8,12.1-1.9c1,0,2,0,3,0c4.4,0.2,8.5,0.9,12.1,2.1c5.2,1.7,9.6,4.6,12.8,8.2  c2.3,2.6,3.9,5.5,5,8.8c3.2,9.7,1.2,21.9-5.4,32.6c-0.3,0.5-0.7,1.1-1,1.6c-1.4,2.2-2.9,4.4-2.8,6.8l0,0c0.3,4.7,1.7,6.6,3.5,9.2  l0.2,0.3c0.7,1,1.7,2.1,2.9,3.4l0.8,0.9l-1,0.7c-10,6.6-20.8,11.6-32.4,15L47.7,95.1z M36.3,69.9c1.6,0,3.1,0.2,4.6,1.1  c3.2,1.8,4.2,5.2,5.1,8.2c0.1,0.4,0.2,0.8,0.4,1.2c1.2,3.8,2,7.6,2.8,12.1c10.6-3.2,20.6-7.9,29.8-13.8c-0.9-1-1.7-2-2.3-2.8  l-0.2-0.3c-1.8-2.6-3.4-4.9-3.8-10.2l0,0c-0.2-3,1.5-5.5,3.1-8c0.3-0.5,0.7-1,1-1.5c6.3-10.2,8.2-21.8,5.2-31c-1-3-2.5-5.7-4.6-8.1  c-2.9-3.3-7.1-6-11.9-7.6C62,8.1,58.2,7.4,54,7.2c-0.9,0-1.9,0-2.9,0C46.6,7.3,42.9,7.9,39.6,9c-6.8,2.4-12.1,8-14.2,15.1  c-0.2,0.7-0.4,1.5-0.5,2.3c-0.2,1-0.4,2-0.7,3l-0.1,0.3c-0.5,1.4-1,2.9-1.1,4.3c0,0.6,0.1,1.5,0.3,2.3c0.2,0.9,0.3,1.7,0.3,2.3  c-0.1,1.3-0.7,2.8-1.6,3.7c-0.5,0.6-1.7,2.4-2.4,3.5l-0.5,0.7c0,0-0.9,1.2-1.4,2.2c-0.1,0.1-0.2,0.3-0.3,0.5  c-0.2,0.3-0.7,1.1-0.8,1.4c0,0.1,0.1,0.3,0.3,0.6c0.4,0.5,0.9,0.8,1.8,1c1.2,0.3,1.9,0.5,2.4,1.2c0.4,0.6,0.3,1.2,0.2,1.9  c-0.1,0.4-0.2,0.8-0.3,1.1c-0.1,0.4-0.2,0.9-0.2,1.1l0,0c0,0,0.2,0.6,1.7,1l1.2,0.3l-0.5,1.1c-0.3,0.6-0.5,1.3-0.4,1.6  c0.1,0.1,0.2,0.2,0.3,0.4c0.4,0.5,0.9,1,0.9,1.9c0,0.2,0,0.5,0,0.9c0,0.8,0,1.9,0.1,2.9c0.2,1.4,0.4,3.1,5.5,2.9  c0.9,0,1.9-0.2,2.9-0.3C33.8,70,35.1,69.9,36.3,69.9z"/><text x="0" y="115" fill="#000000" font-size="5px" font-weight="bold" font-family="'Helvetica Neue', Helvetica, Arial-Unicode, Arial, Sans-serif">Created by frederick allen</text><text x="0" y="120" fill="#000000" font-size="5px" font-weight="bold" font-family="'Helvetica Neue', Helvetica, Arial-Unicode, Arial, Sans-serif">from the Noun Project</text></svg>