<svg xmlns="http://www.w3.org/2000/svg" version="1.1" viewBox="-5.0 -10.0 110.0 135.0">
 <path d="m83.477 67.66h-47.039c-0.44922 0-0.83594-0.30469-0.9375-0.75391l-11.27-48.766-10.965 0.039063c-0.55078 0-0.97656-0.42578-0.97656-0.95703 0-0.52734 0.42578-0.97656 0.95703-0.97656l11.738-0.039063c0.44922 0 0.83594 0.30469 0.9375 0.75391l11.293 48.766h46.266c0.52734 0 0.97656 0.42578 0.97656 0.97656s-0.44922 0.95703-0.97656 0.95703z" fill-rule="evenodd"/>
 <path d="m78.633 61.902h-43.52c-0.52734 0-0.97656-0.42578-0.97656-0.97656s0.42578-0.97656 0.97656-0.97656h42.785l7.7734-26.836c0.22266-0.77344 0.082031-1.5859-0.40625-2.2383s-1.2422-1.0156-2.0547-1.0156h-55.523c-0.52734 0-0.97656-0.42578-0.97656-0.97656 0-0.55078 0.42578-0.97656 0.97656-0.97656h55.523c1.4258 0 2.7461 0.65234 3.6016 1.7891 0.85547 1.1406 1.1172 2.5625 0.71094 3.9453l-7.9766 27.527c-0.12109 0.44531-0.48828 0.73047-0.91406 0.73047z" fill-rule="evenodd"/>
 <path d="m73.977 83.793c-3.8242 0-6.9375-3.1133-6.9375-6.9375s3.1133-6.9375 6.9375-6.9375c3.8242 0 6.9375 3.1133 6.9375 6.9375s-3.1328 6.9375-6.9375 6.9375zm0-11.922c-2.7461 0-5.0039 2.2383-5.0039 5.0039 0 2.7461 2.2383 5.0039 5.0039 5.0039 2.7656 0 5.0039-2.2383 5.0039-5.0039-0.019531-2.7656-2.2578-5.0039-5.0039-5.0039z" fill-rule="evenodd"/>
 <path d="m72.203 72.137c-0.52734 0-0.97656-0.42578-0.97656-0.97656v-4.4766c0-0.52734 0.42578-0.97656 0.97656-0.97656s0.97656 0.42578 0.97656 0.97656v4.4766c-0.019532 0.55078-0.44922 0.97656-0.97656 0.97656z" fill-rule="evenodd"/>
 <path d="m75.746 72.137c-0.52734 0-0.97656-0.42578-0.97656-0.97656v-4.4766c0-0.52734 0.42578-0.97656 0.97656-0.97656 0.55078 0 0.97656 0.42578 0.97656 0.97656v4.4766c-0.019531 0.55078-0.44922 0.97656-0.97656 0.97656z" fill-rule="evenodd"/>
 <path d="m43.07 61.902c-0.42578 0-0.8125-0.28516-0.9375-0.73438l-8.2617-32.023c-0.14453-0.50781 0.18359-1.0391 0.69141-1.1797 0.50781-0.14453 1.0391 0.18359 1.1797 0.69141l8.2617 32.023c0.14453 0.50781-0.18359 1.0391-0.69141 1.1797-0.10156 0.019531-0.18359 0.039063-0.24609 0.039063z" fill-rule="evenodd"/>
 <path d="m53.527 61.902c-0.42578 0-0.8125-0.28516-0.9375-0.71094l-8.3828-32.043c-0.14453-0.50781 0.18359-1.0391 0.69141-1.1797 0.50781-0.14453 1.0391 0.18359 1.1797 0.69141l8.3828 32.023c0.14453 0.50781-0.18359 1.0391-0.69141 1.1797-0.082031 0.019531-0.16406 0.039063-0.24609 0.039063z" fill-rule="evenodd"/>
 <path d="m64.066 61.902c-0.42578 0-0.8125-0.28516-0.9375-0.71094l-8.5664-32.023c-0.14453-0.50781 0.16406-1.0391 0.69141-1.1797 0.50781-0.14453 1.0391 0.16406 1.1797 0.69141l8.5664 32.023c0.14453 0.50781-0.16406 1.0391-0.69141 1.1797-0.082032 0-0.16406 0.019532-0.24609 0.019532z" fill-rule="evenodd"/>
 <path d="m73.547 61.902c-0.42578 0-0.83594-0.30469-0.9375-0.73438l-7.7109-32.023c-0.12109-0.52734 0.20312-1.0391 0.71094-1.1602s1.0391 0.20312 1.1602 0.71094l7.7109 32.023c0.12109 0.52734-0.20312 1.0391-0.71094 1.1602-0.082031 0-0.16406 0.019532-0.22266 0.019532z" fill-rule="evenodd"/>
 <path d="m81.016 53.723c-0.44922 0-0.85547-0.32422-0.95703-0.77344l-4.8203-23.844c-0.10156-0.52734 0.22266-1.0391 0.75391-1.1406 0.52734-0.10156 1.0391 0.22266 1.1406 0.75391l4.8203 23.844c0.10156 0.52734-0.22266 1.0391-0.75391 1.1406-0.0625 0-0.12109 0.019531-0.18359 0.019531z" fill-rule="evenodd"/>
 <path d="m44.801 83.793c-3.8242 0-6.9375-3.1133-6.9375-6.9375s3.1133-6.9375 6.9375-6.9375 6.9375 3.1133 6.9375 6.9375-3.1328 6.9375-6.9375 6.9375zm0-11.922c-2.7461 0-5.0039 2.2383-5.0039 5.0039 0 2.7461 2.2383 5.0039 5.0039 5.0039 2.7461 0 5.0039-2.2383 5.0039-5.0039-0.019532-2.7656-2.2578-5.0039-5.0039-5.0039z" fill-rule="evenodd"/>
 <path d="m43.031 72.137c-0.52734 0-0.97656-0.42578-0.97656-0.97656v-4.4766c0-0.52734 0.42578-0.97656 0.97656-0.97656s0.97656 0.42578 0.97656 0.97656v4.4766c-0.019531 0.55078-0.44922 0.97656-0.97656 0.97656z" fill-rule="evenodd"/>
 <path d="m46.57 72.137c-0.52734 0-0.97656-0.42578-0.97656-0.97656v-4.4766c0-0.52734 0.42578-0.97656 0.97656-0.97656 0.55078 0 0.97656 0.42578 0.97656 0.97656v4.4766c-0.019531 0.55078-0.44922 0.97656-0.97656 0.97656z" fill-rule="evenodd"/>
<text x="0.0" y="117.5" font-size="5.0" font-weight="bold" font-family="Arbeit Regular, Helvetica, Arial-Unicode, Arial, Sans-serif" fill="#000000">Created by Junaid Ali</text><text x="0.0" y="122.5" font-size="5.0" font-weight="bold" font-family="Arbeit Regular, Helvetica, Arial-Unicode, Arial, Sans-serif" fill="#000000">from Noun Project</text></svg>