<svg xmlns="http://www.w3.org/2000/svg" version="1.1" viewBox="-5.0 -10.0 110.0 135.0">
 <path d="m34.824 8.5781c-10.008 0-19.449 4.6523-25.539 12.594-6.0938 7.9414-8.1484 18.262-5.5586 27.93 2.5898 9.668 9.5312 17.582 18.777 21.41 9.2461 3.832 19.746 3.1445 28.414-1.8594s14.516-13.758 15.824-23.68c1.3047-9.9219-2.0781-19.887-9.1562-26.965-6.0273-6.0469-14.223-9.4414-22.762-9.4297zm30 71.57v-0.003907c5.7969-1.0859 9.8906-6.3047 9.5625-12.195l11.969 11.969c2.5078 2.5 3.2617 6.2656 1.9062 9.5391-1.3594 3.2695-4.5547 5.3984-8.0938 5.3906-2.3242 0.007813-4.5508-0.91406-6.1914-2.5547l-11.977-11.961c0.94141 0.050781 1.8867-0.011719 2.8164-0.1875zm-4.0625-16.684 5.7461 5.7461c0 1.793-1.4531 3.2461-3.2461 3.2461l-5.7461-5.7461c0.57031-0.5 1.1289-1.0234 1.6758-1.5703 0.54688-0.54297 1.0703-1.1016 1.5703-1.6758zm-25.938-48.48c8.0195 0 15.578 3.7266 20.461 10.09 4.8828 6.3594 6.5273 14.629 4.4531 22.375-2.0781 7.7422-7.6367 14.082-15.043 17.152-7.4062 3.0664-15.82 2.5156-22.766-1.4922-6.9414-4.0117-11.625-11.02-12.672-18.969-1.0469-7.9492 1.6641-15.934 7.332-21.605 4.832-4.8398 11.395-7.5586 18.234-7.5508zm-19.84 5.9453c6.168-6.168 14.852-9.1172 23.5-7.9766 8.6484 1.1367 16.277 6.2344 20.637 13.789 4.3633 7.5547 4.9609 16.707 1.6211 24.766-3.3359 8.0586-10.234 14.105-18.66 16.363-8.4258 2.2578-17.422 0.46875-24.34-4.8398-6.9219-5.3125-10.977-13.539-10.977-22.262-0.011719-7.4414 2.9453-14.582 8.2188-19.84zm50.461 44c1.9922-0.57813 4.1172-0.48828 6.0508 0.26172 1.3516 3.4961 0.51562 7.4609-2.1367 10.113-2.6484 2.6484-6.6133 3.4883-10.113 2.1367-0.74609-1.9336-0.83984-4.0586-0.26172-6.0508l2.9766 2.9766c0.19922 0.19922 0.46875 0.32031 0.75 0.33203 1.6602 0.16016 3.3008-0.43359 4.4727-1.6172 1.168-1.1836 1.7422-2.832 1.5625-4.4883-0.027344-0.25781-0.14062-0.5-0.32422-0.68359l-2.9766-2.9766zm-19.727-36.23c0.64844 0.003906 1.1758 0.52734 1.1758 1.1758v21.793c-0.003906 0.64844-0.52734 1.1719-1.1758 1.1758h-21.789c-0.64844-0.003906-1.1758-0.53125-1.1758-1.1797v-21.789c0-0.64844 0.52734-1.1719 1.1758-1.1758zm-21.727 21.77v-19.395c0-0.62891 0.50781-1.1367 1.1367-1.1367h19.398c0.625 0 1.1367 0.50781 1.1367 1.1367v19.395c0 0.625-0.51172 1.1367-1.1367 1.1367h-19.398c-0.30469 0-0.59375-0.12109-0.80469-0.33203-0.21484-0.21484-0.33203-0.50391-0.33203-0.80469zm2.2734-18.258h17.117v17.121h-17.117zm-10.477-0.39844c-0.61328-0.015625-1.1016-0.51953-1.1016-1.1367 0-0.61328 0.48828-1.1172 1.1016-1.1367h4.7109c0.16406-1.6367 1.457-2.9336 3.0977-3.0977v-4.707c0-0.62891 0.50781-1.1367 1.1367-1.1367 0.625 0 1.1367 0.50781 1.1367 1.1367v4.6914h2.7734v-4.6914c0-0.62891 0.50781-1.1367 1.1367-1.1367 0.625 0 1.1367 0.50781 1.1367 1.1367v4.6914h2.7656v-4.6914c0-0.62891 0.50781-1.1367 1.1367-1.1367 0.62891 0 1.1367 0.50781 1.1367 1.1367v4.6914h2.7812v-4.6914c0-0.62891 0.50781-1.1367 1.1367-1.1367 0.625 0 1.1367 0.50781 1.1367 1.1367v4.6914h2.7734v-4.6914c0-0.62891 0.50781-1.1367 1.1367-1.1367s1.1367 0.50781 1.1367 1.1367v4.707c1.6367 0.16406 2.9336 1.457 3.0977 3.0977h4.7109c0.61328 0.019532 1.1016 0.52344 1.1016 1.1367 0 0.61719-0.48828 1.1211-1.1016 1.1367h-4.6992v2.7734h4.6914c0.62891 0 1.1367 0.50781 1.1367 1.1367s-0.50781 1.1367-1.1367 1.1367h-4.6914v2.7734h4.6914c0.62891 0 1.1367 0.51172 1.1367 1.1367 0 0.62891-0.50781 1.1367-1.1367 1.1367h-4.6914v2.7734h4.6914c0.62891 0 1.1367 0.51172 1.1367 1.1367 0 0.62891-0.50781 1.1367-1.1367 1.1367h-4.6914v2.7734h4.6914c0.62891 0 1.1367 0.51172 1.1367 1.1406 0 0.625-0.50781 1.1367-1.1367 1.1367h-4.7031c-0.16406 1.6367-1.457 2.9297-3.0938 3.0938v4.7109c0 0.625-0.51172 1.1367-1.1367 1.1367-0.62891 0-1.1367-0.51172-1.1367-1.1367v-4.6914h-2.7812v4.6914c0 0.625-0.50781 1.1367-1.1367 1.1367s-1.1367-0.51172-1.1367-1.1367v-4.6914h-2.7734v4.6914c0 0.625-0.50781 1.1367-1.1367 1.1367-0.62891 0-1.1367-0.51172-1.1367-1.1367v-4.6914h-2.7734v4.6914c0 0.625-0.50781 1.1367-1.1367 1.1367s-1.1367-0.51172-1.1367-1.1367v-4.6914h-2.7734v4.6914c0 0.625-0.51172 1.1367-1.1367 1.1367-0.62891 0-1.1367-0.51172-1.1367-1.1367v-4.7109c-1.6406-0.16406-2.9336-1.4609-3.0977-3.0977h-4.707c-0.62891 0-1.1367-0.50781-1.1367-1.1367 0-0.62891 0.50781-1.1367 1.1367-1.1367h4.6914v-2.7734h-4.6914c-0.62891 0-1.1367-0.50781-1.1367-1.1367 0-0.625 0.50781-1.1367 1.1367-1.1367h4.6914v-2.7734h-4.6914c-0.62891 0-1.1367-0.50781-1.1367-1.1367 0-0.625 0.50781-1.1367 1.1367-1.1367h4.6914v-2.7734h-4.6914c-0.62891 0-1.1367-0.50781-1.1367-1.1367s0.50781-1.1367 1.1367-1.1367h4.6914v-2.7734zm71.016 30.652h-7.7539c-0.77344 0-1.4883-0.41406-1.875-1.0859l-4.2812-7.4141h-6.0195c0.30859-0.74609 0.58984-1.5039 0.84375-2.2734h5.2344c0.77344 0 1.4883 0.41406 1.875 1.0859l4.2812 7.4141h7.6914c0.57812-2.668 3.0781-4.4688 5.7891-4.1758 2.7148 0.28906 4.7734 2.582 4.7734 5.3125 0 2.7266-2.0586 5.0195-4.7734 5.3125-2.7109 0.28906-5.2109-1.5117-5.7891-4.1758zm-5.2461-18.445c0.57812 2.6641 3.0781 4.4648 5.7891 4.1758 2.7148-0.29297 4.7734-2.5859 4.7734-5.3125 0-2.7305-2.0586-5.0234-4.7734-5.3125-2.7109-0.29297-5.2109 1.5078-5.7891 4.1758h-12.094c-0.019532 0.76172-0.066406 1.5195-0.13672 2.2734zm-2.8945-12.07v-16.238c2.668-0.58203 4.4688-3.0781 4.1758-5.793-0.29297-2.7148-2.582-4.7695-5.3125-4.7695-2.7305 0-5.0195 2.0547-5.3125 4.7695-0.29297 2.7148 1.5078 5.2109 4.1758 5.793v16.133h-8.0742c0.19922 0.75 0.375 1.5078 0.52734 2.2734h7.6562-0.003906c1.1953-0.003907 2.1641-0.97266 2.168-2.168z" fill-rule="evenodd"/>
<text x="0.0" y="117.5" font-size="5.0" font-weight="bold" font-family="Arbeit Regular, Helvetica, Arial-Unicode, Arial, Sans-serif" fill="#000000">Created by yieshazea2</text><text x="0.0" y="122.5" font-size="5.0" font-weight="bold" font-family="Arbeit Regular, Helvetica, Arial-Unicode, Arial, Sans-serif" fill="#000000">from Noun Project</text></svg>