<svg xmlns="http://www.w3.org/2000/svg" version="1.1" viewBox="-5.0 -10.0 110.0 135.0">
 <path d="m36.875 3.332c18.492 0 33.543 15.051 33.543 33.543s-15.051 33.543-33.543 33.543-33.543-15.051-33.543-33.543 15.051-33.543 33.543-33.543m0-3.332c-20.367 0-36.875 16.508-36.875 36.875s16.508 36.875 36.875 36.875 36.875-16.508 36.875-36.875-16.508-36.875-36.875-36.875z"/>
 <path d="m98.332 100c-0.42578 0-0.85156-0.16797-1.1758-0.49219l-35.832-35.832c-0.64844-0.64844-0.64844-1.707 0-2.3594 0.64844-0.64844 1.707-0.64844 2.3594 0l35.832 35.832c0.64844 0.64844 0.64844 1.707 0 2.3594-0.32422 0.32422-0.75 0.49219-1.1758 0.49219z"/>
<text x="0.0" y="117.5" font-size="5.0" font-weight="bold" font-family="Arbeit Regular, Helvetica, Arial-Unicode, Arial, Sans-serif" fill="#000000">Created by ofir bashary</text><text x="0.0" y="122.5" font-size="5.0" font-weight="bold" font-family="Arbeit Regular, Helvetica, Arial-Unicode, Arial, Sans-serif" fill="#000000">from Noun Project</text></svg>