<svg xmlns="http://www.w3.org/2000/svg" version="1.1" viewBox="-5.0 -10.0 110.0 135.0">
 <path d="m41.996 15c-14.898 0-26.996 12.098-26.996 26.996 0 14.898 12.098 26.996 26.996 26.996 7.0859 0 13.555-2.7422 18.371-7.2188l22.902 22.934c0.39062 0.39062 1.0469 0.39062 1.4375 0s0.39062-1.0469 0-1.4375l-22.934-22.902c4.4766-4.8203 7.2188-11.285 7.2188-18.371 0-14.898-12.098-26.996-26.996-26.996zm0 2c13.816 0 24.996 11.18 24.996 24.996s-11.18 24.996-24.996 24.996-24.996-11.18-24.996-24.996 11.18-24.996 24.996-24.996z"/>
<text x="0.0" y="117.5" font-size="5.0" font-weight="bold" font-family="Arbeit Regular, Helvetica, Arial-Unicode, Arial, Sans-serif" fill="#000000">Created by Aya Sofya</text><text x="0.0" y="122.5" font-size="5.0" font-weight="bold" font-family="Arbeit Regular, Helvetica, Arial-Unicode, Arial, Sans-serif" fill="#000000">from Noun Project</text></svg>