<svg width="110" height="135" viewBox="0 0 110 135" fill="none" xmlns="http://www.w3.org/2000/svg">
<g clip-path="url(#clip0_9_25)">
<path fill-rule="evenodd" clip-rule="evenodd" d="M39.824 18.5781C29.816 18.5781 20.375 23.2304 14.285 31.1721C8.1912 39.1135 6.1366 49.4341 8.7264 59.1021C11.3162 68.7701 18.2576 76.6841 27.5034 80.5121C36.7495 84.3441 47.2494 83.6566 55.9174 78.6527C64.5854 73.6488 70.4334 64.8947 71.7414 54.9727C73.0461 45.0508 69.6633 35.0857 62.5852 28.0077C56.5579 21.9608 48.363 18.5664 39.824 18.5781ZM69.824 90.1481V90.1442C75.6209 89.0583 79.7146 83.8395 79.3865 77.9492L91.3555 89.9182C93.8633 92.4182 94.6172 96.1838 93.2617 99.4573C91.9023 102.727 88.707 104.856 85.1679 104.848C82.8437 104.856 80.6171 103.934 78.9765 102.293L66.9995 90.3322C67.9409 90.383 68.8862 90.3205 69.8159 90.1447L69.824 90.1481ZM65.7615 73.4641L71.5076 79.2102C71.5076 81.0032 70.0545 82.4563 68.2615 82.4563L62.5154 76.7102C63.0857 76.2102 63.6443 75.6868 64.1912 75.1399C64.7381 74.5969 65.2615 74.0383 65.7615 73.4641ZM39.8235 24.9841C47.843 24.9841 55.4015 28.7107 60.2845 35.0741C65.1673 41.4335 66.8118 49.7031 64.7376 57.4491C62.6595 65.1913 57.1009 71.5311 49.6946 74.6011C42.2884 77.6675 33.8746 77.1167 26.9286 73.1089C19.9872 69.0972 15.3036 62.0889 14.2566 54.1399C13.2097 46.1907 15.9207 38.2059 21.5886 32.5349C26.4206 27.6951 32.9845 24.9763 39.8235 24.9841ZM19.9835 30.9294C26.1515 24.7614 34.8355 21.8122 43.4835 22.9528C52.1319 24.0895 59.7605 29.1872 64.1205 36.7418C68.4838 44.2965 69.0814 53.4488 65.7416 61.5078C62.4057 69.5664 55.5076 75.6128 47.0816 77.8708C38.6558 80.1286 29.6596 78.3396 22.7416 73.031C15.8197 67.7185 11.7646 59.492 11.7646 50.769C11.7529 43.3276 14.71 36.1874 19.9835 30.9294ZM70.4445 74.9294C72.4367 74.3513 74.5617 74.4411 76.4953 75.1911C77.8469 78.6872 77.0109 82.652 74.3586 85.3041C71.7102 87.9525 67.7453 88.7924 64.2456 87.4408C63.4995 85.5072 63.4058 83.3822 63.9839 81.39L66.9605 84.3666C67.1597 84.5659 67.4292 84.6869 67.7105 84.6987C69.3707 84.8588 71.0113 84.2651 72.1832 83.0815C73.3512 81.8979 73.9254 80.2495 73.7457 78.5932C73.7183 78.3354 73.6051 78.0932 73.4215 77.9096L70.4449 74.933L70.4445 74.9294ZM50.7175 38.6994C51.3659 38.7033 51.8933 39.2268 51.8933 39.8752V61.6682C51.8894 62.3167 51.366 62.8401 50.7175 62.844H28.9285C28.2801 62.8401 27.7527 62.3128 27.7527 61.6643V39.8753C27.7527 39.2269 28.28 38.7034 28.9285 38.6995L50.7175 38.6994ZM28.9905 60.4694V41.0744C28.9905 40.4455 29.4983 39.9377 30.1272 39.9377H49.5252C50.1502 39.9377 50.6619 40.4455 50.6619 41.0744V60.4694C50.6619 61.0944 50.1502 61.6061 49.5252 61.6061H30.1272C29.8225 61.6061 29.5334 61.485 29.3225 61.2741C29.1077 61.0592 28.9905 60.7702 28.9905 60.4694ZM31.2639 42.2114H48.3809V59.3324H31.2639V42.2114ZM20.7869 41.813C20.1736 41.7973 19.6853 41.2934 19.6853 40.6763C19.6853 40.063 20.1736 39.5591 20.7869 39.5396H25.4978C25.6619 37.9029 26.9548 36.606 28.5955 36.4419V31.7349C28.5955 31.106 29.1033 30.5982 29.7322 30.5982C30.3572 30.5982 30.8689 31.106 30.8689 31.7349V36.4263H33.6423V31.7349C33.6423 31.106 34.1501 30.5982 34.779 30.5982C35.404 30.5982 35.9157 31.106 35.9157 31.7349V36.4263H38.6813V31.7349C38.6813 31.106 39.1891 30.5982 39.818 30.5982C40.4469 30.5982 40.9547 31.106 40.9547 31.7349V36.4263H43.7359V31.7349C43.7359 31.106 44.2437 30.5982 44.8726 30.5982C45.4976 30.5982 46.0093 31.106 46.0093 31.7349V36.4263H48.7827V31.7349C48.7827 31.106 49.2905 30.5982 49.9194 30.5982C50.5483 30.5982 51.0561 31.106 51.0561 31.7349V36.4419C52.6928 36.6059 53.9897 37.8989 54.1538 39.5396H58.8647C59.478 39.5591 59.9663 40.063 59.9663 40.6763C59.9663 41.2935 59.478 41.7974 58.8647 41.813H54.1655V44.5864H58.8569C59.4858 44.5864 59.9936 45.0942 59.9936 45.7231C59.9936 46.352 59.4858 46.8598 58.8569 46.8598H54.1655V49.6332H58.8569C59.4858 49.6332 59.9936 50.1449 59.9936 50.7699C59.9936 51.3988 59.4858 51.9066 58.8569 51.9066H54.1655V54.68H58.8569C59.4858 54.68 59.9936 55.1917 59.9936 55.8167C59.9936 56.4456 59.4858 56.9534 58.8569 56.9534H54.1655V59.7268H58.8569C59.4858 59.7268 59.9936 60.2385 59.9936 60.8674C59.9936 61.4924 59.4858 62.0041 58.8569 62.0041H54.1538C53.9897 63.6408 52.6968 64.9338 51.06 65.0979V69.8088C51.06 70.4338 50.5483 70.9455 49.9233 70.9455C49.2944 70.9455 48.7866 70.4338 48.7866 69.8088V65.1174H46.0054V69.8088C46.0054 70.4338 45.4976 70.9455 44.8687 70.9455C44.2398 70.9455 43.732 70.4338 43.732 69.8088V65.1174H40.9586V69.8088C40.9586 70.4338 40.4508 70.9455 39.8219 70.9455C39.193 70.9455 38.6852 70.4338 38.6852 69.8088V65.1174H35.9118V69.8088C35.9118 70.4338 35.404 70.9455 34.7751 70.9455C34.1462 70.9455 33.6384 70.4338 33.6384 69.8088V65.1174H30.865V69.8088C30.865 70.4338 30.3533 70.9455 29.7283 70.9455C29.0994 70.9455 28.5916 70.4338 28.5916 69.8088V65.0979C26.951 64.9338 25.658 63.637 25.4939 62.0002H20.7869C20.158 62.0002 19.6502 61.4924 19.6502 60.8635C19.6502 60.2346 20.158 59.7268 20.7869 59.7268H25.4783V56.9534H20.7869C20.158 56.9534 19.6502 56.4456 19.6502 55.8167C19.6502 55.1917 20.158 54.68 20.7869 54.68H25.4783V51.9066H20.7869C20.158 51.9066 19.6502 51.3988 19.6502 50.7699C19.6502 50.1449 20.158 49.6332 20.7869 49.6332H25.4783V46.8598H20.7869C20.158 46.8598 19.6502 46.352 19.6502 45.7231C19.6502 45.0942 20.158 44.5864 20.7869 44.5864H25.4783V41.813H20.7869ZM91.8029 72.465H84.049C83.2756 72.465 82.5607 72.0509 82.174 71.3791L77.8928 63.965H71.8733C72.1819 63.2189 72.4631 62.4611 72.717 61.6916H77.9514C78.7249 61.6916 79.4397 62.1056 79.8264 62.7775L84.1077 70.1916H91.799C92.3772 67.5236 94.8772 65.7228 97.5882 66.0158C100.303 66.3048 102.362 68.5978 102.362 71.3283C102.362 74.0549 100.303 76.3478 97.5882 76.6408C94.8772 76.9298 92.3772 75.1291 91.799 72.465H91.8029ZM86.5568 54.02C87.1349 56.6841 89.6349 58.4848 92.3459 58.1958C95.0607 57.9028 97.1193 55.6099 97.1193 52.8833C97.1193 50.1528 95.0607 47.8599 92.3459 47.5708C89.635 47.2778 87.135 49.0786 86.5568 51.7466H74.4628C74.4433 52.5083 74.3964 53.2661 74.3261 54.02H86.5568ZM83.6623 41.95V25.712C86.3303 25.1299 88.1311 22.6339 87.8381 19.919C87.5451 17.2042 85.2561 15.1495 82.5256 15.1495C79.7951 15.1495 77.5061 17.2042 77.2131 19.919C76.9201 22.6338 78.7209 25.1299 81.3889 25.712V41.845H73.3147C73.5139 42.595 73.6897 43.3528 73.842 44.1184H81.4982H81.4943C82.6896 44.1145 83.6584 43.1453 83.6623 41.95Z" fill="black"/>
<path d="M8.5245 125.137H7.7468C7.7326 125.036 7.7036 124.947 7.6598 124.869C7.616 124.789 7.55978 124.722 7.49112 124.666C7.42247 124.611 7.34316 124.568 7.2532 124.538C7.16442 124.509 7.06795 124.494 6.96378 124.494C6.77557 124.494 6.61162 124.541 6.47195 124.634C6.33227 124.727 6.22396 124.862 6.14702 125.039C6.07008 125.215 6.03161 125.43 6.03161 125.682C6.03161 125.941 6.07008 126.159 6.14702 126.335C6.22514 126.512 6.33404 126.645 6.47372 126.735C6.6134 126.825 6.77498 126.87 6.95845 126.87C7.06143 126.87 7.15672 126.856 7.24432 126.829C7.3331 126.802 7.41181 126.762 7.48047 126.71C7.54912 126.657 7.60594 126.592 7.65092 126.516C7.69709 126.441 7.72905 126.354 7.7468 126.257L8.5245 126.261C8.50438 126.428 8.45407 126.589 8.37358 126.744C8.29427 126.897 8.18714 127.035 8.0522 127.157C7.91844 127.278 7.75864 127.374 7.5728 127.445C7.38814 127.515 7.17921 127.55 6.94602 127.55C6.62169 127.55 6.33168 127.476 6.07599 127.33C5.8215 127.183 5.62027 126.97 5.4723 126.692C5.32552 126.414 5.25213 126.077 5.25213 125.682C5.25213 125.285 5.3267 124.948 5.47585 124.67C5.625 124.392 5.82741 124.18 6.0831 124.034C6.33878 123.887 6.62642 123.814 6.94602 123.814C7.15672 123.814 7.35204 123.844 7.53196 123.903C7.71307 123.962 7.87346 124.048 8.01314 124.162C8.15282 124.274 8.26645 124.412 8.35405 124.576C8.44283 124.739 8.49964 124.926 8.5245 125.137ZM9.06161 127.5V124.773H9.79492V125.249H9.82333C9.87305 125.079 9.9565 124.951 10.0737 124.865C10.1909 124.777 10.3258 124.734 10.4785 124.734C10.5164 124.734 10.5572 124.736 10.601 124.741C10.6448 124.746 10.6833 124.752 10.7164 124.76V125.431C10.6809 125.421 10.6318 125.411 10.5691 125.403C10.5063 125.395 10.4489 125.391 10.3968 125.391C10.2856 125.391 10.1861 125.415 10.0985 125.463C10.0121 125.511 9.94348 125.577 9.89258 125.662C9.84286 125.748 9.818 125.846 9.818 125.957V127.5H9.06161ZM12.2235 127.553C11.9429 127.553 11.7014 127.496 11.499 127.383C11.2978 127.268 11.1427 127.106 11.0338 126.896C10.9249 126.686 10.8705 126.436 10.8705 126.149C10.8705 125.868 10.9249 125.622 11.0338 125.41C11.1427 125.198 11.296 125.033 11.4937 124.915C11.6926 124.796 11.9258 124.737 12.1933 124.737C12.3732 124.737 12.5407 124.766 12.6958 124.824C12.852 124.881 12.9881 124.967 13.1041 125.082C13.2213 125.196 13.3125 125.341 13.3776 125.515C13.4427 125.688 13.4752 125.89 13.4752 126.122V126.33H11.1723V125.861H12.7632C12.7632 125.752 12.7396 125.656 12.6922 125.572C12.6449 125.488 12.5792 125.422 12.4951 125.375C12.4123 125.326 12.3158 125.302 12.2057 125.302C12.0909 125.302 11.9891 125.328 11.9003 125.382C11.8127 125.434 11.7441 125.504 11.6943 125.593C11.6446 125.681 11.6192 125.778 11.618 125.886V126.332C11.618 126.467 11.6428 126.583 11.6926 126.681C11.7435 126.78 11.8151 126.855 11.9074 126.909C11.9997 126.962 12.1092 126.989 12.2359 126.989C12.3199 126.989 12.3969 126.977 12.4667 126.953C12.5365 126.929 12.5963 126.894 12.646 126.847C12.6958 126.799 12.7336 126.741 12.7597 126.673L13.4593 126.719C13.4237 126.887 13.3509 127.034 13.2409 127.159C13.132 127.283 12.9911 127.38 12.8183 127.45C12.6466 127.519 12.4484 127.553 12.2235 127.553ZM14.7465 127.551C14.5725 127.551 14.4175 127.521 14.2813 127.461C14.1452 127.399 14.0375 127.309 13.9582 127.189C13.8801 127.069 13.841 126.918 13.841 126.738C13.841 126.587 13.8688 126.46 13.9244 126.357C13.9801 126.254 14.0558 126.171 14.1517 126.108C14.2476 126.045 14.3565 125.998 14.4784 125.966C14.6015 125.934 14.7306 125.911 14.8655 125.898C15.0241 125.882 15.152 125.866 15.249 125.852C15.3461 125.837 15.4165 125.814 15.4603 125.785C15.5041 125.755 15.526 125.711 15.526 125.653V125.643C15.526 125.53 15.4905 125.443 15.4195 125.382C15.3496 125.32 15.2502 125.289 15.1212 125.289C14.9851 125.289 14.8767 125.32 14.7963 125.38C14.7158 125.439 14.6625 125.514 14.6365 125.604L13.9369 125.547C13.9724 125.381 14.0422 125.238 14.1464 125.117C14.2506 124.995 14.3849 124.902 14.5494 124.837C14.7152 124.77 14.9069 124.737 15.1247 124.737C15.2762 124.737 15.4213 124.755 15.5597 124.79C15.6994 124.826 15.8231 124.881 15.9308 124.956C16.0397 125.03 16.1256 125.126 16.1883 125.243C16.251 125.359 16.2824 125.498 16.2824 125.661V127.5H15.5651V127.122H15.5438C15.5 127.207 15.4414 127.282 15.368 127.347C15.2946 127.411 15.2064 127.462 15.1034 127.498C15.0004 127.534 14.8815 127.551 14.7465 127.551ZM14.9632 127.029C15.0744 127.029 15.1727 127.008 15.2579 126.964C15.3431 126.919 15.41 126.858 15.4585 126.783C15.5071 126.707 15.5313 126.621 15.5313 126.525V126.236C15.5077 126.251 15.4751 126.265 15.4337 126.278C15.3934 126.29 15.3479 126.301 15.297 126.312C15.2461 126.322 15.1952 126.33 15.1443 126.339C15.0934 126.346 15.0472 126.352 15.0058 126.358C14.917 126.371 14.8395 126.392 14.7732 126.42C14.7069 126.449 14.6554 126.487 14.6187 126.536C14.582 126.583 14.5637 126.642 14.5637 126.713C14.5637 126.816 14.6009 126.895 14.6755 126.95C14.7513 127.003 14.8472 127.029 14.9632 127.029ZM18.3199 124.773V125.341H16.6775V124.773H18.3199ZM17.0503 124.119H17.8067V126.662C17.8067 126.732 17.8174 126.786 17.8387 126.825C17.86 126.863 17.8896 126.89 17.9275 126.905C17.9665 126.921 18.0115 126.928 18.0624 126.928C18.0979 126.928 18.1334 126.925 18.1689 126.919C18.2045 126.912 18.2317 126.907 18.2506 126.903L18.3696 127.466C18.3317 127.478 18.2784 127.492 18.2098 127.507C18.1411 127.524 18.0577 127.534 17.9594 127.537C17.7771 127.544 17.6173 127.52 17.48 127.464C17.3439 127.409 17.238 127.322 17.1622 127.205C17.0864 127.088 17.0492 126.94 17.0503 126.761V124.119ZM20.0262 127.553C19.7456 127.553 19.5042 127.496 19.3018 127.383C19.1005 127.268 18.9455 127.106 18.8366 126.896C18.7277 126.686 18.6732 126.436 18.6732 126.149C18.6732 125.868 18.7277 125.622 18.8366 125.41C18.9455 125.198 19.0988 125.033 19.2964 124.915C19.4953 124.796 19.7285 124.737 19.996 124.737C20.1759 124.737 20.3434 124.766 20.4985 124.824C20.6547 124.881 20.7909 124.967 20.9069 125.082C21.0241 125.196 21.1152 125.341 21.1803 125.515C21.2454 125.688 21.278 125.89 21.278 126.122V126.33H18.9751V125.861H20.566C20.566 125.752 20.5423 125.656 20.4949 125.572C20.4476 125.488 20.3819 125.422 20.2979 125.375C20.215 125.326 20.1185 125.302 20.0084 125.302C19.8936 125.302 19.7918 125.328 19.703 125.382C19.6154 125.434 19.5468 125.504 19.4971 125.593C19.4474 125.681 19.4219 125.778 19.4207 125.886V126.332C19.4207 126.467 19.4456 126.583 19.4953 126.681C19.5462 126.78 19.6178 126.855 19.7101 126.909C19.8025 126.962 19.912 126.989 20.0386 126.989C20.1227 126.989 20.1996 126.977 20.2694 126.953C20.3393 126.929 20.3991 126.894 20.4488 126.847C20.4985 126.799 20.5364 126.741 20.5624 126.673L21.262 126.719C21.2265 126.887 21.1537 127.034 21.0436 127.159C20.9347 127.283 20.7938 127.38 20.621 127.45C20.4494 127.519 20.2511 127.553 20.0262 127.553ZM22.7765 127.544C22.5694 127.544 22.3818 127.491 22.2137 127.385C22.0468 127.277 21.9142 127.119 21.816 126.911C21.7189 126.701 21.6704 126.444 21.6704 126.14C21.6704 125.827 21.7207 125.568 21.8213 125.36C21.9219 125.152 22.0557 124.996 22.2226 124.893C22.3907 124.789 22.5747 124.737 22.7748 124.737C22.9275 124.737 23.0547 124.763 23.1565 124.815C23.2595 124.866 23.3424 124.93 23.4051 125.007C23.469 125.083 23.5175 125.157 23.5507 125.231H23.5738V123.864H24.3284V127.5H23.5827V127.063H23.5507C23.5152 127.139 23.4649 127.214 23.3998 127.289C23.3358 127.362 23.2524 127.423 23.1494 127.472C23.0476 127.52 22.9233 127.544 22.7765 127.544ZM23.0162 126.942C23.1382 126.942 23.2412 126.909 23.3252 126.843C23.4104 126.776 23.4755 126.681 23.5205 126.561C23.5667 126.44 23.5898 126.299 23.5898 126.136C23.5898 125.974 23.5673 125.833 23.5223 125.714C23.4773 125.594 23.4122 125.502 23.327 125.437C23.2417 125.372 23.1382 125.339 23.0162 125.339C22.892 125.339 22.7872 125.373 22.702 125.44C22.6167 125.508 22.5522 125.601 22.5084 125.721C22.4646 125.84 22.4427 125.979 22.4427 126.136C22.4427 126.295 22.4646 126.435 22.5084 126.557C22.5534 126.678 22.6179 126.773 22.702 126.841C22.7872 126.909 22.892 126.942 23.0162 126.942ZM26.1217 127.5V123.864H26.8781V125.231H26.9012C26.9343 125.157 26.9823 125.083 27.045 125.007C27.1089 124.93 27.1918 124.866 27.2936 124.815C27.3966 124.763 27.5244 124.737 27.6771 124.737C27.876 124.737 28.0595 124.789 28.2275 124.893C28.3956 124.996 28.53 125.152 28.6306 125.36C28.7312 125.568 28.7815 125.827 28.7815 126.14C28.7815 126.444 28.7324 126.701 28.6341 126.911C28.5371 127.119 28.4045 127.277 28.2364 127.385C28.0695 127.491 27.8825 127.544 27.6753 127.544C27.5286 127.544 27.4037 127.52 27.3007 127.472C27.1989 127.423 27.1154 127.362 27.0503 127.289C26.9852 127.214 26.9355 127.139 26.9012 127.063H26.8675V127.5H26.1217ZM26.8621 126.136C26.8621 126.299 26.8846 126.44 26.9296 126.561C26.9746 126.681 27.0397 126.776 27.1249 126.843C27.2101 126.909 27.3137 126.942 27.4356 126.942C27.5587 126.942 27.6629 126.909 27.7481 126.841C27.8334 126.773 27.8979 126.678 27.9417 126.557C27.9867 126.435 28.0091 126.295 28.0091 126.136C28.0091 125.979 27.9872 125.84 27.9434 125.721C27.8997 125.601 27.8351 125.508 27.7499 125.44C27.6647 125.373 27.5599 125.339 27.4356 125.339C27.3125 125.339 27.2084 125.372 27.1231 125.437C27.0391 125.502 26.9746 125.594 26.9296 125.714C26.8846 125.833 26.8621 125.974 26.8621 126.136ZM29.6653 128.523C29.5694 128.523 29.4795 128.515 29.3954 128.5C29.3126 128.485 29.2439 128.467 29.1895 128.445L29.3599 127.88C29.4487 127.907 29.5286 127.922 29.5996 127.924C29.6718 127.927 29.734 127.91 29.786 127.875C29.8393 127.839 29.8825 127.779 29.9157 127.694L29.96 127.578L28.9817 124.773H29.7772L30.3418 126.776H30.3702L30.9402 124.773H31.7409L30.6809 127.795C30.63 127.942 30.5608 128.069 30.4732 128.178C30.3868 128.288 30.2773 128.373 30.1447 128.432C30.0121 128.493 29.8523 128.523 29.6653 128.523ZM33.7522 128.523C33.6563 128.523 33.5664 128.515 33.4823 128.5C33.3995 128.485 33.3308 128.467 33.2764 128.445L33.4468 127.88C33.5356 127.907 33.6155 127.922 33.6865 127.924C33.7587 127.927 33.8209 127.91 33.873 127.875C33.9262 127.839 33.9694 127.779 34.0026 127.694L34.047 127.578L33.0686 124.773H33.8641L34.4287 126.776H34.4571L35.0271 124.773H35.8279L34.7678 127.795C34.7169 127.942 34.6477 128.069 34.5601 128.178C34.4737 128.288 34.3642 128.373 34.2316 128.432C34.099 128.493 33.9392 128.523 33.7522 128.523ZM36.2149 127.5V124.773H36.9713V127.5H36.2149ZM36.5949 124.421C36.4825 124.421 36.386 124.384 36.3055 124.309C36.2262 124.234 36.1865 124.143 36.1865 124.038C36.1865 123.933 36.2262 123.844 36.3055 123.77C36.386 123.694 36.4825 123.656 36.5949 123.656C36.7074 123.656 36.8032 123.694 36.8825 123.77C36.963 123.844 37.0033 123.933 37.0033 124.038C37.0033 124.143 36.963 124.234 36.8825 124.309C36.8032 124.384 36.7074 124.421 36.5949 124.421ZM38.8201 127.553C38.5396 127.553 38.2981 127.496 38.0957 127.383C37.8945 127.268 37.7394 127.106 37.6305 126.896C37.5216 126.686 37.4672 126.436 37.4672 126.149C37.4672 125.868 37.5216 125.622 37.6305 125.41C37.7394 125.198 37.8927 125.033 38.0904 124.915C38.2892 124.796 38.5224 124.737 38.79 124.737C38.9699 124.737 39.1374 124.766 39.2924 124.824C39.4487 124.881 39.5848 124.967 39.7008 125.082C39.818 125.196 39.9092 125.341 39.9743 125.515C40.0394 125.688 40.0719 125.89 40.0719 126.122V126.33H37.769V125.861H39.3599C39.3599 125.752 39.3362 125.656 39.2889 125.572C39.2415 125.488 39.1758 125.422 39.0918 125.375C39.0089 125.326 38.9125 125.302 38.8024 125.302C38.6876 125.302 38.5858 125.328 38.497 125.382C38.4094 125.434 38.3407 125.504 38.291 125.593C38.2413 125.681 38.2158 125.778 38.2147 125.886V126.332C38.2147 126.467 38.2395 126.583 38.2892 126.681C38.3401 126.78 38.4118 126.855 38.5041 126.909C38.5964 126.962 38.7059 126.989 38.8326 126.989C38.9166 126.989 38.9935 126.977 39.0634 126.953C39.1332 126.929 39.193 126.894 39.2427 126.847C39.2924 126.799 39.3303 126.741 39.3564 126.673L40.0559 126.719C40.0204 126.887 39.9476 127.034 39.8375 127.159C39.7286 127.283 39.5878 127.38 39.415 127.45C39.2433 127.519 39.045 127.553 38.8201 127.553ZM42.8347 125.55L42.1422 125.593C42.1304 125.534 42.1049 125.481 42.0659 125.433C42.0268 125.385 41.9753 125.346 41.9114 125.318C41.8487 125.288 41.7735 125.273 41.6859 125.273C41.5687 125.273 41.4699 125.298 41.3894 125.348C41.3089 125.397 41.2686 125.462 41.2686 125.543C41.2686 125.608 41.2947 125.663 41.3468 125.708C41.3989 125.753 41.4882 125.79 41.6149 125.817L42.1085 125.916C42.3736 125.971 42.5713 126.058 42.7015 126.179C42.8317 126.3 42.8968 126.458 42.8968 126.655C42.8968 126.834 42.8442 126.99 42.7388 127.125C42.6346 127.26 42.4914 127.366 42.3091 127.441C42.128 127.516 41.9191 127.553 41.6824 127.553C41.3213 127.553 41.0337 127.478 40.8194 127.328C40.6064 127.176 40.4815 126.97 40.4448 126.71L41.1887 126.671C41.2112 126.781 41.2657 126.865 41.3521 126.923C41.4385 126.98 41.5492 127.008 41.6841 127.008C41.8167 127.008 41.9232 126.983 42.0037 126.932C42.0854 126.88 42.1268 126.813 42.128 126.731C42.1268 126.663 42.0978 126.606 42.041 126.562C41.9842 126.518 41.8966 126.483 41.7782 126.46L41.3059 126.365C41.0396 126.312 40.8413 126.22 40.7111 126.088C40.5821 125.957 40.5176 125.79 40.5176 125.586C40.5176 125.411 40.5649 125.26 40.6596 125.133C40.7555 125.007 40.8899 124.909 41.0627 124.84C41.2367 124.772 41.4403 124.737 41.6735 124.737C42.0179 124.737 42.289 124.81 42.4867 124.956C42.6855 125.101 42.8016 125.299 42.8347 125.55ZM44.1295 125.923V127.5H43.3731V123.864H44.1082V125.254H44.1402C44.2017 125.093 44.3012 124.967 44.4385 124.876C44.5758 124.783 44.748 124.737 44.9552 124.737C45.1446 124.737 45.3097 124.779 45.4506 124.862C45.5926 124.943 45.7027 125.061 45.7808 125.215C45.8601 125.368 45.8992 125.55 45.898 125.763V127.5H45.1416V125.898C45.1428 125.73 45.1002 125.6 45.0138 125.506C44.9285 125.413 44.809 125.366 44.6551 125.366C44.5521 125.366 44.461 125.388 44.3817 125.431C44.3035 125.475 44.242 125.539 44.197 125.623C44.1532 125.706 44.1307 125.806 44.1295 125.923ZM47.271 127.551C47.0969 127.551 46.9419 127.521 46.8058 127.461C46.6696 127.399 46.5619 127.309 46.4826 127.189C46.4045 127.069 46.3654 126.918 46.3654 126.738C46.3654 126.587 46.3932 126.46 46.4489 126.357C46.5045 126.254 46.5803 126.171 46.6761 126.108C46.772 126.045 46.8809 125.998 47.0028 125.966C47.1259 125.934 47.255 125.911 47.3899 125.898C47.5485 125.882 47.6764 125.866 47.7734 125.852C47.8705 125.837 47.9409 125.814 47.9847 125.785C48.0285 125.755 48.0504 125.711 48.0504 125.653V125.643C48.0504 125.53 48.0149 125.443 47.9439 125.382C47.8741 125.32 47.7746 125.289 47.6456 125.289C47.5095 125.289 47.4012 125.32 47.3207 125.38C47.2402 125.439 47.1869 125.514 47.1609 125.604L46.4613 125.547C46.4968 125.381 46.5666 125.238 46.6708 125.117C46.775 124.995 46.9093 124.902 47.0739 124.837C47.2396 124.77 47.4313 124.737 47.6491 124.737C47.8007 124.737 47.9457 124.755 48.0842 124.79C48.2238 124.826 48.3475 124.881 48.4553 124.956C48.5642 125.03 48.65 125.126 48.7127 125.243C48.7754 125.359 48.8068 125.498 48.8068 125.661V127.5H48.0895V127.122H48.0682C48.0244 127.207 47.9658 127.282 47.8924 127.347C47.819 127.411 47.7308 127.462 47.6278 127.498C47.5249 127.534 47.4059 127.551 47.271 127.551ZM47.4876 127.029C47.5988 127.029 47.6971 127.008 47.7823 126.964C47.8675 126.919 47.9344 126.858 47.983 126.783C48.0315 126.707 48.0558 126.621 48.0558 126.525V126.236C48.0321 126.251 47.9995 126.265 47.9581 126.278C47.9179 126.29 47.8723 126.301 47.8214 126.312C47.7705 126.322 47.7196 126.33 47.6687 126.339C47.6178 126.346 47.5716 126.352 47.5302 126.358C47.4414 126.371 47.3639 126.392 47.2976 126.42C47.2313 126.449 47.1798 126.487 47.1431 126.536C47.1064 126.583 47.0881 126.642 47.0881 126.713C47.0881 126.816 47.1254 126.895 47.1999 126.95C47.2757 127.003 47.3716 127.029 47.4876 127.029ZM49.3794 127.5V127.049L50.7147 125.396V125.376H49.4256V124.773H51.6255V125.265L50.372 126.877V126.896H51.6717V127.5H49.3794ZM53.4149 127.553C53.1343 127.553 52.8928 127.496 52.6904 127.383C52.4892 127.268 52.3341 127.106 52.2252 126.896C52.1163 126.686 52.0619 126.436 52.0619 126.149C52.0619 125.868 52.1163 125.622 52.2252 125.41C52.3341 125.198 52.4874 125.033 52.6851 124.915C52.884 124.796 53.1172 124.737 53.3847 124.737C53.5646 124.737 53.7321 124.766 53.8872 124.824C54.0434 124.881 54.1795 124.967 54.2955 125.082C54.4127 125.196 54.5039 125.341 54.569 125.515C54.6341 125.688 54.6666 125.89 54.6666 126.122V126.33H52.3637V125.861H53.9546C53.9546 125.752 53.931 125.656 53.8836 125.572C53.8363 125.488 53.7706 125.422 53.6865 125.375C53.6037 125.326 53.5072 125.302 53.3971 125.302C53.2823 125.302 53.1805 125.328 53.0917 125.382C53.0041 125.434 52.9355 125.504 52.8857 125.593C52.836 125.681 52.8106 125.778 52.8094 125.886V126.332C52.8094 126.467 52.8343 126.583 52.884 126.681C52.9349 126.78 53.0065 126.855 53.0988 126.909C53.1911 126.962 53.3006 126.989 53.4273 126.989C53.5113 126.989 53.5883 126.977 53.6581 126.953C53.728 126.929 53.7877 126.894 53.8374 126.847C53.8872 126.799 53.925 126.741 53.9511 126.673L54.6507 126.719C54.6151 126.887 54.5423 127.034 54.4323 127.159C54.3234 127.283 54.1825 127.38 54.0097 127.45C53.838 127.519 53.6398 127.553 53.4149 127.553ZM55.9379 127.551C55.7639 127.551 55.6089 127.521 55.4727 127.461C55.3366 127.399 55.2289 127.309 55.1496 127.189C55.0715 127.069 55.0324 126.918 55.0324 126.738C55.0324 126.587 55.0602 126.46 55.1159 126.357C55.1715 126.254 55.2472 126.171 55.3431 126.108C55.439 126.045 55.5479 125.998 55.6698 125.966C55.7929 125.934 55.922 125.911 56.0569 125.898C56.2155 125.882 56.3434 125.866 56.4404 125.852C56.5375 125.837 56.6079 125.814 56.6517 125.785C56.6955 125.755 56.7174 125.711 56.7174 125.653V125.643C56.7174 125.53 56.6819 125.443 56.6109 125.382C56.541 125.32 56.4416 125.289 56.3126 125.289C56.1765 125.289 56.0682 125.32 55.9877 125.38C55.9072 125.439 55.8539 125.514 55.8279 125.604L55.1283 125.547C55.1638 125.381 55.2336 125.238 55.3378 125.117C55.442 124.995 55.5763 124.902 55.7409 124.837C55.9066 124.77 56.0983 124.737 56.3161 124.737C56.4677 124.737 56.6127 124.755 56.7512 124.79C56.8908 124.826 57.0145 124.881 57.1222 124.956C57.2311 125.03 57.317 125.126 57.3797 125.243C57.4424 125.359 57.4738 125.498 57.4738 125.661V127.5H56.7565V127.122H56.7352C56.6914 127.207 56.6328 127.282 56.5594 127.347C56.486 127.411 56.3978 127.462 56.2948 127.498C56.1919 127.534 56.0729 127.551 55.9379 127.551ZM56.1546 127.029C56.2658 127.029 56.3641 127.008 56.4493 126.964C56.5345 126.919 56.6014 126.858 56.6499 126.783C56.6985 126.707 56.7227 126.621 56.7227 126.525V126.236C56.6991 126.251 56.6665 126.265 56.6251 126.278C56.5848 126.29 56.5393 126.301 56.4884 126.312C56.4375 126.322 56.3866 126.33 56.3357 126.339C56.2848 126.346 56.2386 126.352 56.1972 126.358C56.1084 126.371 56.0309 126.392 55.9646 126.42C55.8983 126.449 55.8468 126.487 55.8101 126.536C55.7734 126.583 55.7551 126.642 55.7551 126.713C55.7551 126.816 55.7923 126.895 55.8669 126.95C55.9427 127.003 56.0386 127.029 56.1546 127.029ZM58.0535 127.5V126.946L59.3479 125.748C59.458 125.641 59.5503 125.545 59.6249 125.46C59.7007 125.375 59.7581 125.291 59.7971 125.21C59.8362 125.127 59.8557 125.037 59.8557 124.941C59.8557 124.835 59.8315 124.743 59.7829 124.666C59.7344 124.588 59.6681 124.528 59.5841 124.487C59.5 124.444 59.4047 124.423 59.2982 124.423C59.1869 124.423 59.0899 124.445 59.007 124.49C58.9242 124.535 58.8602 124.6 58.8153 124.684C58.7703 124.768 58.7478 124.868 58.7478 124.984H58.018C58.018 124.746 58.0719 124.54 58.1796 124.364C58.2873 124.189 58.4382 124.054 58.6324 123.958C58.8265 123.862 59.0502 123.814 59.3035 123.814C59.564 123.814 59.7906 123.86 59.9836 123.952C60.1777 124.044 60.3286 124.17 60.4363 124.332C60.5441 124.495 60.5979 124.68 60.5979 124.89C60.5979 125.027 60.5707 125.163 60.5162 125.297C60.463 125.43 60.3677 125.579 60.2304 125.742C60.0931 125.904 59.8995 126.099 59.6498 126.326L59.1189 126.847V126.871H60.6459V127.5H58.0535Z" fill="black"/>
<path d="M6.76847 129.773V130.341H5.08523V129.773H6.76847ZM5.47053 132.5V129.576C5.47053 129.378 5.509 129.214 5.58594 129.084C5.66406 128.954 5.7706 128.856 5.90554 128.791C6.04048 128.726 6.19377 128.693 6.36541 128.693C6.48142 128.693 6.58736 128.702 6.68324 128.72C6.7803 128.738 6.85251 128.754 6.89986 128.768L6.76491 129.336C6.73532 129.326 6.69863 129.318 6.65483 129.309C6.61222 129.301 6.56842 129.297 6.52344 129.297C6.41217 129.297 6.33464 129.323 6.29084 129.375C6.24704 129.426 6.22514 129.498 6.22514 129.59V132.5H5.47053ZM7.23056 132.5V129.773H7.96387V130.249H7.99228C8.04199 130.079 8.12544 129.951 8.24263 129.865C8.35982 129.777 8.49476 129.734 8.64746 129.734C8.68534 129.734 8.72618 129.736 8.76998 129.741C8.81377 129.746 8.85224 129.752 8.88539 129.76V130.431C8.84988 130.421 8.80075 130.411 8.73801 130.403C8.67528 130.395 8.61787 130.391 8.56578 130.391C8.45452 130.391 8.35508 130.415 8.26749 130.463C8.18108 130.511 8.11242 130.577 8.06152 130.662C8.01181 130.748 7.98695 130.846 7.98695 130.957V132.5H7.23056ZM10.3817 132.553C10.1059 132.553 9.86742 132.495 9.66619 132.377C9.46615 132.259 9.31167 132.095 9.20277 131.884C9.09387 131.672 9.03942 131.426 9.03942 131.147C9.03942 130.865 9.09387 130.619 9.20277 130.408C9.31167 130.196 9.46615 130.032 9.66619 129.915C9.86742 129.796 10.1059 129.737 10.3817 129.737C10.6576 129.737 10.8955 129.796 11.0955 129.915C11.2968 130.032 11.4518 130.196 11.5607 130.408C11.6696 130.619 11.7241 130.865 11.7241 131.147C11.7241 131.426 11.6696 131.672 11.5607 131.884C11.4518 132.095 11.2968 132.259 11.0955 132.377C10.8955 132.495 10.6576 132.553 10.3817 132.553ZM10.3853 131.967C10.5108 131.967 10.6155 131.932 10.6996 131.861C10.7836 131.789 10.8469 131.69 10.8896 131.566C10.9334 131.442 10.9553 131.3 10.9553 131.142C10.9553 130.983 10.9334 130.842 10.8896 130.717C10.8469 130.593 10.7836 130.495 10.6996 130.423C10.6155 130.35 10.5108 130.314 10.3853 130.314C10.2586 130.314 10.1521 130.35 10.0657 130.423C9.98047 130.495 9.91596 130.593 9.87216 130.717C9.82955 130.842 9.80824 130.983 9.80824 131.142C9.80824 131.3 9.82955 131.442 9.87216 131.566C9.91596 131.69 9.98047 131.789 10.0657 131.861C10.1521 131.932 10.2586 131.967 10.3853 131.967ZM12.2159 132.5V129.773H12.9368V130.254H12.9688C13.0256 130.094 13.1203 129.968 13.2528 129.876C13.3854 129.783 13.544 129.737 13.7287 129.737C13.9157 129.737 14.0749 129.784 14.2063 129.877C14.3377 129.97 14.4253 130.095 14.4691 130.254H14.4975C14.5531 130.098 14.6538 129.973 14.7994 129.879C14.9461 129.785 15.1196 129.737 15.3196 129.737C15.5741 129.737 15.7807 129.818 15.9393 129.98C16.0991 130.141 16.179 130.37 16.179 130.666V132.5H15.4244V130.815C15.4244 130.663 15.3841 130.55 15.3036 130.474C15.2231 130.398 15.1225 130.36 15.0018 130.36C14.8645 130.36 14.7573 130.404 14.6804 130.492C14.6035 130.578 14.565 130.692 14.565 130.835V132.5H13.8317V130.799C13.8317 130.665 13.7932 130.559 13.7163 130.479C13.6405 130.4 13.5405 130.36 13.4162 130.36C13.3321 130.36 13.2564 130.382 13.1889 130.424C13.1226 130.466 13.07 130.524 13.0309 130.6C12.9918 130.675 12.9723 130.762 12.9723 130.863V132.5H12.2159ZM20.9894 128.864V132.5H20.3254L18.7433 130.211H18.7167V132.5H17.9479V128.864H18.6226L20.1922 131.151H20.2242V128.864H20.9894ZM22.8427 132.553C22.5669 132.553 22.3284 132.495 22.1271 132.377C21.9271 132.259 21.7726 132.095 21.6637 131.884C21.5548 131.672 21.5004 131.426 21.5004 131.147C21.5004 130.865 21.5548 130.619 21.6637 130.408C21.7726 130.196 21.9271 130.032 22.1271 129.915C22.3284 129.796 22.5669 129.737 22.8427 129.737C23.1185 129.737 23.3564 129.796 23.5565 129.915C23.7577 130.032 23.9128 130.196 24.0217 130.408C24.1306 130.619 24.185 130.865 24.185 131.147C24.185 131.426 24.1306 131.672 24.0217 131.884C23.9128 132.095 23.7577 132.259 23.5565 132.377C23.3564 132.495 23.1185 132.553 22.8427 132.553ZM22.8462 131.967C22.9717 131.967 23.0765 131.932 23.1605 131.861C23.2446 131.789 23.3079 131.69 23.3505 131.566C23.3943 131.442 23.4162 131.3 23.4162 131.142C23.4162 130.983 23.3943 130.842 23.3505 130.717C23.3079 130.593 23.2446 130.495 23.1605 130.423C23.0765 130.35 22.9717 130.314 22.8462 130.314C22.7196 130.314 22.613 130.35 22.5266 130.423C22.4414 130.495 22.3769 130.593 22.3331 130.717C22.2905 130.842 22.2692 130.983 22.2692 131.142C22.2692 131.3 22.2905 131.442 22.3331 131.566C22.3769 131.69 22.4414 131.789 22.5266 131.861C22.613 131.932 22.7196 131.967 22.8462 131.967ZM26.4258 131.339V129.773H27.1822V132.5H26.456V132.005H26.4276C26.366 132.164 26.2636 132.293 26.1204 132.39C25.9783 132.487 25.8049 132.536 25.6001 132.536C25.4179 132.536 25.2575 132.494 25.119 132.411C24.9805 132.328 24.8722 132.211 24.794 132.058C24.7171 131.905 24.678 131.722 24.6768 131.509V129.773H25.4332V131.374C25.4344 131.535 25.4776 131.663 25.5629 131.756C25.6481 131.85 25.7623 131.896 25.9055 131.896C25.9967 131.896 26.0819 131.876 26.1612 131.834C26.2405 131.792 26.3045 131.729 26.353 131.646C26.4027 131.563 26.427 131.461 26.4258 131.339ZM28.5436 130.923V132.5H27.7872V129.773H28.5081V130.254H28.54C28.6004 130.095 28.7016 129.97 28.8437 129.877C28.9857 129.784 29.1579 129.737 29.3604 129.737C29.5497 129.737 29.7149 129.779 29.8557 129.862C29.9966 129.944 30.1061 130.063 30.1842 130.217C30.2623 130.369 30.3014 130.552 30.3014 130.763V132.5H29.545V130.898C29.5462 130.732 29.5036 130.601 29.4172 130.508C29.3308 130.413 29.2118 130.366 29.0603 130.366C28.9585 130.366 28.8685 130.388 28.7904 130.431C28.7135 130.475 28.6531 130.539 28.6093 130.623C28.5667 130.706 28.5448 130.806 28.5436 130.923ZM32.069 132.5V128.864H33.5036C33.7794 128.864 34.0144 128.916 34.2085 129.022C34.4027 129.126 34.5506 129.271 34.6524 129.457C34.7554 129.641 34.8069 129.854 34.8069 130.096C34.8069 130.337 34.7548 130.55 34.6507 130.735C34.5465 130.92 34.3956 131.064 34.1979 131.167C34.0014 131.27 33.7635 131.321 33.4841 131.321H32.5697V130.705H33.3598C33.5078 130.705 33.6297 130.679 33.7256 130.629C33.8227 130.576 33.8949 130.505 33.9422 130.414C33.9907 130.321 34.015 130.215 34.015 130.096C34.015 129.975 33.9907 129.87 33.9422 129.78C33.8949 129.689 33.8227 129.618 33.7256 129.569C33.6285 129.518 33.5054 129.492 33.3563 129.492H32.8378V132.5H32.069ZM35.2921 132.5V129.773H36.0254V130.249H36.0538C36.1035 130.079 36.187 129.951 36.3042 129.865C36.4213 129.777 36.5563 129.734 36.709 129.734C36.7469 129.734 36.7877 129.736 36.8315 129.741C36.8753 129.746 36.9138 129.752 36.9469 129.76V130.431C36.9114 130.421 36.8623 130.411 36.7995 130.403C36.7368 130.395 36.6794 130.391 36.6273 130.391C36.516 130.391 36.4166 130.415 36.329 130.463C36.2426 130.511 36.1739 130.577 36.123 130.662C36.0733 130.748 36.0485 130.846 36.0485 130.957V132.5H35.2921ZM38.4433 132.553C38.1675 132.553 37.9289 132.495 37.7277 132.377C37.5277 132.259 37.3732 132.095 37.2643 131.884C37.1554 131.672 37.1009 131.426 37.1009 131.147C37.1009 130.865 37.1554 130.619 37.2643 130.408C37.3732 130.196 37.5277 130.032 37.7277 129.915C37.9289 129.796 38.1675 129.737 38.4433 129.737C38.7191 129.737 38.957 129.796 39.157 129.915C39.3583 130.032 39.5133 130.196 39.6222 130.408C39.7311 130.619 39.7856 130.865 39.7856 131.147C39.7856 131.426 39.7311 131.672 39.6222 131.884C39.5133 132.095 39.3583 132.259 39.157 132.377C38.957 132.495 38.7191 132.553 38.4433 132.553ZM38.4468 131.967C38.5723 131.967 38.6771 131.932 38.7611 131.861C38.8451 131.789 38.9085 131.69 38.9511 131.566C38.9949 131.442 39.0168 131.3 39.0168 131.142C39.0168 130.983 38.9949 130.842 38.9511 130.717C38.9085 130.593 38.8451 130.495 38.7611 130.423C38.6771 130.35 38.5723 130.314 38.4468 130.314C38.3202 130.314 38.2136 130.35 38.1272 130.423C38.042 130.495 37.9775 130.593 37.9337 130.717C37.8911 130.842 37.8698 130.983 37.8698 131.142C37.8698 131.3 37.8911 131.442 37.9337 131.566C37.9775 131.69 38.042 131.789 38.1272 131.861C38.2136 131.932 38.3202 131.967 38.4468 131.967ZM40.2774 129.773H41.0338V132.635C41.0338 132.846 40.9924 133.016 40.9095 133.146C40.8267 133.277 40.7077 133.372 40.5526 133.432C40.3988 133.493 40.2147 133.523 40.0004 133.523C39.9744 133.523 39.9495 133.522 39.9259 133.521C39.901 133.521 39.875 133.52 39.8477 133.519V132.928C39.8679 132.929 39.8856 132.93 39.901 132.93C39.9152 132.931 39.9306 132.931 39.9472 132.931C40.0691 132.931 40.1543 132.905 40.2029 132.853C40.2526 132.802 40.2774 132.725 40.2774 132.623V129.773ZM40.6539 129.421C40.5426 129.421 40.4467 129.384 40.3662 129.309C40.2857 129.234 40.2455 129.143 40.2455 129.038C40.2455 128.933 40.2857 128.844 40.3662 128.77C40.4467 128.694 40.5426 128.656 40.6539 128.656C40.7675 128.656 40.864 128.694 40.9433 128.77C41.0238 128.844 41.064 128.933 41.064 129.038C41.064 129.143 41.0238 129.234 40.9433 129.309C40.864 129.384 40.7675 129.421 40.6539 129.421ZM42.8826 132.553C42.6021 132.553 42.3606 132.496 42.1582 132.383C41.957 132.268 41.8019 132.106 41.693 131.896C41.5841 131.686 41.5297 131.436 41.5297 131.149C41.5297 130.868 41.5841 130.622 41.693 130.41C41.8019 130.198 41.9552 130.033 42.1529 129.915C42.3517 129.796 42.5849 129.737 42.8525 129.737C43.0324 129.737 43.1999 129.766 43.3549 129.824C43.5112 129.881 43.6473 129.967 43.7633 130.082C43.8805 130.196 43.9717 130.341 44.0368 130.515C44.1019 130.688 44.1344 130.89 44.1344 131.122V131.33H41.8315V130.861H43.4224C43.4224 130.752 43.3987 130.656 43.3514 130.572C43.304 130.488 43.2383 130.422 43.1543 130.375C43.0714 130.326 42.975 130.302 42.8649 130.302C42.7501 130.302 42.6483 130.328 42.5595 130.382C42.4719 130.434 42.4032 130.504 42.3535 130.593C42.3038 130.681 42.2783 130.778 42.2772 130.886V131.332C42.2772 131.467 42.302 131.583 42.3517 131.681C42.4026 131.78 42.4743 131.855 42.5666 131.909C42.6589 131.962 42.7684 131.989 42.8951 131.989C42.9791 131.989 43.056 131.977 43.1259 131.953C43.1957 131.929 43.2555 131.894 43.3052 131.847C43.3549 131.799 43.3928 131.741 43.4189 131.673L44.1184 131.719C44.0829 131.887 44.0101 132.034 43.9 132.159C43.7911 132.283 43.6503 132.38 43.4775 132.45C43.3058 132.519 43.1075 132.553 42.8826 132.553ZM45.8603 132.553C45.5809 132.553 45.3406 132.494 45.1394 132.376C44.9393 132.256 44.7855 132.09 44.6777 131.879C44.5712 131.667 44.5179 131.423 44.5179 131.147C44.5179 130.868 44.5718 130.623 44.6795 130.412C44.7884 130.2 44.9429 130.035 45.1429 129.917C45.343 129.797 45.5809 129.737 45.8567 129.737C46.0946 129.737 46.303 129.78 46.4817 129.867C46.6605 129.953 46.8019 130.075 46.9061 130.231C47.0102 130.387 47.0676 130.571 47.0783 130.781H46.3645C46.3444 130.645 46.2911 130.536 46.2047 130.453C46.1195 130.369 46.0076 130.327 45.8691 130.327C45.752 130.327 45.6496 130.359 45.562 130.423C45.4756 130.485 45.4081 130.577 45.3596 130.698C45.311 130.819 45.2868 130.965 45.2868 131.136C45.2868 131.31 45.3104 131.458 45.3578 131.58C45.4063 131.702 45.4744 131.795 45.562 131.859C45.6496 131.923 45.752 131.955 45.8691 131.955C45.9556 131.955 46.0331 131.937 46.1017 131.902C46.1716 131.866 46.229 131.815 46.274 131.747C46.3201 131.679 46.3503 131.596 46.3645 131.5H47.0783C47.0665 131.709 47.0096 131.892 46.9078 132.051C46.8072 132.208 46.6681 132.331 46.4906 132.42C46.313 132.509 46.1029 132.553 45.8603 132.553ZM49.0132 129.773V130.341H47.3708V129.773H49.0132ZM47.7437 129.119H48.5001V131.662C48.5001 131.732 48.5107 131.786 48.532 131.825C48.5534 131.863 48.5829 131.89 48.6208 131.905C48.6599 131.921 48.7049 131.928 48.7558 131.928C48.7913 131.928 48.8268 131.925 48.8623 131.919C48.8978 131.912 48.925 131.907 48.944 131.903L49.0629 132.466C49.0251 132.478 48.9718 132.492 48.9031 132.507C48.8345 132.524 48.751 132.534 48.6528 132.537C48.4705 132.544 48.3107 132.52 48.1734 132.464C48.0373 132.409 47.9313 132.322 47.8556 132.205C47.7798 132.088 47.7425 131.94 47.7437 131.761V129.119Z" fill="black"/>
<path d="M2.73724 126.821C2.76227 126.821 2.78729 126.821 11.5333 126.406C20.2792 125.991 37.7454 125.16 47.5001 124.887C57.2548 124.614 58.7688 124.923 61.9238 126.542" stroke="white" stroke-width="38" stroke-linecap="round"/>
</g>
<defs>
<clipPath id="clip0_9_25">
<rect width="110" height="135" fill="white"/>
</clipPath>
</defs>
</svg>
