<svg width="110" height="135" viewBox="0 0 110 135" fill="none" xmlns="http://www.w3.org/2000/svg">
<g clip-path="url(#clip0_9_29)">
<path d="M46.996 25C32.098 25 20 37.098 20 51.996C20 66.894 32.098 78.992 46.996 78.992C54.0819 78.992 60.551 76.2498 65.367 71.7732L88.269 94.7072C88.6596 95.0978 89.3159 95.0978 89.7065 94.7072C90.0971 94.3166 90.0971 93.6603 89.7065 93.2697L66.7725 70.3677C71.2491 65.5474 73.9913 59.0827 73.9913 51.9967C73.9913 37.0987 61.894 25 46.996 25ZM46.996 27C60.812 27 71.992 38.18 71.992 51.996C71.992 65.812 60.812 76.992 46.996 76.992C33.18 76.992 22 65.812 22 51.996C22 38.18 33.18 27 46.996 27Z" fill="black"/>
<path d="M8.5245 125.137H7.7468C7.7326 125.036 7.7036 124.947 7.6598 124.869C7.616 124.789 7.55978 124.722 7.49112 124.666C7.42247 124.611 7.34316 124.568 7.2532 124.538C7.16442 124.509 7.06795 124.494 6.96378 124.494C6.77557 124.494 6.61162 124.541 6.47195 124.634C6.33227 124.727 6.22396 124.862 6.14702 125.039C6.07008 125.215 6.03161 125.43 6.03161 125.682C6.03161 125.941 6.07008 126.159 6.14702 126.335C6.22514 126.512 6.33404 126.645 6.47372 126.735C6.6134 126.825 6.77498 126.87 6.95845 126.87C7.06143 126.87 7.15672 126.856 7.24432 126.829C7.3331 126.802 7.41181 126.762 7.48047 126.71C7.54912 126.657 7.60594 126.592 7.65092 126.516C7.69709 126.441 7.72905 126.354 7.7468 126.257L8.5245 126.261C8.50438 126.428 8.45407 126.589 8.37358 126.744C8.29427 126.897 8.18714 127.035 8.0522 127.157C7.91844 127.278 7.75864 127.374 7.5728 127.445C7.38814 127.515 7.17921 127.55 6.94602 127.55C6.62169 127.55 6.33168 127.476 6.07599 127.33C5.8215 127.183 5.62027 126.97 5.4723 126.692C5.32552 126.414 5.25213 126.077 5.25213 125.682C5.25213 125.285 5.3267 124.948 5.47585 124.67C5.625 124.392 5.82741 124.18 6.0831 124.034C6.33878 123.887 6.62642 123.814 6.94602 123.814C7.15672 123.814 7.35204 123.844 7.53196 123.903C7.71307 123.962 7.87346 124.048 8.01314 124.162C8.15282 124.274 8.26645 124.412 8.35405 124.576C8.44283 124.739 8.49964 124.926 8.5245 125.137ZM9.06161 127.5V124.773H9.79492V125.249H9.82333C9.87305 125.079 9.9565 124.951 10.0737 124.865C10.1909 124.777 10.3258 124.734 10.4785 124.734C10.5164 124.734 10.5572 124.736 10.601 124.741C10.6448 124.746 10.6833 124.752 10.7164 124.76V125.431C10.6809 125.421 10.6318 125.411 10.5691 125.403C10.5063 125.395 10.4489 125.391 10.3968 125.391C10.2856 125.391 10.1861 125.415 10.0985 125.463C10.0121 125.511 9.94348 125.577 9.89258 125.662C9.84286 125.748 9.818 125.846 9.818 125.957V127.5H9.06161ZM12.2235 127.553C11.9429 127.553 11.7014 127.496 11.499 127.383C11.2978 127.268 11.1427 127.106 11.0338 126.896C10.9249 126.686 10.8705 126.436 10.8705 126.149C10.8705 125.868 10.9249 125.622 11.0338 125.41C11.1427 125.198 11.296 125.033 11.4937 124.915C11.6926 124.796 11.9258 124.737 12.1933 124.737C12.3732 124.737 12.5407 124.766 12.6958 124.824C12.852 124.881 12.9881 124.967 13.1041 125.082C13.2213 125.196 13.3125 125.341 13.3776 125.515C13.4427 125.688 13.4752 125.89 13.4752 126.122V126.33H11.1723V125.861H12.7632C12.7632 125.752 12.7396 125.656 12.6922 125.572C12.6449 125.488 12.5792 125.422 12.4951 125.375C12.4123 125.326 12.3158 125.302 12.2057 125.302C12.0909 125.302 11.9891 125.328 11.9003 125.382C11.8127 125.434 11.7441 125.504 11.6943 125.593C11.6446 125.681 11.6192 125.778 11.618 125.886V126.332C11.618 126.467 11.6428 126.583 11.6926 126.681C11.7435 126.78 11.8151 126.855 11.9074 126.909C11.9997 126.962 12.1092 126.989 12.2359 126.989C12.3199 126.989 12.3969 126.977 12.4667 126.953C12.5365 126.929 12.5963 126.894 12.646 126.847C12.6958 126.799 12.7336 126.741 12.7597 126.673L13.4593 126.719C13.4237 126.887 13.3509 127.034 13.2409 127.159C13.132 127.283 12.9911 127.38 12.8183 127.45C12.6466 127.519 12.4484 127.553 12.2235 127.553ZM14.7465 127.551C14.5725 127.551 14.4175 127.521 14.2813 127.461C14.1452 127.399 14.0375 127.309 13.9582 127.189C13.8801 127.069 13.841 126.918 13.841 126.738C13.841 126.587 13.8688 126.46 13.9244 126.357C13.9801 126.254 14.0558 126.171 14.1517 126.108C14.2476 126.045 14.3565 125.998 14.4784 125.966C14.6015 125.934 14.7306 125.911 14.8655 125.898C15.0241 125.882 15.152 125.866 15.249 125.852C15.3461 125.837 15.4165 125.814 15.4603 125.785C15.5041 125.755 15.526 125.711 15.526 125.653V125.643C15.526 125.53 15.4905 125.443 15.4195 125.382C15.3496 125.32 15.2502 125.289 15.1212 125.289C14.9851 125.289 14.8767 125.32 14.7963 125.38C14.7158 125.439 14.6625 125.514 14.6365 125.604L13.9369 125.547C13.9724 125.381 14.0422 125.238 14.1464 125.117C14.2506 124.995 14.3849 124.902 14.5494 124.837C14.7152 124.77 14.9069 124.737 15.1247 124.737C15.2762 124.737 15.4213 124.755 15.5597 124.79C15.6994 124.826 15.8231 124.881 15.9308 124.956C16.0397 125.03 16.1256 125.126 16.1883 125.243C16.251 125.359 16.2824 125.498 16.2824 125.661V127.5H15.5651V127.122H15.5438C15.5 127.207 15.4414 127.282 15.368 127.347C15.2946 127.411 15.2064 127.462 15.1034 127.498C15.0004 127.534 14.8815 127.551 14.7465 127.551ZM14.9632 127.029C15.0744 127.029 15.1727 127.008 15.2579 126.964C15.3431 126.919 15.41 126.858 15.4585 126.783C15.5071 126.707 15.5313 126.621 15.5313 126.525V126.236C15.5077 126.251 15.4751 126.265 15.4337 126.278C15.3934 126.29 15.3479 126.301 15.297 126.312C15.2461 126.322 15.1952 126.33 15.1443 126.339C15.0934 126.346 15.0472 126.352 15.0058 126.358C14.917 126.371 14.8395 126.392 14.7732 126.42C14.7069 126.449 14.6554 126.487 14.6187 126.536C14.582 126.583 14.5637 126.642 14.5637 126.713C14.5637 126.816 14.6009 126.895 14.6755 126.95C14.7513 127.003 14.8472 127.029 14.9632 127.029ZM18.3199 124.773V125.341H16.6775V124.773H18.3199ZM17.0503 124.119H17.8067V126.662C17.8067 126.732 17.8174 126.786 17.8387 126.825C17.86 126.863 17.8896 126.89 17.9275 126.905C17.9665 126.921 18.0115 126.928 18.0624 126.928C18.0979 126.928 18.1334 126.925 18.1689 126.919C18.2045 126.912 18.2317 126.907 18.2506 126.903L18.3696 127.466C18.3317 127.478 18.2784 127.492 18.2098 127.507C18.1411 127.524 18.0577 127.534 17.9594 127.537C17.7771 127.544 17.6173 127.52 17.48 127.464C17.3439 127.409 17.238 127.322 17.1622 127.205C17.0864 127.088 17.0492 126.94 17.0503 126.761V124.119ZM20.0262 127.553C19.7456 127.553 19.5042 127.496 19.3018 127.383C19.1005 127.268 18.9455 127.106 18.8366 126.896C18.7277 126.686 18.6732 126.436 18.6732 126.149C18.6732 125.868 18.7277 125.622 18.8366 125.41C18.9455 125.198 19.0988 125.033 19.2964 124.915C19.4953 124.796 19.7285 124.737 19.996 124.737C20.1759 124.737 20.3434 124.766 20.4985 124.824C20.6547 124.881 20.7909 124.967 20.9069 125.082C21.0241 125.196 21.1152 125.341 21.1803 125.515C21.2454 125.688 21.278 125.89 21.278 126.122V126.33H18.9751V125.861H20.566C20.566 125.752 20.5423 125.656 20.4949 125.572C20.4476 125.488 20.3819 125.422 20.2979 125.375C20.215 125.326 20.1185 125.302 20.0084 125.302C19.8936 125.302 19.7918 125.328 19.703 125.382C19.6154 125.434 19.5468 125.504 19.4971 125.593C19.4474 125.681 19.4219 125.778 19.4207 125.886V126.332C19.4207 126.467 19.4456 126.583 19.4953 126.681C19.5462 126.78 19.6178 126.855 19.7101 126.909C19.8025 126.962 19.912 126.989 20.0386 126.989C20.1227 126.989 20.1996 126.977 20.2694 126.953C20.3393 126.929 20.3991 126.894 20.4488 126.847C20.4985 126.799 20.5364 126.741 20.5624 126.673L21.262 126.719C21.2265 126.887 21.1537 127.034 21.0436 127.159C20.9347 127.283 20.7938 127.38 20.621 127.45C20.4494 127.519 20.2511 127.553 20.0262 127.553ZM22.7765 127.544C22.5694 127.544 22.3818 127.491 22.2137 127.385C22.0468 127.277 21.9142 127.119 21.816 126.911C21.7189 126.701 21.6704 126.444 21.6704 126.14C21.6704 125.827 21.7207 125.568 21.8213 125.36C21.9219 125.152 22.0557 124.996 22.2226 124.893C22.3907 124.789 22.5747 124.737 22.7748 124.737C22.9275 124.737 23.0547 124.763 23.1565 124.815C23.2595 124.866 23.3424 124.93 23.4051 125.007C23.469 125.083 23.5175 125.157 23.5507 125.231H23.5738V123.864H24.3284V127.5H23.5827V127.063H23.5507C23.5152 127.139 23.4649 127.214 23.3998 127.289C23.3358 127.362 23.2524 127.423 23.1494 127.472C23.0476 127.52 22.9233 127.544 22.7765 127.544ZM23.0162 126.942C23.1382 126.942 23.2412 126.909 23.3252 126.843C23.4104 126.776 23.4755 126.681 23.5205 126.561C23.5667 126.44 23.5898 126.299 23.5898 126.136C23.5898 125.974 23.5673 125.833 23.5223 125.714C23.4773 125.594 23.4122 125.502 23.327 125.437C23.2417 125.372 23.1382 125.339 23.0162 125.339C22.892 125.339 22.7872 125.373 22.702 125.44C22.6167 125.508 22.5522 125.601 22.5084 125.721C22.4646 125.84 22.4427 125.979 22.4427 126.136C22.4427 126.295 22.4646 126.435 22.5084 126.557C22.5534 126.678 22.6179 126.773 22.702 126.841C22.7872 126.909 22.892 126.942 23.0162 126.942ZM26.1217 127.5V123.864H26.8781V125.231H26.9012C26.9343 125.157 26.9823 125.083 27.045 125.007C27.1089 124.93 27.1918 124.866 27.2936 124.815C27.3966 124.763 27.5244 124.737 27.6771 124.737C27.876 124.737 28.0595 124.789 28.2275 124.893C28.3956 124.996 28.53 125.152 28.6306 125.36C28.7312 125.568 28.7815 125.827 28.7815 126.14C28.7815 126.444 28.7324 126.701 28.6341 126.911C28.5371 127.119 28.4045 127.277 28.2364 127.385C28.0695 127.491 27.8825 127.544 27.6753 127.544C27.5286 127.544 27.4037 127.52 27.3007 127.472C27.1989 127.423 27.1154 127.362 27.0503 127.289C26.9852 127.214 26.9355 127.139 26.9012 127.063H26.8675V127.5H26.1217ZM26.8621 126.136C26.8621 126.299 26.8846 126.44 26.9296 126.561C26.9746 126.681 27.0397 126.776 27.1249 126.843C27.2101 126.909 27.3137 126.942 27.4356 126.942C27.5587 126.942 27.6629 126.909 27.7481 126.841C27.8334 126.773 27.8979 126.678 27.9417 126.557C27.9867 126.435 28.0091 126.295 28.0091 126.136C28.0091 125.979 27.9872 125.84 27.9434 125.721C27.8997 125.601 27.8351 125.508 27.7499 125.44C27.6647 125.373 27.5599 125.339 27.4356 125.339C27.3125 125.339 27.2084 125.372 27.1231 125.437C27.0391 125.502 26.9746 125.594 26.9296 125.714C26.8846 125.833 26.8621 125.974 26.8621 126.136ZM29.6653 128.523C29.5694 128.523 29.4795 128.515 29.3954 128.5C29.3126 128.485 29.2439 128.467 29.1895 128.445L29.3599 127.88C29.4487 127.907 29.5286 127.922 29.5996 127.924C29.6718 127.927 29.734 127.91 29.786 127.875C29.8393 127.839 29.8825 127.779 29.9157 127.694L29.96 127.578L28.9817 124.773H29.7772L30.3418 126.776H30.3702L30.9402 124.773H31.7409L30.6809 127.795C30.63 127.942 30.5608 128.069 30.4732 128.178C30.3868 128.288 30.2773 128.373 30.1447 128.432C30.0121 128.493 29.8523 128.523 29.6653 128.523ZM33.9262 127.5H33.1024L34.3577 123.864H35.3485L36.602 127.5H35.7781L34.8673 124.695H34.8389L33.9262 127.5ZM33.8747 126.071H35.8208V126.671H33.8747V126.071ZM37.1507 128.523C37.0548 128.523 36.9648 128.515 36.8808 128.5C36.7979 128.485 36.7293 128.467 36.6748 128.445L36.8453 127.88C36.934 127.907 37.0139 127.922 37.085 127.924C37.1572 127.927 37.2193 127.91 37.2714 127.875C37.3247 127.839 37.3679 127.779 37.401 127.694L37.4454 127.578L36.4671 124.773H37.2625L37.8271 126.776H37.8556L38.4255 124.773H39.2263L38.1663 127.795C38.1154 127.942 38.0461 128.069 37.9585 128.178C37.8721 128.288 37.7626 128.373 37.6301 128.432C37.4975 128.493 37.3377 128.523 37.1507 128.523ZM40.3178 127.551C40.1438 127.551 39.9888 127.521 39.8526 127.461C39.7165 127.399 39.6088 127.309 39.5295 127.189C39.4513 127.069 39.4123 126.918 39.4123 126.738C39.4123 126.587 39.4401 126.46 39.4957 126.357C39.5514 126.254 39.6271 126.171 39.723 126.108C39.8189 126.045 39.9278 125.998 40.0497 125.966C40.1728 125.934 40.3018 125.911 40.4368 125.898C40.5954 125.882 40.7232 125.866 40.8203 125.852C40.9174 125.837 40.9878 125.814 41.0316 125.785C41.0754 125.755 41.0973 125.711 41.0973 125.653V125.643C41.0973 125.53 41.0618 125.443 40.9908 125.382C40.9209 125.32 40.8215 125.289 40.6925 125.289C40.5563 125.289 40.448 125.32 40.3675 125.38C40.2871 125.439 40.2338 125.514 40.2077 125.604L39.5082 125.547C39.5437 125.381 39.6135 125.238 39.7177 125.117C39.8219 124.995 39.9562 124.902 40.1207 124.837C40.2865 124.77 40.4782 124.737 40.696 124.737C40.8475 124.737 40.9925 124.755 41.131 124.79C41.2707 124.826 41.3944 124.881 41.5021 124.956C41.611 125.03 41.6969 125.126 41.7596 125.243C41.8223 125.359 41.8537 125.498 41.8537 125.661V127.5H41.1364V127.122H41.1151C41.0713 127.207 41.0127 127.282 40.9393 127.347C40.8659 127.411 40.7777 127.462 40.6747 127.498C40.5717 127.534 40.4528 127.551 40.3178 127.551ZM40.5344 127.029C40.6457 127.029 40.744 127.008 40.8292 126.964C40.9144 126.919 40.9813 126.858 41.0298 126.783C41.0784 126.707 41.1026 126.621 41.1026 126.525V126.236C41.079 126.251 41.0464 126.265 41.005 126.278C40.9647 126.29 40.9192 126.301 40.8683 126.312C40.8174 126.322 40.7665 126.33 40.7156 126.339C40.6647 126.346 40.6185 126.352 40.5771 126.358C40.4883 126.371 40.4107 126.392 40.3445 126.42C40.2782 126.449 40.2267 126.487 40.19 126.536C40.1533 126.583 40.1349 126.642 40.1349 126.713C40.1349 126.816 40.1722 126.895 40.2468 126.95C40.3226 127.003 40.4184 127.029 40.5344 127.029ZM45.5846 124.909C45.5704 124.766 45.5094 124.655 45.4017 124.576C45.294 124.496 45.1478 124.457 44.9632 124.457C44.8377 124.457 44.7317 124.474 44.6453 124.51C44.5589 124.544 44.4926 124.592 44.4465 124.654C44.4015 124.715 44.379 124.785 44.379 124.863C44.3766 124.928 44.3902 124.985 44.4198 125.034C44.4506 125.082 44.4926 125.124 44.5459 125.16C44.5992 125.194 44.6607 125.224 44.7306 125.25C44.8004 125.275 44.875 125.297 44.9543 125.314L45.281 125.392C45.4396 125.428 45.5852 125.475 45.7178 125.534C45.8503 125.594 45.9652 125.666 46.0622 125.753C46.1593 125.839 46.2345 125.941 46.2877 126.058C46.3422 126.175 46.37 126.31 46.3712 126.461C46.37 126.684 46.3132 126.877 46.2007 127.04C46.0895 127.202 45.9285 127.328 45.7178 127.418C45.5083 127.507 45.2555 127.551 44.9596 127.551C44.666 127.551 44.4104 127.507 44.1926 127.417C43.9759 127.327 43.8067 127.193 43.6847 127.017C43.564 126.839 43.5007 126.62 43.4948 126.358H44.2387C44.247 126.48 44.2819 126.582 44.3435 126.664C44.4062 126.744 44.4897 126.805 44.5938 126.847C44.6992 126.887 44.8182 126.907 44.9507 126.907C45.0809 126.907 45.194 126.888 45.2899 126.85C45.3869 126.812 45.4621 126.76 45.5154 126.692C45.5686 126.625 45.5953 126.547 45.5953 126.46C45.5953 126.378 45.571 126.309 45.5225 126.254C45.4751 126.198 45.4053 126.151 45.3129 126.112C45.2218 126.072 45.1099 126.037 44.9774 126.005L44.5814 125.906C44.2748 125.831 44.0328 125.714 43.8552 125.556C43.6776 125.397 43.5895 125.183 43.5906 124.915C43.5895 124.695 43.6481 124.502 43.7664 124.338C43.886 124.173 44.0499 124.045 44.2583 123.952C44.4666 123.86 44.7033 123.814 44.9685 123.814C45.2384 123.814 45.4739 123.86 45.6752 123.952C45.8776 124.045 46.035 124.173 46.1475 124.338C46.2599 124.502 46.3179 124.693 46.3215 124.909H45.5846ZM48.1064 127.553C47.8306 127.553 47.592 127.495 47.3908 127.377C47.1908 127.259 47.0363 127.095 46.9274 126.884C46.8185 126.672 46.764 126.426 46.764 126.147C46.764 125.865 46.8185 125.619 46.9274 125.408C47.0363 125.196 47.1908 125.032 47.3908 124.915C47.592 124.796 47.8306 124.737 48.1064 124.737C48.3822 124.737 48.6201 124.796 48.8201 124.915C49.0214 125.032 49.1764 125.196 49.2853 125.408C49.3942 125.619 49.4487 125.865 49.4487 126.147C49.4487 126.426 49.3942 126.672 49.2853 126.884C49.1764 127.095 49.0214 127.259 48.8201 127.377C48.6201 127.495 48.3822 127.553 48.1064 127.553ZM48.1099 126.967C48.2354 126.967 48.3401 126.932 48.4242 126.861C48.5082 126.789 48.5716 126.69 48.6142 126.566C48.658 126.442 48.6799 126.3 48.6799 126.142C48.6799 125.983 48.658 125.842 48.6142 125.717C48.5716 125.593 48.5082 125.495 48.4242 125.423C48.3401 125.35 48.2354 125.314 48.1099 125.314C47.9833 125.314 47.8767 125.35 47.7903 125.423C47.7051 125.495 47.6406 125.593 47.5968 125.717C47.5542 125.842 47.5328 125.983 47.5328 126.142C47.5328 126.3 47.5542 126.442 47.5968 126.566C47.6406 126.69 47.7051 126.789 47.7903 126.861C47.8767 126.932 47.9833 126.967 48.1099 126.967ZM51.4071 124.773V125.341H49.7239V124.773H51.4071ZM50.1092 127.5V124.576C50.1092 124.378 50.1477 124.214 50.2246 124.084C50.3027 123.954 50.4093 123.856 50.5442 123.791C50.6792 123.726 50.8324 123.693 51.0041 123.693C51.1201 123.693 51.226 123.702 51.3219 123.72C51.419 123.738 51.4912 123.754 51.5385 123.768L51.4036 124.336C51.374 124.326 51.3373 124.318 51.2935 124.309C51.2509 124.301 51.2071 124.297 51.1621 124.297C51.0508 124.297 50.9733 124.323 50.9295 124.375C50.8857 124.426 50.8638 124.498 50.8638 124.59V127.5H50.1092ZM52.3362 128.523C52.2403 128.523 52.1504 128.515 52.0663 128.5C51.9835 128.485 51.9148 128.467 51.8604 128.445L52.0308 127.88C52.1196 127.907 52.1995 127.922 52.2705 127.924C52.3427 127.927 52.4049 127.91 52.4569 127.875C52.5102 127.839 52.5534 127.779 52.5866 127.694L52.6309 127.578L51.6526 124.773H52.4481L53.0127 126.776H53.0411L53.6111 124.773H54.4118L53.3518 127.795C53.3009 127.942 53.2317 128.069 53.1441 128.178C53.0577 128.288 52.9482 128.373 52.8156 128.432C52.683 128.493 52.5232 128.523 52.3362 128.523ZM55.5034 127.551C55.3294 127.551 55.1743 127.521 55.0382 127.461C54.902 127.399 54.7943 127.309 54.715 127.189C54.6369 127.069 54.5978 126.918 54.5978 126.738C54.5978 126.587 54.6257 126.46 54.6813 126.357C54.7369 126.254 54.8127 126.171 54.9086 126.108C55.0044 126.045 55.1133 125.998 55.2353 125.966C55.3584 125.934 55.4874 125.911 55.6223 125.898C55.781 125.882 55.9088 125.866 56.0059 125.852C56.1029 125.837 56.1734 125.814 56.2172 125.785C56.2609 125.755 56.2828 125.711 56.2828 125.653V125.643C56.2828 125.53 56.2473 125.443 56.1763 125.382C56.1065 125.32 56.007 125.289 55.878 125.289C55.7419 125.289 55.6336 125.32 55.5531 125.38C55.4726 125.439 55.4193 125.514 55.3933 125.604L54.6937 125.547C54.7292 125.381 54.7991 125.238 54.9032 125.117C55.0074 124.995 55.1417 124.902 55.3063 124.837C55.472 124.77 55.6638 124.737 55.8816 124.737C56.0331 124.737 56.1781 124.755 56.3166 124.79C56.4563 124.826 56.58 124.881 56.6877 124.956C56.7966 125.03 56.8824 125.126 56.9451 125.243C57.0079 125.359 57.0392 125.498 57.0392 125.661V127.5H56.3219V127.122H56.3006C56.2568 127.207 56.1982 127.282 56.1248 127.347C56.0514 127.411 55.9632 127.462 55.8603 127.498C55.7573 127.534 55.6383 127.551 55.5034 127.551ZM55.72 127.029C55.8313 127.029 55.9295 127.008 56.0147 126.964C56.1 126.919 56.1668 126.858 56.2154 126.783C56.2639 126.707 56.2882 126.621 56.2882 126.525V126.236C56.2645 126.251 56.2319 126.265 56.1905 126.278C56.1503 126.29 56.1047 126.301 56.0538 126.312C56.0029 126.322 55.952 126.33 55.9011 126.339C55.8502 126.346 55.804 126.352 55.7626 126.358C55.6738 126.371 55.5963 126.392 55.53 126.42C55.4637 126.449 55.4122 126.487 55.3755 126.536C55.3388 126.583 55.3205 126.642 55.3205 126.713C55.3205 126.816 55.3578 126.895 55.4324 126.95C55.5081 127.003 55.604 127.029 55.72 127.029Z" fill="black"/>
<path d="M6.76847 129.773V130.341H5.08523V129.773H6.76847ZM5.47053 132.5V129.576C5.47053 129.378 5.509 129.214 5.58594 129.084C5.66406 128.954 5.7706 128.856 5.90554 128.791C6.04048 128.726 6.19377 128.693 6.36541 128.693C6.48142 128.693 6.58736 128.702 6.68324 128.72C6.7803 128.738 6.85251 128.754 6.89986 128.768L6.76491 129.336C6.73532 129.326 6.69863 129.318 6.65483 129.309C6.61222 129.301 6.56842 129.297 6.52344 129.297C6.41217 129.297 6.33464 129.323 6.29084 129.375C6.24704 129.426 6.22514 129.498 6.22514 129.59V132.5H5.47053ZM7.23056 132.5V129.773H7.96387V130.249H7.99228C8.04199 130.079 8.12544 129.951 8.24263 129.865C8.35982 129.777 8.49476 129.734 8.64746 129.734C8.68534 129.734 8.72618 129.736 8.76998 129.741C8.81377 129.746 8.85224 129.752 8.88539 129.76V130.431C8.84988 130.421 8.80075 130.411 8.73801 130.403C8.67528 130.395 8.61787 130.391 8.56578 130.391C8.45452 130.391 8.35508 130.415 8.26749 130.463C8.18108 130.511 8.11242 130.577 8.06152 130.662C8.01181 130.748 7.98695 130.846 7.98695 130.957V132.5H7.23056ZM10.3817 132.553C10.1059 132.553 9.86742 132.495 9.66619 132.377C9.46615 132.259 9.31167 132.095 9.20277 131.884C9.09387 131.672 9.03942 131.426 9.03942 131.147C9.03942 130.865 9.09387 130.619 9.20277 130.408C9.31167 130.196 9.46615 130.032 9.66619 129.915C9.86742 129.796 10.1059 129.737 10.3817 129.737C10.6576 129.737 10.8955 129.796 11.0955 129.915C11.2968 130.032 11.4518 130.196 11.5607 130.408C11.6696 130.619 11.7241 130.865 11.7241 131.147C11.7241 131.426 11.6696 131.672 11.5607 131.884C11.4518 132.095 11.2968 132.259 11.0955 132.377C10.8955 132.495 10.6576 132.553 10.3817 132.553ZM10.3853 131.967C10.5108 131.967 10.6155 131.932 10.6996 131.861C10.7836 131.789 10.8469 131.69 10.8896 131.566C10.9334 131.442 10.9553 131.3 10.9553 131.142C10.9553 130.983 10.9334 130.842 10.8896 130.717C10.8469 130.593 10.7836 130.495 10.6996 130.423C10.6155 130.35 10.5108 130.314 10.3853 130.314C10.2586 130.314 10.1521 130.35 10.0657 130.423C9.98047 130.495 9.91596 130.593 9.87216 130.717C9.82955 130.842 9.80824 130.983 9.80824 131.142C9.80824 131.3 9.82955 131.442 9.87216 131.566C9.91596 131.69 9.98047 131.789 10.0657 131.861C10.1521 131.932 10.2586 131.967 10.3853 131.967ZM12.2159 132.5V129.773H12.9368V130.254H12.9688C13.0256 130.094 13.1203 129.968 13.2528 129.876C13.3854 129.783 13.544 129.737 13.7287 129.737C13.9157 129.737 14.0749 129.784 14.2063 129.877C14.3377 129.97 14.4253 130.095 14.4691 130.254H14.4975C14.5531 130.098 14.6538 129.973 14.7994 129.879C14.9461 129.785 15.1196 129.737 15.3196 129.737C15.5741 129.737 15.7807 129.818 15.9393 129.98C16.0991 130.141 16.179 130.37 16.179 130.666V132.5H15.4244V130.815C15.4244 130.663 15.3841 130.55 15.3036 130.474C15.2231 130.398 15.1225 130.36 15.0018 130.36C14.8645 130.36 14.7573 130.404 14.6804 130.492C14.6035 130.578 14.565 130.692 14.565 130.835V132.5H13.8317V130.799C13.8317 130.665 13.7932 130.559 13.7163 130.479C13.6405 130.4 13.5405 130.36 13.4162 130.36C13.3321 130.36 13.2564 130.382 13.1889 130.424C13.1226 130.466 13.07 130.524 13.0309 130.6C12.9918 130.675 12.9723 130.762 12.9723 130.863V132.5H12.2159ZM20.9894 128.864V132.5H20.3254L18.7433 130.211H18.7167V132.5H17.9479V128.864H18.6226L20.1922 131.151H20.2242V128.864H20.9894ZM22.8427 132.553C22.5669 132.553 22.3284 132.495 22.1271 132.377C21.9271 132.259 21.7726 132.095 21.6637 131.884C21.5548 131.672 21.5004 131.426 21.5004 131.147C21.5004 130.865 21.5548 130.619 21.6637 130.408C21.7726 130.196 21.9271 130.032 22.1271 129.915C22.3284 129.796 22.5669 129.737 22.8427 129.737C23.1185 129.737 23.3564 129.796 23.5565 129.915C23.7577 130.032 23.9128 130.196 24.0217 130.408C24.1306 130.619 24.185 130.865 24.185 131.147C24.185 131.426 24.1306 131.672 24.0217 131.884C23.9128 132.095 23.7577 132.259 23.5565 132.377C23.3564 132.495 23.1185 132.553 22.8427 132.553ZM22.8462 131.967C22.9717 131.967 23.0765 131.932 23.1605 131.861C23.2446 131.789 23.3079 131.69 23.3505 131.566C23.3943 131.442 23.4162 131.3 23.4162 131.142C23.4162 130.983 23.3943 130.842 23.3505 130.717C23.3079 130.593 23.2446 130.495 23.1605 130.423C23.0765 130.35 22.9717 130.314 22.8462 130.314C22.7196 130.314 22.613 130.35 22.5266 130.423C22.4414 130.495 22.3769 130.593 22.3331 130.717C22.2905 130.842 22.2692 130.983 22.2692 131.142C22.2692 131.3 22.2905 131.442 22.3331 131.566C22.3769 131.69 22.4414 131.789 22.5266 131.861C22.613 131.932 22.7196 131.967 22.8462 131.967ZM26.4258 131.339V129.773H27.1822V132.5H26.456V132.005H26.4276C26.366 132.164 26.2636 132.293 26.1204 132.39C25.9783 132.487 25.8049 132.536 25.6001 132.536C25.4179 132.536 25.2575 132.494 25.119 132.411C24.9805 132.328 24.8722 132.211 24.794 132.058C24.7171 131.905 24.678 131.722 24.6768 131.509V129.773H25.4332V131.374C25.4344 131.535 25.4776 131.663 25.5629 131.756C25.6481 131.85 25.7623 131.896 25.9055 131.896C25.9967 131.896 26.0819 131.876 26.1612 131.834C26.2405 131.792 26.3045 131.729 26.353 131.646C26.4027 131.563 26.427 131.461 26.4258 131.339ZM28.5436 130.923V132.5H27.7872V129.773H28.5081V130.254H28.54C28.6004 130.095 28.7016 129.97 28.8437 129.877C28.9857 129.784 29.1579 129.737 29.3604 129.737C29.5497 129.737 29.7149 129.779 29.8557 129.862C29.9966 129.944 30.1061 130.063 30.1842 130.217C30.2623 130.369 30.3014 130.552 30.3014 130.763V132.5H29.545V130.898C29.5462 130.732 29.5036 130.601 29.4172 130.508C29.3308 130.413 29.2118 130.366 29.0603 130.366C28.9585 130.366 28.8685 130.388 28.7904 130.431C28.7135 130.475 28.6531 130.539 28.6093 130.623C28.5667 130.706 28.5448 130.806 28.5436 130.923ZM32.069 132.5V128.864H33.5036C33.7794 128.864 34.0144 128.916 34.2085 129.022C34.4027 129.126 34.5506 129.271 34.6524 129.457C34.7554 129.641 34.8069 129.854 34.8069 130.096C34.8069 130.337 34.7548 130.55 34.6507 130.735C34.5465 130.92 34.3956 131.064 34.1979 131.167C34.0014 131.27 33.7635 131.321 33.4841 131.321H32.5697V130.705H33.3598C33.5078 130.705 33.6297 130.679 33.7256 130.629C33.8227 130.576 33.8949 130.505 33.9422 130.414C33.9907 130.321 34.015 130.215 34.015 130.096C34.015 129.975 33.9907 129.87 33.9422 129.78C33.8949 129.689 33.8227 129.618 33.7256 129.569C33.6285 129.518 33.5054 129.492 33.3563 129.492H32.8378V132.5H32.069ZM35.2921 132.5V129.773H36.0254V130.249H36.0538C36.1035 130.079 36.187 129.951 36.3042 129.865C36.4213 129.777 36.5563 129.734 36.709 129.734C36.7469 129.734 36.7877 129.736 36.8315 129.741C36.8753 129.746 36.9138 129.752 36.9469 129.76V130.431C36.9114 130.421 36.8623 130.411 36.7995 130.403C36.7368 130.395 36.6794 130.391 36.6273 130.391C36.516 130.391 36.4166 130.415 36.329 130.463C36.2426 130.511 36.1739 130.577 36.123 130.662C36.0733 130.748 36.0485 130.846 36.0485 130.957V132.5H35.2921ZM38.4433 132.553C38.1675 132.553 37.9289 132.495 37.7277 132.377C37.5277 132.259 37.3732 132.095 37.2643 131.884C37.1554 131.672 37.1009 131.426 37.1009 131.147C37.1009 130.865 37.1554 130.619 37.2643 130.408C37.3732 130.196 37.5277 130.032 37.7277 129.915C37.9289 129.796 38.1675 129.737 38.4433 129.737C38.7191 129.737 38.957 129.796 39.157 129.915C39.3583 130.032 39.5133 130.196 39.6222 130.408C39.7311 130.619 39.7856 130.865 39.7856 131.147C39.7856 131.426 39.7311 131.672 39.6222 131.884C39.5133 132.095 39.3583 132.259 39.157 132.377C38.957 132.495 38.7191 132.553 38.4433 132.553ZM38.4468 131.967C38.5723 131.967 38.6771 131.932 38.7611 131.861C38.8451 131.789 38.9085 131.69 38.9511 131.566C38.9949 131.442 39.0168 131.3 39.0168 131.142C39.0168 130.983 38.9949 130.842 38.9511 130.717C38.9085 130.593 38.8451 130.495 38.7611 130.423C38.6771 130.35 38.5723 130.314 38.4468 130.314C38.3202 130.314 38.2136 130.35 38.1272 130.423C38.042 130.495 37.9775 130.593 37.9337 130.717C37.8911 130.842 37.8698 130.983 37.8698 131.142C37.8698 131.3 37.8911 131.442 37.9337 131.566C37.9775 131.69 38.042 131.789 38.1272 131.861C38.2136 131.932 38.3202 131.967 38.4468 131.967ZM40.2774 129.773H41.0338V132.635C41.0338 132.846 40.9924 133.016 40.9095 133.146C40.8267 133.277 40.7077 133.372 40.5526 133.432C40.3988 133.493 40.2147 133.523 40.0004 133.523C39.9744 133.523 39.9495 133.522 39.9259 133.521C39.901 133.521 39.875 133.52 39.8477 133.519V132.928C39.8679 132.929 39.8856 132.93 39.901 132.93C39.9152 132.931 39.9306 132.931 39.9472 132.931C40.0691 132.931 40.1543 132.905 40.2029 132.853C40.2526 132.802 40.2774 132.725 40.2774 132.623V129.773ZM40.6539 129.421C40.5426 129.421 40.4467 129.384 40.3662 129.309C40.2857 129.234 40.2455 129.143 40.2455 129.038C40.2455 128.933 40.2857 128.844 40.3662 128.77C40.4467 128.694 40.5426 128.656 40.6539 128.656C40.7675 128.656 40.864 128.694 40.9433 128.77C41.0238 128.844 41.064 128.933 41.064 129.038C41.064 129.143 41.0238 129.234 40.9433 129.309C40.864 129.384 40.7675 129.421 40.6539 129.421ZM42.8826 132.553C42.6021 132.553 42.3606 132.496 42.1582 132.383C41.957 132.268 41.8019 132.106 41.693 131.896C41.5841 131.686 41.5297 131.436 41.5297 131.149C41.5297 130.868 41.5841 130.622 41.693 130.41C41.8019 130.198 41.9552 130.033 42.1529 129.915C42.3517 129.796 42.5849 129.737 42.8525 129.737C43.0324 129.737 43.1999 129.766 43.3549 129.824C43.5112 129.881 43.6473 129.967 43.7633 130.082C43.8805 130.196 43.9717 130.341 44.0368 130.515C44.1019 130.688 44.1344 130.89 44.1344 131.122V131.33H41.8315V130.861H43.4224C43.4224 130.752 43.3987 130.656 43.3514 130.572C43.304 130.488 43.2383 130.422 43.1543 130.375C43.0714 130.326 42.975 130.302 42.8649 130.302C42.7501 130.302 42.6483 130.328 42.5595 130.382C42.4719 130.434 42.4032 130.504 42.3535 130.593C42.3038 130.681 42.2783 130.778 42.2772 130.886V131.332C42.2772 131.467 42.302 131.583 42.3517 131.681C42.4026 131.78 42.4743 131.855 42.5666 131.909C42.6589 131.962 42.7684 131.989 42.8951 131.989C42.9791 131.989 43.056 131.977 43.1259 131.953C43.1957 131.929 43.2555 131.894 43.3052 131.847C43.3549 131.799 43.3928 131.741 43.4189 131.673L44.1184 131.719C44.0829 131.887 44.0101 132.034 43.9 132.159C43.7911 132.283 43.6503 132.38 43.4775 132.45C43.3058 132.519 43.1075 132.553 42.8826 132.553ZM45.8603 132.553C45.5809 132.553 45.3406 132.494 45.1394 132.376C44.9393 132.256 44.7855 132.09 44.6777 131.879C44.5712 131.667 44.5179 131.423 44.5179 131.147C44.5179 130.868 44.5718 130.623 44.6795 130.412C44.7884 130.2 44.9429 130.035 45.1429 129.917C45.343 129.797 45.5809 129.737 45.8567 129.737C46.0946 129.737 46.303 129.78 46.4817 129.867C46.6605 129.953 46.8019 130.075 46.9061 130.231C47.0102 130.387 47.0676 130.571 47.0783 130.781H46.3645C46.3444 130.645 46.2911 130.536 46.2047 130.453C46.1195 130.369 46.0076 130.327 45.8691 130.327C45.752 130.327 45.6496 130.359 45.562 130.423C45.4756 130.485 45.4081 130.577 45.3596 130.698C45.311 130.819 45.2868 130.965 45.2868 131.136C45.2868 131.31 45.3104 131.458 45.3578 131.58C45.4063 131.702 45.4744 131.795 45.562 131.859C45.6496 131.923 45.752 131.955 45.8691 131.955C45.9556 131.955 46.0331 131.937 46.1017 131.902C46.1716 131.866 46.229 131.815 46.274 131.747C46.3201 131.679 46.3503 131.596 46.3645 131.5H47.0783C47.0665 131.709 47.0096 131.892 46.9078 132.051C46.8072 132.208 46.6681 132.331 46.4906 132.42C46.313 132.509 46.1029 132.553 45.8603 132.553ZM49.0132 129.773V130.341H47.3708V129.773H49.0132ZM47.7437 129.119H48.5001V131.662C48.5001 131.732 48.5107 131.786 48.532 131.825C48.5534 131.863 48.5829 131.89 48.6208 131.905C48.6599 131.921 48.7049 131.928 48.7558 131.928C48.7913 131.928 48.8268 131.925 48.8623 131.919C48.8978 131.912 48.925 131.907 48.944 131.903L49.0629 132.466C49.0251 132.478 48.9718 132.492 48.9031 132.507C48.8345 132.524 48.751 132.534 48.6528 132.537C48.4705 132.544 48.3107 132.52 48.1734 132.464C48.0373 132.409 47.9313 132.322 47.8556 132.205C47.7798 132.088 47.7425 131.94 47.7437 131.761V129.119Z" fill="black"/>
<path d="M8.97107 127.856C9.09977 127.856 14.4328 127.718 24.8129 127.001C29.9261 126.421 34.7264 125.403 39.686 124.859C44.6456 124.315 49.6193 124.276 54.7436 124.235" stroke="white" stroke-width="38" stroke-linecap="round"/>
</g>
<defs>
<clipPath id="clip0_9_29">
<rect width="110" height="135" fill="white"/>
</clipPath>
</defs>
</svg>
