<svg width="110" height="135" viewBox="0 0 110 135" fill="none" xmlns="http://www.w3.org/2000/svg">
<g clip-path="url(#clip0_9_16)">
<path d="M41.875 13.332C60.367 13.332 75.418 28.383 75.418 46.875C75.418 65.367 60.367 80.418 41.875 80.418C23.383 80.418 8.332 65.367 8.332 46.875C8.332 28.383 23.383 13.332 41.875 13.332ZM41.875 10C21.508 10 5 26.508 5 46.875C5 67.242 21.508 83.75 41.875 83.75C62.242 83.75 78.75 67.242 78.75 46.875C78.75 26.508 62.242 10 41.875 10Z" fill="black"/>
<path d="M103.332 110C102.906 110 102.48 109.832 102.156 109.508L66.3242 73.6758C65.6758 73.0274 65.6758 71.9688 66.3242 71.3164C66.9727 70.668 68.0312 70.668 68.6836 71.3164L104.516 107.148C105.164 107.797 105.164 108.855 104.516 109.508C104.191 109.832 103.766 110 103.34 110H103.332Z" fill="black"/>
<path d="M8.5245 125.137H7.7468C7.7326 125.036 7.7036 124.947 7.6598 124.869C7.616 124.789 7.55978 124.722 7.49112 124.666C7.42247 124.611 7.34316 124.568 7.2532 124.538C7.16442 124.509 7.06795 124.494 6.96378 124.494C6.77557 124.494 6.61162 124.541 6.47195 124.634C6.33227 124.727 6.22396 124.862 6.14702 125.039C6.07008 125.215 6.03161 125.43 6.03161 125.682C6.03161 125.941 6.07008 126.159 6.14702 126.335C6.22514 126.512 6.33404 126.645 6.47372 126.735C6.6134 126.825 6.77498 126.87 6.95845 126.87C7.06143 126.87 7.15672 126.856 7.24432 126.829C7.3331 126.802 7.41181 126.762 7.48047 126.71C7.54912 126.657 7.60594 126.592 7.65092 126.516C7.69709 126.441 7.72905 126.354 7.7468 126.257L8.5245 126.261C8.50438 126.428 8.45407 126.589 8.37358 126.744C8.29427 126.897 8.18714 127.035 8.0522 127.157C7.91844 127.278 7.75864 127.374 7.5728 127.445C7.38814 127.515 7.17921 127.55 6.94602 127.55C6.62169 127.55 6.33168 127.476 6.07599 127.33C5.8215 127.183 5.62027 126.97 5.4723 126.692C5.32552 126.414 5.25213 126.077 5.25213 125.682C5.25213 125.285 5.3267 124.948 5.47585 124.67C5.625 124.392 5.82741 124.18 6.0831 124.034C6.33878 123.887 6.62642 123.814 6.94602 123.814C7.15672 123.814 7.35204 123.844 7.53196 123.903C7.71307 123.962 7.87346 124.048 8.01314 124.162C8.15282 124.274 8.26645 124.412 8.35405 124.576C8.44283 124.739 8.49964 124.926 8.5245 125.137ZM9.06161 127.5V124.773H9.79492V125.249H9.82333C9.87305 125.079 9.9565 124.951 10.0737 124.865C10.1909 124.777 10.3258 124.734 10.4785 124.734C10.5164 124.734 10.5572 124.736 10.601 124.741C10.6448 124.746 10.6833 124.752 10.7164 124.76V125.431C10.6809 125.421 10.6318 125.411 10.5691 125.403C10.5063 125.395 10.4489 125.391 10.3968 125.391C10.2856 125.391 10.1861 125.415 10.0985 125.463C10.0121 125.511 9.94348 125.577 9.89258 125.662C9.84286 125.748 9.818 125.846 9.818 125.957V127.5H9.06161ZM12.2235 127.553C11.9429 127.553 11.7014 127.496 11.499 127.383C11.2978 127.268 11.1427 127.106 11.0338 126.896C10.9249 126.686 10.8705 126.436 10.8705 126.149C10.8705 125.868 10.9249 125.622 11.0338 125.41C11.1427 125.198 11.296 125.033 11.4937 124.915C11.6926 124.796 11.9258 124.737 12.1933 124.737C12.3732 124.737 12.5407 124.766 12.6958 124.824C12.852 124.881 12.9881 124.967 13.1041 125.082C13.2213 125.196 13.3125 125.341 13.3776 125.515C13.4427 125.688 13.4752 125.89 13.4752 126.122V126.33H11.1723V125.861H12.7632C12.7632 125.752 12.7396 125.656 12.6922 125.572C12.6449 125.488 12.5792 125.422 12.4951 125.375C12.4123 125.326 12.3158 125.302 12.2057 125.302C12.0909 125.302 11.9891 125.328 11.9003 125.382C11.8127 125.434 11.7441 125.504 11.6943 125.593C11.6446 125.681 11.6192 125.778 11.618 125.886V126.332C11.618 126.467 11.6428 126.583 11.6926 126.681C11.7435 126.78 11.8151 126.855 11.9074 126.909C11.9997 126.962 12.1092 126.989 12.2359 126.989C12.3199 126.989 12.3969 126.977 12.4667 126.953C12.5365 126.929 12.5963 126.894 12.646 126.847C12.6958 126.799 12.7336 126.741 12.7597 126.673L13.4593 126.719C13.4237 126.887 13.3509 127.034 13.2409 127.159C13.132 127.283 12.9911 127.38 12.8183 127.45C12.6466 127.519 12.4484 127.553 12.2235 127.553ZM14.7465 127.551C14.5725 127.551 14.4175 127.521 14.2813 127.461C14.1452 127.399 14.0375 127.309 13.9582 127.189C13.8801 127.069 13.841 126.918 13.841 126.738C13.841 126.587 13.8688 126.46 13.9244 126.357C13.9801 126.254 14.0558 126.171 14.1517 126.108C14.2476 126.045 14.3565 125.998 14.4784 125.966C14.6015 125.934 14.7306 125.911 14.8655 125.898C15.0241 125.882 15.152 125.866 15.249 125.852C15.3461 125.837 15.4165 125.814 15.4603 125.785C15.5041 125.755 15.526 125.711 15.526 125.653V125.643C15.526 125.53 15.4905 125.443 15.4195 125.382C15.3496 125.32 15.2502 125.289 15.1212 125.289C14.9851 125.289 14.8767 125.32 14.7963 125.38C14.7158 125.439 14.6625 125.514 14.6365 125.604L13.9369 125.547C13.9724 125.381 14.0422 125.238 14.1464 125.117C14.2506 124.995 14.3849 124.902 14.5494 124.837C14.7152 124.77 14.9069 124.737 15.1247 124.737C15.2762 124.737 15.4213 124.755 15.5597 124.79C15.6994 124.826 15.8231 124.881 15.9308 124.956C16.0397 125.03 16.1256 125.126 16.1883 125.243C16.251 125.359 16.2824 125.498 16.2824 125.661V127.5H15.5651V127.122H15.5438C15.5 127.207 15.4414 127.282 15.368 127.347C15.2946 127.411 15.2064 127.462 15.1034 127.498C15.0004 127.534 14.8815 127.551 14.7465 127.551ZM14.9632 127.029C15.0744 127.029 15.1727 127.008 15.2579 126.964C15.3431 126.919 15.41 126.858 15.4585 126.783C15.5071 126.707 15.5313 126.621 15.5313 126.525V126.236C15.5077 126.251 15.4751 126.265 15.4337 126.278C15.3934 126.29 15.3479 126.301 15.297 126.312C15.2461 126.322 15.1952 126.33 15.1443 126.339C15.0934 126.346 15.0472 126.352 15.0058 126.358C14.917 126.371 14.8395 126.392 14.7732 126.42C14.7069 126.449 14.6554 126.487 14.6187 126.536C14.582 126.583 14.5637 126.642 14.5637 126.713C14.5637 126.816 14.6009 126.895 14.6755 126.95C14.7513 127.003 14.8472 127.029 14.9632 127.029ZM18.3199 124.773V125.341H16.6775V124.773H18.3199ZM17.0503 124.119H17.8067V126.662C17.8067 126.732 17.8174 126.786 17.8387 126.825C17.86 126.863 17.8896 126.89 17.9275 126.905C17.9665 126.921 18.0115 126.928 18.0624 126.928C18.0979 126.928 18.1334 126.925 18.1689 126.919C18.2045 126.912 18.2317 126.907 18.2506 126.903L18.3696 127.466C18.3317 127.478 18.2784 127.492 18.2098 127.507C18.1411 127.524 18.0577 127.534 17.9594 127.537C17.7771 127.544 17.6173 127.52 17.48 127.464C17.3439 127.409 17.238 127.322 17.1622 127.205C17.0864 127.088 17.0492 126.94 17.0503 126.761V124.119ZM20.0262 127.553C19.7456 127.553 19.5042 127.496 19.3018 127.383C19.1005 127.268 18.9455 127.106 18.8366 126.896C18.7277 126.686 18.6732 126.436 18.6732 126.149C18.6732 125.868 18.7277 125.622 18.8366 125.41C18.9455 125.198 19.0988 125.033 19.2964 124.915C19.4953 124.796 19.7285 124.737 19.996 124.737C20.1759 124.737 20.3434 124.766 20.4985 124.824C20.6547 124.881 20.7909 124.967 20.9069 125.082C21.0241 125.196 21.1152 125.341 21.1803 125.515C21.2454 125.688 21.278 125.89 21.278 126.122V126.33H18.9751V125.861H20.566C20.566 125.752 20.5423 125.656 20.4949 125.572C20.4476 125.488 20.3819 125.422 20.2979 125.375C20.215 125.326 20.1185 125.302 20.0084 125.302C19.8936 125.302 19.7918 125.328 19.703 125.382C19.6154 125.434 19.5468 125.504 19.4971 125.593C19.4474 125.681 19.4219 125.778 19.4207 125.886V126.332C19.4207 126.467 19.4456 126.583 19.4953 126.681C19.5462 126.78 19.6178 126.855 19.7101 126.909C19.8025 126.962 19.912 126.989 20.0386 126.989C20.1227 126.989 20.1996 126.977 20.2694 126.953C20.3393 126.929 20.3991 126.894 20.4488 126.847C20.4985 126.799 20.5364 126.741 20.5624 126.673L21.262 126.719C21.2265 126.887 21.1537 127.034 21.0436 127.159C20.9347 127.283 20.7938 127.38 20.621 127.45C20.4494 127.519 20.2511 127.553 20.0262 127.553ZM22.7765 127.544C22.5694 127.544 22.3818 127.491 22.2137 127.385C22.0468 127.277 21.9142 127.119 21.816 126.911C21.7189 126.701 21.6704 126.444 21.6704 126.14C21.6704 125.827 21.7207 125.568 21.8213 125.36C21.9219 125.152 22.0557 124.996 22.2226 124.893C22.3907 124.789 22.5747 124.737 22.7748 124.737C22.9275 124.737 23.0547 124.763 23.1565 124.815C23.2595 124.866 23.3424 124.93 23.4051 125.007C23.469 125.083 23.5175 125.157 23.5507 125.231H23.5738V123.864H24.3284V127.5H23.5827V127.063H23.5507C23.5152 127.139 23.4649 127.214 23.3998 127.289C23.3358 127.362 23.2524 127.423 23.1494 127.472C23.0476 127.52 22.9233 127.544 22.7765 127.544ZM23.0162 126.942C23.1382 126.942 23.2412 126.909 23.3252 126.843C23.4104 126.776 23.4755 126.681 23.5205 126.561C23.5667 126.44 23.5898 126.299 23.5898 126.136C23.5898 125.974 23.5673 125.833 23.5223 125.714C23.4773 125.594 23.4122 125.502 23.327 125.437C23.2417 125.372 23.1382 125.339 23.0162 125.339C22.892 125.339 22.7872 125.373 22.702 125.44C22.6167 125.508 22.5522 125.601 22.5084 125.721C22.4646 125.84 22.4427 125.979 22.4427 126.136C22.4427 126.295 22.4646 126.435 22.5084 126.557C22.5534 126.678 22.6179 126.773 22.702 126.841C22.7872 126.909 22.892 126.942 23.0162 126.942ZM26.1217 127.5V123.864H26.8781V125.231H26.9012C26.9343 125.157 26.9823 125.083 27.045 125.007C27.1089 124.93 27.1918 124.866 27.2936 124.815C27.3966 124.763 27.5244 124.737 27.6771 124.737C27.876 124.737 28.0595 124.789 28.2275 124.893C28.3956 124.996 28.53 125.152 28.6306 125.36C28.7312 125.568 28.7815 125.827 28.7815 126.14C28.7815 126.444 28.7324 126.701 28.6341 126.911C28.5371 127.119 28.4045 127.277 28.2364 127.385C28.0695 127.491 27.8825 127.544 27.6753 127.544C27.5286 127.544 27.4037 127.52 27.3007 127.472C27.1989 127.423 27.1154 127.362 27.0503 127.289C26.9852 127.214 26.9355 127.139 26.9012 127.063H26.8675V127.5H26.1217ZM26.8621 126.136C26.8621 126.299 26.8846 126.44 26.9296 126.561C26.9746 126.681 27.0397 126.776 27.1249 126.843C27.2101 126.909 27.3137 126.942 27.4356 126.942C27.5587 126.942 27.6629 126.909 27.7481 126.841C27.8334 126.773 27.8979 126.678 27.9417 126.557C27.9867 126.435 28.0091 126.295 28.0091 126.136C28.0091 125.979 27.9872 125.84 27.9434 125.721C27.8997 125.601 27.8351 125.508 27.7499 125.44C27.6647 125.373 27.5599 125.339 27.4356 125.339C27.3125 125.339 27.2084 125.372 27.1231 125.437C27.0391 125.502 26.9746 125.594 26.9296 125.714C26.8846 125.833 26.8621 125.974 26.8621 126.136ZM29.6653 128.523C29.5694 128.523 29.4795 128.515 29.3954 128.5C29.3126 128.485 29.2439 128.467 29.1895 128.445L29.3599 127.88C29.4487 127.907 29.5286 127.922 29.5996 127.924C29.6718 127.927 29.734 127.91 29.786 127.875C29.8393 127.839 29.8825 127.779 29.9157 127.694L29.96 127.578L28.9817 124.773H29.7772L30.3418 126.776H30.3702L30.9402 124.773H31.7409L30.6809 127.795C30.63 127.942 30.5608 128.069 30.4732 128.178C30.3868 128.288 30.2773 128.373 30.1447 128.432C30.0121 128.493 29.8523 128.523 29.6653 128.523ZM34.5175 127.553C34.2417 127.553 34.0032 127.495 33.8019 127.377C33.6019 127.259 33.4474 127.095 33.3385 126.884C33.2296 126.672 33.1752 126.426 33.1752 126.147C33.1752 125.865 33.2296 125.619 33.3385 125.408C33.4474 125.196 33.6019 125.032 33.8019 124.915C34.0032 124.796 34.2417 124.737 34.5175 124.737C34.7933 124.737 35.0312 124.796 35.2313 124.915C35.4325 125.032 35.5876 125.196 35.6965 125.408C35.8054 125.619 35.8598 125.865 35.8598 126.147C35.8598 126.426 35.8054 126.672 35.6965 126.884C35.5876 127.095 35.4325 127.259 35.2313 127.377C35.0312 127.495 34.7933 127.553 34.5175 127.553ZM34.521 126.967C34.6465 126.967 34.7513 126.932 34.8353 126.861C34.9194 126.789 34.9827 126.69 35.0253 126.566C35.0691 126.442 35.091 126.3 35.091 126.142C35.091 125.983 35.0691 125.842 35.0253 125.717C34.9827 125.593 34.9194 125.495 34.8353 125.423C34.7513 125.35 34.6465 125.314 34.521 125.314C34.3944 125.314 34.2878 125.35 34.2014 125.423C34.1162 125.495 34.0517 125.593 34.0079 125.717C33.9653 125.842 33.944 125.983 33.944 126.142C33.944 126.3 33.9653 126.442 34.0079 126.566C34.0517 126.69 34.1162 126.789 34.2014 126.861C34.2878 126.932 34.3944 126.967 34.521 126.967ZM37.8183 124.773V125.341H36.135V124.773H37.8183ZM36.5203 127.5V124.576C36.5203 124.378 36.5588 124.214 36.6357 124.084C36.7139 123.954 36.8204 123.856 36.9553 123.791C37.0903 123.726 37.2436 123.693 37.4152 123.693C37.5312 123.693 37.6372 123.702 37.733 123.72C37.8301 123.738 37.9023 123.754 37.9497 123.768L37.8147 124.336C37.7851 124.326 37.7484 124.318 37.7046 124.309C37.662 124.301 37.6182 124.297 37.5732 124.297C37.462 124.297 37.3844 124.323 37.3406 124.375C37.2968 124.426 37.2749 124.498 37.2749 124.59V127.5H36.5203ZM38.2804 127.5V124.773H39.0368V127.5H38.2804ZM38.6603 124.421C38.5479 124.421 38.4514 124.384 38.3709 124.309C38.2916 124.234 38.252 124.143 38.252 124.038C38.252 123.933 38.2916 123.844 38.3709 123.77C38.4514 123.694 38.5479 123.656 38.6603 123.656C38.7728 123.656 38.8687 123.694 38.948 123.77C39.0285 123.844 39.0687 123.933 39.0687 124.038C39.0687 124.143 39.0285 124.234 38.948 124.309C38.8687 124.384 38.7728 124.421 38.6603 124.421ZM39.6427 127.5V124.773H40.376V125.249H40.4044C40.4541 125.079 40.5376 124.951 40.6547 124.865C40.7719 124.777 40.9069 124.734 41.0596 124.734C41.0974 124.734 41.1383 124.736 41.1821 124.741C41.2259 124.746 41.2644 124.752 41.2975 124.76V125.431C41.262 125.421 41.2129 125.411 41.1501 125.403C41.0874 125.395 41.03 125.391 40.9779 125.391C40.8666 125.391 40.7672 125.415 40.6796 125.463C40.5932 125.511 40.5245 125.577 40.4736 125.662C40.4239 125.748 40.3991 125.846 40.3991 125.957V127.5H39.6427ZM42.86 127.5V123.864H43.6164V125.231H43.6395C43.6726 125.157 43.7206 125.083 43.7833 125.007C43.8472 124.93 43.9301 124.866 44.0319 124.815C44.1349 124.763 44.2627 124.737 44.4154 124.737C44.6143 124.737 44.7977 124.789 44.9658 124.893C45.1339 124.996 45.2683 125.152 45.3689 125.36C45.4695 125.568 45.5198 125.827 45.5198 126.14C45.5198 126.444 45.4707 126.701 45.3724 126.911C45.2754 127.119 45.1428 127.277 44.9747 127.385C44.8078 127.491 44.6208 127.544 44.4136 127.544C44.2668 127.544 44.142 127.52 44.039 127.472C43.9372 127.423 43.8537 127.362 43.7886 127.289C43.7235 127.214 43.6738 127.139 43.6395 127.063H43.6057V127.5H42.86ZM43.6004 126.136C43.6004 126.299 43.6229 126.44 43.6679 126.561C43.7129 126.681 43.778 126.776 43.8632 126.843C43.9484 126.909 44.052 126.942 44.1739 126.942C44.297 126.942 44.4012 126.909 44.4864 126.841C44.5716 126.773 44.6362 126.678 44.68 126.557C44.7249 126.435 44.7474 126.295 44.7474 126.136C44.7474 125.979 44.7255 125.84 44.6817 125.721C44.6379 125.601 44.5734 125.508 44.4882 125.44C44.403 125.373 44.2982 125.339 44.1739 125.339C44.0508 125.339 43.9466 125.372 43.8614 125.437C43.7774 125.502 43.7129 125.594 43.6679 125.714C43.6229 125.833 43.6004 125.974 43.6004 126.136ZM46.8022 127.551C46.6282 127.551 46.4731 127.521 46.337 127.461C46.2009 127.399 46.0932 127.309 46.0138 127.189C45.9357 127.069 45.8967 126.918 45.8967 126.738C45.8967 126.587 45.9245 126.46 45.9801 126.357C46.0357 126.254 46.1115 126.171 46.2074 126.108C46.3033 126.045 46.4122 125.998 46.5341 125.966C46.6572 125.934 46.7862 125.911 46.9212 125.898C47.0798 125.882 47.2076 125.866 47.3047 125.852C47.4018 125.837 47.4722 125.814 47.516 125.785C47.5598 125.755 47.5817 125.711 47.5817 125.653V125.643C47.5817 125.53 47.5462 125.443 47.4751 125.382C47.4053 125.32 47.3059 125.289 47.1768 125.289C47.0407 125.289 46.9324 125.32 46.8519 125.38C46.7714 125.439 46.7182 125.514 46.6921 125.604L45.9925 125.547C46.0281 125.381 46.0979 125.238 46.2021 125.117C46.3062 124.995 46.4406 124.902 46.6051 124.837C46.7708 124.77 46.9626 124.737 47.1804 124.737C47.3319 124.737 47.4769 124.755 47.6154 124.79C47.7551 124.826 47.8788 124.881 47.9865 124.956C48.0954 125.03 48.1812 125.126 48.244 125.243C48.3067 125.359 48.3381 125.498 48.3381 125.661V127.5H47.6207V127.122H47.5994C47.5556 127.207 47.497 127.282 47.4237 127.347C47.3503 127.411 47.2621 127.462 47.1591 127.498C47.0561 127.534 46.9371 127.551 46.8022 127.551ZM47.0188 127.029C47.1301 127.029 47.2283 127.008 47.3136 126.964C47.3988 126.919 47.4657 126.858 47.5142 126.783C47.5627 126.707 47.587 126.621 47.587 126.525V126.236C47.5633 126.251 47.5308 126.265 47.4893 126.278C47.4491 126.29 47.4035 126.301 47.3526 126.312C47.3017 126.322 47.2508 126.33 47.1999 126.339C47.149 126.346 47.1029 126.352 47.0614 126.358C46.9727 126.371 46.8951 126.392 46.8288 126.42C46.7625 126.449 46.7111 126.487 46.6744 126.536C46.6377 126.583 46.6193 126.642 46.6193 126.713C46.6193 126.816 46.6566 126.895 46.7312 126.95C46.8069 127.003 46.9028 127.029 47.0188 127.029ZM51.1941 125.55L50.5016 125.593C50.4898 125.534 50.4643 125.481 50.4252 125.433C50.3862 125.385 50.3347 125.346 50.2708 125.318C50.208 125.288 50.1329 125.273 50.0453 125.273C49.9281 125.273 49.8292 125.298 49.7488 125.348C49.6683 125.397 49.628 125.462 49.628 125.543C49.628 125.608 49.6541 125.663 49.7061 125.708C49.7582 125.753 49.8476 125.79 49.9743 125.817L50.4679 125.916C50.733 125.971 50.9307 126.058 51.0609 126.179C51.1911 126.3 51.2562 126.458 51.2562 126.655C51.2562 126.834 51.2035 126.99 51.0982 127.125C50.994 127.26 50.8508 127.366 50.6685 127.441C50.4874 127.516 50.2785 127.553 50.0417 127.553C49.6807 127.553 49.3931 127.478 49.1788 127.328C48.9657 127.176 48.8408 126.97 48.8042 126.71L49.5481 126.671C49.5706 126.781 49.6251 126.865 49.7115 126.923C49.7979 126.98 49.9086 127.008 50.0435 127.008C50.1761 127.008 50.2826 126.983 50.3631 126.932C50.4448 126.88 50.4862 126.813 50.4874 126.731C50.4862 126.663 50.4572 126.606 50.4004 126.562C50.3436 126.518 50.256 126.483 50.1376 126.46L49.6653 126.365C49.399 126.312 49.2007 126.22 49.0705 126.088C48.9415 125.957 48.877 125.79 48.877 125.586C48.877 125.411 48.9243 125.26 49.019 125.133C49.1149 125.007 49.2492 124.909 49.4221 124.84C49.5961 124.772 49.7997 124.737 50.0328 124.737C50.3773 124.737 50.6484 124.81 50.8461 124.956C51.0449 125.101 51.1609 125.299 51.1941 125.55ZM52.4889 125.923V127.5H51.7325V123.864H52.4676V125.254H52.4996C52.5611 125.093 52.6605 124.967 52.7979 124.876C52.9352 124.783 53.1074 124.737 53.3145 124.737C53.5039 124.737 53.6691 124.779 53.8099 124.862C53.952 124.943 54.0621 125.061 54.1402 125.215C54.2195 125.368 54.2586 125.55 54.2574 125.763V127.5H53.501V125.898C53.5022 125.73 53.4595 125.6 53.3731 125.506C53.2879 125.413 53.1684 125.366 53.0145 125.366C52.9115 125.366 52.8203 125.388 52.741 125.431C52.6629 125.475 52.6014 125.539 52.5564 125.623C52.5126 125.706 52.4901 125.806 52.4889 125.923ZM55.6303 127.551C55.4563 127.551 55.3013 127.521 55.1651 127.461C55.029 127.399 54.9213 127.309 54.842 127.189C54.7638 127.069 54.7248 126.918 54.7248 126.738C54.7248 126.587 54.7526 126.46 54.8082 126.357C54.8639 126.254 54.9396 126.171 55.0355 126.108C55.1314 126.045 55.2403 125.998 55.3622 125.966C55.4853 125.934 55.6143 125.911 55.7493 125.898C55.9079 125.882 56.0357 125.866 56.1328 125.852C56.2299 125.837 56.3003 125.814 56.3441 125.785C56.3879 125.755 56.4098 125.711 56.4098 125.653V125.643C56.4098 125.53 56.3743 125.443 56.3033 125.382C56.2334 125.32 56.134 125.289 56.005 125.289C55.8688 125.289 55.7605 125.32 55.68 125.38C55.5996 125.439 55.5463 125.514 55.5202 125.604L54.8207 125.547C54.8562 125.381 54.926 125.238 55.0302 125.117C55.1344 124.995 55.2687 124.902 55.4332 124.837C55.599 124.77 55.7907 124.737 56.0085 124.737C56.16 124.737 56.305 124.755 56.4435 124.79C56.5832 124.826 56.7069 124.881 56.8146 124.956C56.9235 125.03 57.0094 125.126 57.0721 125.243C57.1348 125.359 57.1662 125.498 57.1662 125.661V127.5H56.4489V127.122H56.4276C56.3838 127.207 56.3252 127.282 56.2518 127.347C56.1784 127.411 56.0902 127.462 55.9872 127.498C55.8842 127.534 55.7653 127.551 55.6303 127.551ZM55.8469 127.029C55.9582 127.029 56.0565 127.008 56.1417 126.964C56.2269 126.919 56.2938 126.858 56.3423 126.783C56.3909 126.707 56.4151 126.621 56.4151 126.525V126.236C56.3915 126.251 56.3589 126.265 56.3175 126.278C56.2772 126.29 56.2317 126.301 56.1808 126.312C56.1299 126.322 56.079 126.33 56.0281 126.339C55.9772 126.346 55.931 126.352 55.8896 126.358C55.8008 126.371 55.7232 126.392 55.657 126.42C55.5907 126.449 55.5392 126.487 55.5025 126.536C55.4658 126.583 55.4474 126.642 55.4474 126.713C55.4474 126.816 55.4847 126.895 55.5593 126.95C55.6351 127.003 55.7309 127.029 55.8469 127.029ZM57.753 127.5V124.773H58.4863V125.249H58.5147C58.5645 125.079 58.6479 124.951 58.7651 124.865C58.8823 124.777 59.0172 124.734 59.1699 124.734C59.2078 124.734 59.2486 124.736 59.2924 124.741C59.3362 124.746 59.3747 124.752 59.4078 124.76V125.431C59.3723 125.421 59.3232 125.411 59.2605 125.403C59.1977 125.395 59.1403 125.391 59.0882 125.391C58.977 125.391 58.8775 125.415 58.79 125.463C58.7035 125.511 58.6349 125.577 58.584 125.662C58.5343 125.748 58.5094 125.846 58.5094 125.957V127.5H57.753ZM60.3489 128.523C60.253 128.523 60.1631 128.515 60.079 128.5C59.9962 128.485 59.9275 128.467 59.873 128.445L60.0435 127.88C60.1323 127.907 60.2122 127.922 60.2832 127.924C60.3554 127.927 60.4176 127.91 60.4696 127.875C60.5229 127.839 60.5661 127.779 60.5993 127.694L60.6436 127.578L59.6653 124.773H60.4608L61.0254 126.776H61.0538L61.6238 124.773H62.4245L61.3645 127.795C61.3136 127.942 61.2444 128.069 61.1568 128.178C61.0704 128.288 60.9609 128.373 60.8283 128.432C60.6957 128.493 60.5359 128.523 60.3489 128.523Z" fill="black"/>
<path d="M6.76847 129.773V130.341H5.08523V129.773H6.76847ZM5.47053 132.5V129.576C5.47053 129.378 5.509 129.214 5.58594 129.084C5.66406 128.954 5.7706 128.856 5.90554 128.791C6.04048 128.726 6.19377 128.693 6.36541 128.693C6.48142 128.693 6.58736 128.702 6.68324 128.72C6.7803 128.738 6.85251 128.754 6.89986 128.768L6.76491 129.336C6.73532 129.326 6.69863 129.318 6.65483 129.309C6.61222 129.301 6.56842 129.297 6.52344 129.297C6.41217 129.297 6.33464 129.323 6.29084 129.375C6.24704 129.426 6.22514 129.498 6.22514 129.59V132.5H5.47053ZM7.23056 132.5V129.773H7.96387V130.249H7.99228C8.04199 130.079 8.12544 129.951 8.24263 129.865C8.35982 129.777 8.49476 129.734 8.64746 129.734C8.68534 129.734 8.72618 129.736 8.76998 129.741C8.81377 129.746 8.85224 129.752 8.88539 129.76V130.431C8.84988 130.421 8.80075 130.411 8.73801 130.403C8.67528 130.395 8.61787 130.391 8.56578 130.391C8.45452 130.391 8.35508 130.415 8.26749 130.463C8.18108 130.511 8.11242 130.577 8.06152 130.662C8.01181 130.748 7.98695 130.846 7.98695 130.957V132.5H7.23056ZM10.3817 132.553C10.1059 132.553 9.86742 132.495 9.66619 132.377C9.46615 132.259 9.31167 132.095 9.20277 131.884C9.09387 131.672 9.03942 131.426 9.03942 131.147C9.03942 130.865 9.09387 130.619 9.20277 130.408C9.31167 130.196 9.46615 130.032 9.66619 129.915C9.86742 129.796 10.1059 129.737 10.3817 129.737C10.6576 129.737 10.8955 129.796 11.0955 129.915C11.2968 130.032 11.4518 130.196 11.5607 130.408C11.6696 130.619 11.7241 130.865 11.7241 131.147C11.7241 131.426 11.6696 131.672 11.5607 131.884C11.4518 132.095 11.2968 132.259 11.0955 132.377C10.8955 132.495 10.6576 132.553 10.3817 132.553ZM10.3853 131.967C10.5108 131.967 10.6155 131.932 10.6996 131.861C10.7836 131.789 10.8469 131.69 10.8896 131.566C10.9334 131.442 10.9553 131.3 10.9553 131.142C10.9553 130.983 10.9334 130.842 10.8896 130.717C10.8469 130.593 10.7836 130.495 10.6996 130.423C10.6155 130.35 10.5108 130.314 10.3853 130.314C10.2586 130.314 10.1521 130.35 10.0657 130.423C9.98047 130.495 9.91596 130.593 9.87216 130.717C9.82955 130.842 9.80824 130.983 9.80824 131.142C9.80824 131.3 9.82955 131.442 9.87216 131.566C9.91596 131.69 9.98047 131.789 10.0657 131.861C10.1521 131.932 10.2586 131.967 10.3853 131.967ZM12.2159 132.5V129.773H12.9368V130.254H12.9688C13.0256 130.094 13.1203 129.968 13.2528 129.876C13.3854 129.783 13.544 129.737 13.7287 129.737C13.9157 129.737 14.0749 129.784 14.2063 129.877C14.3377 129.97 14.4253 130.095 14.4691 130.254H14.4975C14.5531 130.098 14.6538 129.973 14.7994 129.879C14.9461 129.785 15.1196 129.737 15.3196 129.737C15.5741 129.737 15.7807 129.818 15.9393 129.98C16.0991 130.141 16.179 130.37 16.179 130.666V132.5H15.4244V130.815C15.4244 130.663 15.3841 130.55 15.3036 130.474C15.2231 130.398 15.1225 130.36 15.0018 130.36C14.8645 130.36 14.7573 130.404 14.6804 130.492C14.6035 130.578 14.565 130.692 14.565 130.835V132.5H13.8317V130.799C13.8317 130.665 13.7932 130.559 13.7163 130.479C13.6405 130.4 13.5405 130.36 13.4162 130.36C13.3321 130.36 13.2564 130.382 13.1889 130.424C13.1226 130.466 13.07 130.524 13.0309 130.6C12.9918 130.675 12.9723 130.762 12.9723 130.863V132.5H12.2159ZM20.9894 128.864V132.5H20.3254L18.7433 130.211H18.7167V132.5H17.9479V128.864H18.6226L20.1922 131.151H20.2242V128.864H20.9894ZM22.8427 132.553C22.5669 132.553 22.3284 132.495 22.1271 132.377C21.9271 132.259 21.7726 132.095 21.6637 131.884C21.5548 131.672 21.5004 131.426 21.5004 131.147C21.5004 130.865 21.5548 130.619 21.6637 130.408C21.7726 130.196 21.9271 130.032 22.1271 129.915C22.3284 129.796 22.5669 129.737 22.8427 129.737C23.1185 129.737 23.3564 129.796 23.5565 129.915C23.7577 130.032 23.9128 130.196 24.0217 130.408C24.1306 130.619 24.185 130.865 24.185 131.147C24.185 131.426 24.1306 131.672 24.0217 131.884C23.9128 132.095 23.7577 132.259 23.5565 132.377C23.3564 132.495 23.1185 132.553 22.8427 132.553ZM22.8462 131.967C22.9717 131.967 23.0765 131.932 23.1605 131.861C23.2446 131.789 23.3079 131.69 23.3505 131.566C23.3943 131.442 23.4162 131.3 23.4162 131.142C23.4162 130.983 23.3943 130.842 23.3505 130.717C23.3079 130.593 23.2446 130.495 23.1605 130.423C23.0765 130.35 22.9717 130.314 22.8462 130.314C22.7196 130.314 22.613 130.35 22.5266 130.423C22.4414 130.495 22.3769 130.593 22.3331 130.717C22.2905 130.842 22.2692 130.983 22.2692 131.142C22.2692 131.3 22.2905 131.442 22.3331 131.566C22.3769 131.69 22.4414 131.789 22.5266 131.861C22.613 131.932 22.7196 131.967 22.8462 131.967ZM26.4258 131.339V129.773H27.1822V132.5H26.456V132.005H26.4276C26.366 132.164 26.2636 132.293 26.1204 132.39C25.9783 132.487 25.8049 132.536 25.6001 132.536C25.4179 132.536 25.2575 132.494 25.119 132.411C24.9805 132.328 24.8722 132.211 24.794 132.058C24.7171 131.905 24.678 131.722 24.6768 131.509V129.773H25.4332V131.374C25.4344 131.535 25.4776 131.663 25.5629 131.756C25.6481 131.85 25.7623 131.896 25.9055 131.896C25.9967 131.896 26.0819 131.876 26.1612 131.834C26.2405 131.792 26.3045 131.729 26.353 131.646C26.4027 131.563 26.427 131.461 26.4258 131.339ZM28.5436 130.923V132.5H27.7872V129.773H28.5081V130.254H28.54C28.6004 130.095 28.7016 129.97 28.8437 129.877C28.9857 129.784 29.1579 129.737 29.3604 129.737C29.5497 129.737 29.7149 129.779 29.8557 129.862C29.9966 129.944 30.1061 130.063 30.1842 130.217C30.2623 130.369 30.3014 130.552 30.3014 130.763V132.5H29.545V130.898C29.5462 130.732 29.5036 130.601 29.4172 130.508C29.3308 130.413 29.2118 130.366 29.0603 130.366C28.9585 130.366 28.8685 130.388 28.7904 130.431C28.7135 130.475 28.6531 130.539 28.6093 130.623C28.5667 130.706 28.5448 130.806 28.5436 130.923ZM32.069 132.5V128.864H33.5036C33.7794 128.864 34.0144 128.916 34.2085 129.022C34.4027 129.126 34.5506 129.271 34.6524 129.457C34.7554 129.641 34.8069 129.854 34.8069 130.096C34.8069 130.337 34.7548 130.55 34.6507 130.735C34.5465 130.92 34.3956 131.064 34.1979 131.167C34.0014 131.27 33.7635 131.321 33.4841 131.321H32.5697V130.705H33.3598C33.5078 130.705 33.6297 130.679 33.7256 130.629C33.8227 130.576 33.8949 130.505 33.9422 130.414C33.9907 130.321 34.015 130.215 34.015 130.096C34.015 129.975 33.9907 129.87 33.9422 129.78C33.8949 129.689 33.8227 129.618 33.7256 129.569C33.6285 129.518 33.5054 129.492 33.3563 129.492H32.8378V132.5H32.069ZM35.2921 132.5V129.773H36.0254V130.249H36.0538C36.1035 130.079 36.187 129.951 36.3042 129.865C36.4213 129.777 36.5563 129.734 36.709 129.734C36.7469 129.734 36.7877 129.736 36.8315 129.741C36.8753 129.746 36.9138 129.752 36.9469 129.76V130.431C36.9114 130.421 36.8623 130.411 36.7995 130.403C36.7368 130.395 36.6794 130.391 36.6273 130.391C36.516 130.391 36.4166 130.415 36.329 130.463C36.2426 130.511 36.1739 130.577 36.123 130.662C36.0733 130.748 36.0485 130.846 36.0485 130.957V132.5H35.2921ZM38.4433 132.553C38.1675 132.553 37.9289 132.495 37.7277 132.377C37.5277 132.259 37.3732 132.095 37.2643 131.884C37.1554 131.672 37.1009 131.426 37.1009 131.147C37.1009 130.865 37.1554 130.619 37.2643 130.408C37.3732 130.196 37.5277 130.032 37.7277 129.915C37.9289 129.796 38.1675 129.737 38.4433 129.737C38.7191 129.737 38.957 129.796 39.157 129.915C39.3583 130.032 39.5133 130.196 39.6222 130.408C39.7311 130.619 39.7856 130.865 39.7856 131.147C39.7856 131.426 39.7311 131.672 39.6222 131.884C39.5133 132.095 39.3583 132.259 39.157 132.377C38.957 132.495 38.7191 132.553 38.4433 132.553ZM38.4468 131.967C38.5723 131.967 38.6771 131.932 38.7611 131.861C38.8451 131.789 38.9085 131.69 38.9511 131.566C38.9949 131.442 39.0168 131.3 39.0168 131.142C39.0168 130.983 38.9949 130.842 38.9511 130.717C38.9085 130.593 38.8451 130.495 38.7611 130.423C38.6771 130.35 38.5723 130.314 38.4468 130.314C38.3202 130.314 38.2136 130.35 38.1272 130.423C38.042 130.495 37.9775 130.593 37.9337 130.717C37.8911 130.842 37.8698 130.983 37.8698 131.142C37.8698 131.3 37.8911 131.442 37.9337 131.566C37.9775 131.69 38.042 131.789 38.1272 131.861C38.2136 131.932 38.3202 131.967 38.4468 131.967ZM40.2774 129.773H41.0338V132.635C41.0338 132.846 40.9924 133.016 40.9095 133.146C40.8267 133.277 40.7077 133.372 40.5526 133.432C40.3988 133.493 40.2147 133.523 40.0004 133.523C39.9744 133.523 39.9495 133.522 39.9259 133.521C39.901 133.521 39.875 133.52 39.8477 133.519V132.928C39.8679 132.929 39.8856 132.93 39.901 132.93C39.9152 132.931 39.9306 132.931 39.9472 132.931C40.0691 132.931 40.1543 132.905 40.2029 132.853C40.2526 132.802 40.2774 132.725 40.2774 132.623V129.773ZM40.6539 129.421C40.5426 129.421 40.4467 129.384 40.3662 129.309C40.2857 129.234 40.2455 129.143 40.2455 129.038C40.2455 128.933 40.2857 128.844 40.3662 128.77C40.4467 128.694 40.5426 128.656 40.6539 128.656C40.7675 128.656 40.864 128.694 40.9433 128.77C41.0238 128.844 41.064 128.933 41.064 129.038C41.064 129.143 41.0238 129.234 40.9433 129.309C40.864 129.384 40.7675 129.421 40.6539 129.421ZM42.8826 132.553C42.6021 132.553 42.3606 132.496 42.1582 132.383C41.957 132.268 41.8019 132.106 41.693 131.896C41.5841 131.686 41.5297 131.436 41.5297 131.149C41.5297 130.868 41.5841 130.622 41.693 130.41C41.8019 130.198 41.9552 130.033 42.1529 129.915C42.3517 129.796 42.5849 129.737 42.8525 129.737C43.0324 129.737 43.1999 129.766 43.3549 129.824C43.5112 129.881 43.6473 129.967 43.7633 130.082C43.8805 130.196 43.9717 130.341 44.0368 130.515C44.1019 130.688 44.1344 130.89 44.1344 131.122V131.33H41.8315V130.861H43.4224C43.4224 130.752 43.3987 130.656 43.3514 130.572C43.304 130.488 43.2383 130.422 43.1543 130.375C43.0714 130.326 42.975 130.302 42.8649 130.302C42.7501 130.302 42.6483 130.328 42.5595 130.382C42.4719 130.434 42.4032 130.504 42.3535 130.593C42.3038 130.681 42.2783 130.778 42.2772 130.886V131.332C42.2772 131.467 42.302 131.583 42.3517 131.681C42.4026 131.78 42.4743 131.855 42.5666 131.909C42.6589 131.962 42.7684 131.989 42.8951 131.989C42.9791 131.989 43.056 131.977 43.1259 131.953C43.1957 131.929 43.2555 131.894 43.3052 131.847C43.3549 131.799 43.3928 131.741 43.4189 131.673L44.1184 131.719C44.0829 131.887 44.0101 132.034 43.9 132.159C43.7911 132.283 43.6503 132.38 43.4775 132.45C43.3058 132.519 43.1075 132.553 42.8826 132.553ZM45.8603 132.553C45.5809 132.553 45.3406 132.494 45.1394 132.376C44.9393 132.256 44.7855 132.09 44.6777 131.879C44.5712 131.667 44.5179 131.423 44.5179 131.147C44.5179 130.868 44.5718 130.623 44.6795 130.412C44.7884 130.2 44.9429 130.035 45.1429 129.917C45.343 129.797 45.5809 129.737 45.8567 129.737C46.0946 129.737 46.303 129.78 46.4817 129.867C46.6605 129.953 46.8019 130.075 46.9061 130.231C47.0102 130.387 47.0676 130.571 47.0783 130.781H46.3645C46.3444 130.645 46.2911 130.536 46.2047 130.453C46.1195 130.369 46.0076 130.327 45.8691 130.327C45.752 130.327 45.6496 130.359 45.562 130.423C45.4756 130.485 45.4081 130.577 45.3596 130.698C45.311 130.819 45.2868 130.965 45.2868 131.136C45.2868 131.31 45.3104 131.458 45.3578 131.58C45.4063 131.702 45.4744 131.795 45.562 131.859C45.6496 131.923 45.752 131.955 45.8691 131.955C45.9556 131.955 46.0331 131.937 46.1017 131.902C46.1716 131.866 46.229 131.815 46.274 131.747C46.3201 131.679 46.3503 131.596 46.3645 131.5H47.0783C47.0665 131.709 47.0096 131.892 46.9078 132.051C46.8072 132.208 46.6681 132.331 46.4906 132.42C46.313 132.509 46.1029 132.553 45.8603 132.553ZM49.0132 129.773V130.341H47.3708V129.773H49.0132ZM47.7437 129.119H48.5001V131.662C48.5001 131.732 48.5107 131.786 48.532 131.825C48.5534 131.863 48.5829 131.89 48.6208 131.905C48.6599 131.921 48.7049 131.928 48.7558 131.928C48.7913 131.928 48.8268 131.925 48.8623 131.919C48.8978 131.912 48.925 131.907 48.944 131.903L49.0629 132.466C49.0251 132.478 48.9718 132.492 48.9031 132.507C48.8345 132.524 48.751 132.534 48.6528 132.537C48.4705 132.544 48.3107 132.52 48.1734 132.464C48.0373 132.409 47.9313 132.322 47.8556 132.205C47.7798 132.088 47.7425 131.94 47.7437 131.761V129.119Z" fill="black"/>
<path d="M7.12488 126.335C7.22676 126.335 14.5435 126.332 27.3494 126.244C36.4902 125.991 41.1251 125.716 43.8708 125.561C45.6898 125.509 48.3727 125.509 51.137 125.509" stroke="white" stroke-width="38" stroke-linecap="round"/>
</g>
<defs>
<clipPath id="clip0_9_16">
<rect width="110" height="135" fill="white"/>
</clipPath>
</defs>
</svg>
